<?xml version="1.0" standalone="no"?>
<!DOCTYPE svg PUBLIC "-//W3C//DTD SVG 20010904//EN"
 "http://www.w3.org/TR/2001/REC-SVG-20010904/DTD/svg10.dtd">
<svg version="1.0" xmlns="http://www.w3.org/2000/svg"
 width="672.000000pt" height="672.000000pt" viewBox="0 0 672.000000 672.000000"
 preserveAspectRatio="xMidYMid meet">
<metadata>
Created by potrace 1.14, written by Peter Selinger 2001-2017
</metadata>
<g transform="translate(0.000000,672.000000) scale(0.100000,-0.100000)"
fill="#000000" stroke="none">
<path d="M3535 5781 c-36 -80 -131 -184 -222 -244 l-63 -41 0 -443 c0 -244 2
-443 6 -443 14 0 124 83 167 125 63 63 104 124 130 193 20 54 22 79 25 432 1
206 -1 400 -5 431 l-8 56 -30 -66z"/>
<path d="M3785 4467 c-555 -321 -1076 -621 -1157 -668 l-148 -84 0 -165 0
-166 -59 -51 c-32 -29 -63 -54 -68 -55 -14 -4 -279 392 -316 471 -40 85 -47
158 -18 188 l21 22 -22 14 c-56 35 -61 36 -79 13 -33 -42 -42 -100 -24 -168
23 -90 71 -178 217 -396 72 -107 132 -202 135 -211 5 -19 -52 -51 -92 -51 -30
0 -94 56 -137 118 -17 24 -84 152 -150 285 -128 257 -165 322 -224 387 -90 99
-193 105 -316 18 -9 -7 -19 -10 -21 -8 -25 27 -177 269 -198 317 -42 91 -47
137 -19 175 24 33 24 33 -34 64 -24 13 -30 14 -38 2 -74 -111 -41 -230 139
-501 l87 -130 -45 -38 c-24 -21 -63 -46 -85 -55 -37 -14 -45 -14 -70 -1 -69
36 -112 103 -263 405 -133 266 -175 336 -244 399 -58 54 -113 71 -170 54 -23
-6 -48 -13 -56 -14 -20 -3 -107 145 -131 222 -22 68 -19 93 11 126 18 21 18
21 -11 39 l-30 17 0 -172 0 -171 35 -58 c19 -32 35 -62 35 -68 0 -6 -16 -23
-35 -38 -34 -25 -35 -29 -35 -91 l0 -65 62 56 c34 31 64 56 67 56 10 0 167
-241 200 -306 46 -94 56 -145 37 -183 -20 -37 -61 -60 -186 -99 -53 -16 -114
-39 -138 -51 l-42 -21 0 -192 c0 -177 2 -193 21 -225 l21 -34 -21 -23 c-16
-17 -21 -35 -21 -80 l0 -57 44 35 c23 20 47 36 52 36 9 0 180 -256 227 -340
14 -25 33 -71 42 -103 30 -106 4 -132 -196 -197 -68 -22 -133 -47 -146 -55
l-23 -15 0 -261 0 -260 31 21 c16 12 31 21 33 19 26 -32 222 -331 248 -379 42
-76 72 -171 63 -200 -12 -37 -59 -70 -139 -96 l-78 -26 46 -29 c25 -16 54 -29
64 -29 39 0 143 62 167 99 71 109 35 219 -173 530 -68 101 -126 190 -129 196
-6 17 84 75 116 75 77 0 138 -83 300 -408 135 -270 171 -332 232 -393 74 -74
156 -89 245 -44 l49 25 17 -22 c43 -57 144 -228 165 -280 49 -122 22 -173
-117 -218 l-79 -26 54 -32 54 -32 43 17 c119 46 162 106 156 211 -4 82 -45
174 -148 331 -38 59 -70 112 -69 117 1 17 120 113 154 124 87 29 151 -50 318
-390 130 -263 195 -370 257 -423 48 -41 109 -61 160 -52 37 6 38 6 75 -54 41
-69 75 -157 75 -197 0 -41 -54 -87 -135 -114 -38 -12 -73 -25 -77 -29 -4 -3
17 -19 46 -35 l53 -29 47 18 c62 24 132 86 147 132 21 65 6 137 -55 256 l-55
109 66 61 c36 34 69 63 74 65 5 2 9 -166 9 -388 0 -369 1 -392 17 -385 10 3
302 170 649 371 l632 365 637 -374 637 -375 251 148 c139 81 475 279 747 439
272 160 498 292 503 293 4 2 6 537 5 1189 l-3 1186 -754 -443 c-664 -390 -756
-442 -775 -432 -12 6 -136 80 -276 163 -140 84 -311 185 -380 225 -69 40 -183
108 -255 150 -71 42 -229 135 -349 205 -201 118 -218 130 -200 143 22 16 765
452 770 452 2 0 4 -118 4 -262 0 -240 2 -267 20 -307 31 -68 75 -116 154 -169
367 -245 1061 -160 1215 150 l31 61 -1 306 c-1 278 -2 302 -15 266 -46 -128
-210 -248 -413 -301 -196 -51 -453 -41 -641 24 -160 56 -300 167 -333 266 -65
192 66 361 352 457 l91 31 0 334 c0 184 -1 334 -2 334 -2 0 -457 -262 -1013
-583z m-3285 57 c57 -52 104 -131 239 -405 124 -254 179 -337 257 -392 80 -56
153 -47 260 33 l63 49 35 -57 c85 -141 113 -232 86 -283 -15 -26 -86 -61 -205
-97 -183 -57 -241 -116 -233 -236 5 -76 49 -173 148 -325 38 -59 70 -112 70
-118 0 -22 -82 -68 -121 -68 -77 0 -131 75 -296 408 -62 125 -131 256 -153
291 -44 69 -115 141 -156 156 -42 16 -112 11 -165 -11 -27 -12 -51 -20 -53
-18 -13 14 -76 151 -85 186 -13 48 -3 85 32 114 12 10 84 39 159 64 155 52
211 87 239 148 44 98 8 206 -151 446 -45 68 -84 130 -87 138 -4 9 6 13 36 13
33 0 49 -7 81 -36z m1088 -631 c58 -58 111 -150 229 -394 161 -332 243 -429
365 -429 27 0 63 9 92 24 l48 24 15 -36 c9 -21 16 -59 17 -85 1 -43 -3 -52
-29 -73 -16 -13 -86 -42 -155 -65 -191 -63 -234 -94 -259 -187 -25 -90 28
-213 205 -474 65 -96 113 -176 110 -184 -8 -20 -65 -17 -102 5 -49 30 -122
149 -257 423 -175 352 -236 423 -361 423 -64 0 -107 -19 -182 -80 l-32 -26
-63 98 c-159 245 -175 335 -70 387 25 13 92 37 147 55 173 53 234 111 234 223
0 72 -25 141 -95 257 -30 50 -55 94 -55 98 0 18 85 63 117 63 27 0 44 -10 81
-47z m-1092 -525 c54 -48 95 -115 222 -373 156 -314 215 -400 304 -446 64 -33
151 -17 225 41 14 11 29 20 33 20 23 0 160 -253 167 -310 12 -88 -19 -115
-195 -171 -56 -17 -126 -46 -155 -63 -138 -83 -129 -223 32 -474 28 -43 51
-84 51 -90 0 -15 -53 -42 -81 -42 -71 0 -152 111 -293 404 -53 109 -113 226
-133 260 -114 191 -217 245 -343 181 -27 -13 -51 -29 -55 -35 -14 -23 -34 -7
-57 48 -36 81 -40 107 -24 146 18 42 46 58 198 107 132 43 187 73 216 121 65
106 26 225 -170 517 -54 80 -98 149 -98 153 0 14 55 37 87 38 23 0 44 -10 69
-32z m1984 -638 c0 -292 -4 -520 -9 -520 -5 0 -40 -29 -79 -65 -38 -36 -74
-65 -78 -65 -13 1 -228 324 -270 407 -40 77 -54 156 -35 192 16 28 66 53 187
90 135 42 202 83 232 141 28 56 28 113 1 188 -11 31 -23 65 -26 74 -5 15 50
77 70 78 4 0 7 -234 7 -520z m-924 31 c53 -32 116 -133 252 -407 140 -280 199
-370 271 -416 41 -26 53 -29 106 -25 33 2 70 7 82 12 19 6 25 0 51 -52 59
-117 51 -178 -27 -217 -25 -13 -86 -36 -136 -51 -157 -47 -214 -87 -240 -165
-31 -95 12 -209 172 -447 52 -78 93 -147 91 -152 -2 -6 -16 -4 -35 4 -57 24
-119 120 -258 400 -154 310 -211 394 -296 438 -87 46 -154 30 -264 -63 -33
-28 -62 -50 -66 -50 -10 0 -80 113 -124 198 -20 39 -38 93 -42 121 -5 47 -4
52 26 80 23 22 69 42 164 73 213 69 261 115 255 243 -4 82 -39 165 -132 309
l-57 89 37 31 c81 67 119 78 170 47z m924 -1190 l0 -519 -26 -17 c-15 -9 -60
-48 -102 -87 -41 -38 -78 -66 -82 -61 -25 27 -212 320 -235 369 -32 67 -43
141 -26 173 16 28 73 56 200 97 136 43 191 77 221 139 31 64 24 136 -24 240
-20 43 -36 81 -36 86 0 10 92 98 103 99 4 0 7 -233 7 -519z"/>
</g>
</svg>
