<svg xmlns="http://www.w3.org/2000/svg" width="17" height="16" viewBox="0 0 17 16" fill="none">
<path fill-rule="evenodd" clip-rule="evenodd" d="M10.9885 1.67676C10.8237 1.67676 10.6901 1.81037 10.6901 1.97518V2.57202H8.9742C8.80939 2.57202 8.67578 2.70563 8.67578 2.87044V9.2865C8.67578 9.45132 8.80939 9.58492 8.9742 9.58492H10.2425V9.2865C10.2425 8.95687 10.5097 8.68966 10.8393 8.68966H12.033C12.3626 8.68966 12.6299 8.95687 12.6299 9.2865V9.58492H14.1966C14.3614 9.58492 14.495 9.45132 14.495 9.2865V2.87044C14.495 2.70563 14.3614 2.57202 14.1966 2.57202H12.4807V1.97518C12.4807 1.81037 12.347 1.67676 12.1822 1.67676H10.9885ZM10.8435 7.94363L9.6749 3.34795H10.5678L11.5394 7.38559H11.6314L12.603 3.34795H13.4959L12.3273 7.94363H10.8435Z" fill="white"/>
<path fill-rule="evenodd" clip-rule="evenodd" d="M5.01956 8.98633C4.85474 8.98633 4.72114 9.11994 4.72114 9.28475V9.88159H2.79842C2.63361 9.88159 2.5 10.0152 2.5 10.18V15.7008C2.5 15.8656 2.63361 15.9992 2.79842 15.9992H14.196C14.3608 15.9992 14.4944 15.8656 14.4944 15.7008V10.18C14.4944 10.0152 14.3608 9.88159 14.196 9.88159H12.3309V9.28475C12.3309 9.11994 12.1973 8.98633 12.0325 8.98633H10.8388C10.674 8.98633 10.5403 9.11994 10.5403 9.28475V9.88159H6.51166V9.28475C6.51166 9.11994 6.37806 8.98633 6.21324 8.98633H5.01956ZM6.06403 10.6425V15.2382H6.90439V11.2793H7.02256L7.81039 15.2382H9.24162L10.0295 11.2793H10.1476V15.2382H10.988V10.6425H9.37949L8.58509 14.6473H8.46692L7.67252 10.6425H6.06403Z" fill="white"/>
<path d="M4.99527 5.47904H5.80937C5.99757 5.47904 6.14857 5.43309 6.26237 5.34117C6.38054 5.24926 6.43963 5.11795 6.43963 4.94726V4.8816C6.43963 4.71091 6.38273 4.5796 6.26893 4.48769C6.15514 4.39577 6.00195 4.34982 5.80937 4.34982H4.99527V5.47904Z" fill="white"/>
<path d="M4.99527 3.56199H5.79624C5.97569 3.56199 6.12231 3.51603 6.23611 3.42411C6.35428 3.3322 6.41337 3.20527 6.41337 3.04333V2.97768C6.41337 2.81136 6.35647 2.68443 6.24267 2.59689C6.12888 2.50498 5.98006 2.45902 5.79624 2.45902H4.99527V3.56199Z" fill="white"/>
<path fill-rule="evenodd" clip-rule="evenodd" d="M4.81862 0C4.65381 0 4.5202 0.133608 4.5202 0.298421V0.895264H2.80428C2.63947 0.895264 2.50586 1.02887 2.50586 1.19369V7.60974C2.50586 7.77456 2.63947 7.90816 2.80428 7.90816H4.31967V7.35839C4.31967 7.19357 4.45327 7.05997 4.61809 7.05997H6.21285C6.37766 7.05997 6.51127 7.19357 6.51127 7.35839V7.90816H8.02665C8.19147 7.90816 8.32508 7.77456 8.32508 7.60974V1.19369C8.32508 1.02887 8.19147 0.895264 8.02665 0.895264H6.31073V0.298421C6.31073 0.133608 6.17712 0 6.01231 0H4.81862ZM4.31846 1.22356H4.7661V1.67119H5.57007V1.22356H6.0177V1.67477C6.24384 1.68754 6.44357 1.7345 6.61689 1.81562C6.82698 1.90754 6.98893 2.04103 7.10272 2.21611C7.2209 2.3868 7.27999 2.59251 7.27999 2.83324V2.89889C7.27999 3.10898 7.24059 3.28187 7.16181 3.41755C7.08303 3.54886 6.98893 3.65171 6.87951 3.72612C6.77446 3.79615 6.67379 3.84648 6.5775 3.87712V3.99529C6.67379 4.02155 6.77884 4.07189 6.89264 4.14629C7.00643 4.21632 7.10272 4.31918 7.18151 4.45486C7.26467 4.59054 7.30625 4.76781 7.30625 4.98665V5.0523C7.30625 5.30616 7.24716 5.525 7.12899 5.70883C7.01081 5.88828 6.84668 6.02615 6.63659 6.12244C6.45698 6.20651 6.25069 6.25388 6.0177 6.26455V6.71448H5.57007V6.26688H4.7661V6.71448H4.31846V6.26688H3.52465V5.5053H4.12866V2.43276H3.52465V1.67119H4.31846V1.22356Z" fill="white"/>
</svg>