<svg xmlns="http://www.w3.org/2000/svg" width="20" height="20" viewBox="0 0 20 20" fill="none">
  <path d="M10.7595 9.37533H8.99698V7.5753H10.7595C11.2453 7.5753 11.6412 7.9787 11.6412 8.47536C11.6412 8.97203 11.2453 9.37533 10.7595 9.37533ZM11.1895 10.6253H10.7587H8.99617V12.4254H11.1887C11.6745 12.4254 12.0703 12.022 12.0703 11.5253C12.0703 11.0286 11.6762 10.6253 11.1895 10.6253ZM18.3337 10.0003C18.3337 14.6028 14.6028 18.3337 10.0003 18.3337C5.39783 18.3337 1.66699 14.6028 1.66699 10.0003C1.66699 5.39783 5.39783 1.66699 10.0003 1.66699C14.6028 1.66699 18.3337 5.39783 18.3337 10.0003ZM13.3211 11.5253C13.3211 10.8095 12.9695 10.1795 12.4345 9.78782C12.7162 9.42366 12.8903 8.97203 12.8903 8.47536C12.8903 7.4337 12.152 6.56365 11.1745 6.36782V5.83366C11.1745 5.48866 10.8945 5.20866 10.5495 5.20866C10.2045 5.20866 9.92449 5.48866 9.92449 5.83366V6.3253H9.43199V5.83366C9.43199 5.48866 9.15199 5.20866 8.80699 5.20866C8.46199 5.20866 8.18199 5.48866 8.18199 5.83366V6.3253H7.30367C6.95867 6.3253 6.67867 6.6053 6.67867 6.9503C6.67867 7.2953 6.95867 7.5753 7.30367 7.5753H7.74617V12.4254H7.30367C6.95867 12.4254 6.67867 12.7054 6.67867 13.0504C6.67867 13.3954 6.95867 13.6754 7.30367 13.6754H8.18199V14.167C8.18199 14.512 8.46199 14.792 8.80699 14.792C9.15199 14.792 9.43199 14.512 9.43199 14.167V13.6754H9.92449V14.167C9.92449 14.512 10.2045 14.792 10.5495 14.792C10.8945 14.792 11.1745 14.512 11.1745 14.167V13.6754H11.1887C12.3653 13.6754 13.3211 12.7111 13.3211 11.5253Z" fill="black"/>
</svg>