<svg xmlns="http://www.w3.org/2000/svg" width="16" height="16" viewBox="0 0 16 16" fill="none">
  <g clip-path="url(#clip0_29960_6222)">
    <path d="M13.5 0H12.5C12.224 0 12 0.224 12 0.5V2H10.5C10.224 2 10 2.224 10 2.5V3.5C10 3.776 10.224 4 10.5 4H12V5.5C12 5.776 12.224 6 12.5 6H13.5C13.776 6 14 5.776 14 5.5V4H15.5C15.776 4 16 3.776 16 3.5V2.5C16 2.224 15.776 2 15.5 2H14V0.5C14 0.224 13.776 0 13.5 0Z" fill="white"/>
    <path d="M11.494 7.772C9.934 7.287 8.713 6.066 8.228 4.506C7.976 3.695 7.932 2.833 8.1 2H2C0.895 2 0 2.895 0 4V14C0 15.105 0.895 16 2 16H12C13.105 16 14 15.105 14 14V7.9C13.167 8.068 12.305 8.024 11.494 7.772ZM12 14H2V12H12V14Z" fill="white"/>
  </g>
  <defs>
    <clipPath id="clip0_29960_6222">
      <rect width="16" height="16" fill="white"/>
    </clipPath>
  </defs>
</svg>