<svg xmlns="http://www.w3.org/2000/svg" width="20" height="20" viewBox="0 0 20 20" fill="none">
<path d="M12.2917 10.0003C12.2917 11.2645 11.2642 12.292 10 12.292C8.73587 12.292 7.70837 11.2645 7.70837 10.0003C7.70837 9.70949 7.7683 9.43363 7.86747 9.17696C8.02913 9.30529 8.22419 9.39364 8.44669 9.39364C8.96919 9.39364 9.39334 8.96948 9.39334 8.44698C9.39334 8.22448 9.305 8.02942 9.17667 7.86776C9.43334 7.76859 9.7092 7.70866 10 7.70866C11.2642 7.70866 12.2917 8.73616 12.2917 10.0003ZM17.1601 11.2312C16.1376 12.9429 13.8409 15.8337 10 15.8337C6.1592 15.8337 3.8625 12.9429 2.84 11.2312C2.38667 10.4729 2.38667 9.52778 2.84 8.76945C3.8625 7.05778 6.1592 4.16699 10 4.16699C13.8409 4.16699 16.1376 7.05778 17.1601 8.76945C17.6134 9.52778 17.6134 10.4729 17.1601 11.2312ZM13.5417 10.0003C13.5417 8.04783 11.9534 6.45866 10 6.45866C8.0467 6.45866 6.45837 8.04783 6.45837 10.0003C6.45837 11.9528 8.0467 13.542 10 13.542C11.9534 13.542 13.5417 11.9528 13.5417 10.0003Z" fill="black"/>
</svg>