<svg xmlns="http://www.w3.org/2000/svg" width="17" height="16" viewBox="0 0 17 16" fill="none">
  <path d="M8.49967 15.1663C4.54767 15.1663 1.33301 11.9517 1.33301 7.99967C1.33301 4.04767 4.54767 0.833008 8.49967 0.833008C12.4517 0.833008 15.6663 4.04767 15.6663 7.99967C15.6663 11.9517 12.4517 15.1663 8.49967 15.1663ZM8.49967 1.83301C5.09901 1.83301 2.33301 4.59901 2.33301 7.99967C2.33301 11.4003 5.09901 14.1663 8.49967 14.1663C11.9003 14.1663 14.6663 11.4003 14.6663 7.99967C14.6663 4.59901 11.9003 1.83301 8.49967 1.83301ZM8.99967 10.9997V7.95231C8.99967 7.67631 8.77567 7.45231 8.49967 7.45231C8.22367 7.45231 7.99967 7.67631 7.99967 7.95231V10.9997C7.99967 11.2757 8.22367 11.4997 8.49967 11.4997C8.77567 11.4997 8.99967 11.2757 8.99967 10.9997ZM9.17969 5.66634C9.17969 5.29834 8.88169 4.99967 8.51302 4.99967H8.50635C8.13835 4.99967 7.84294 5.29834 7.84294 5.66634C7.84294 6.03434 8.14502 6.33301 8.51302 6.33301C8.88102 6.33301 9.17969 6.03434 9.17969 5.66634Z" fill="white"/>
</svg>