<svg xmlns="http://www.w3.org/2000/svg" width="32" height="32" viewBox="0 0 32 32" fill="none">
<path d="M15.7336 29.8675C19.6644 29.8675 22.851 28.6039 22.851 27.0451C22.851 25.4863 19.6644 24.2227 15.7336 24.2227C11.8028 24.2227 8.61621 25.4863 8.61621 27.0451C8.61621 28.6039 11.8028 29.8675 15.7336 29.8675Z" fill="#C59A00"/>
<path d="M26.2874 8.51465H5.18066V22.7495H26.2874V8.51465Z" fill="#F9E000"/>
<path d="M21.9922 14.7733C22.5648 14.2007 23.9802 13.9143 25.06 14.4052" stroke="black" stroke-width="0.306785"/>
<path d="M15.7341 28.3948C21.5625 28.3948 26.2874 25.7576 26.2874 22.5045C26.2874 19.2514 21.5625 16.6143 15.7341 16.6143C9.90558 16.6143 5.18066 19.2514 5.18066 22.5045C5.18066 25.7576 9.90558 28.3948 15.7341 28.3948Z" fill="#F9E000"/>
<path d="M23.7863 24.4948C22.6274 25.113 21.9505 24.0649 21.7568 23.4636C22.6547 22.5619 23.1445 21.8426 23.2772 21.5957C23.9298 22.3045 24.9452 23.8766 23.7863 24.4948Z" fill="#FC324F"/>
<path d="M16.7158 23.1174C17.943 24.3445 22.3607 24.3445 23.5878 21.0312" stroke="black" stroke-width="0.460177" stroke-linecap="round"/>
<path d="M22.8516 20.5415C23.1379 20.5006 24.0296 20.6396 24.3241 21.5232" stroke="black" stroke-width="0.306785"/>
<path d="M15.7341 14.1595C21.5625 14.1595 26.2874 11.6871 26.2874 8.63736C26.2874 5.58757 21.5625 3.11523 15.7341 3.11523C9.90558 3.11523 5.18066 5.58757 5.18066 8.63736C5.18066 11.6871 9.90558 14.1595 15.7341 14.1595Z" fill="#F9E000"/>
<path d="M15.4887 9.00595C17.793 9.00595 19.6609 8.12689 19.6609 7.04252C19.6609 5.95816 17.793 5.0791 15.4887 5.0791C13.1844 5.0791 11.3164 5.95816 11.3164 7.04252C11.3164 8.12689 13.1844 9.00595 15.4887 9.00595Z" fill="#FFF427"/>
<path d="M19.6609 4.09766H11.3164V7.28822H19.6609V4.09766Z" fill="#FFF427"/>
<path d="M15.4887 6.06063C17.793 6.06063 19.6609 5.18158 19.6609 4.09721C19.6609 3.01284 17.793 2.13379 15.4887 2.13379C13.1844 2.13379 11.3164 3.01284 11.3164 4.09721C11.3164 5.18158 13.1844 6.06063 15.4887 6.06063Z" fill="#FFF875"/>
<path d="M15.4891 5.07866C16.709 5.07866 17.698 4.63913 17.698 4.09695C17.698 3.55476 16.709 3.11523 15.4891 3.11523C14.2692 3.11523 13.2803 3.55476 13.2803 4.09695C13.2803 4.63913 14.2692 5.07866 15.4891 5.07866Z" fill="#CDAC00"/>
<path d="M6.16211 10.8467C7.47106 12.3602 12.1751 15.019 20.5196 13.5464C17.4109 14.6917 10.1871 15.7552 6.16211 10.8467Z" fill="white"/>
<path d="M16.0416 20.0821C16.6179 20.3281 17.3505 19.9058 17.6778 19.1388C18.0052 18.3719 17.8034 17.5507 17.2271 17.3048C16.6508 17.0588 15.9182 17.4811 15.5909 18.2481C15.2635 19.015 15.4653 19.8362 16.0416 20.0821Z" fill="black"/>
<path d="M18.0666 16.4912C17.5757 16.3685 16.324 16.0494 15.2441 16.7366" stroke="black" stroke-width="0.306785"/>
<path d="M22.8949 18.7569C23.3255 18.8982 23.8852 18.3703 24.1451 17.578C24.4051 16.7856 24.2668 16.0288 23.8362 15.8876C23.4057 15.7463 22.8459 16.2742 22.586 17.0665C22.3261 17.8589 22.4644 18.6157 22.8949 18.7569Z" fill="black"/>
</svg>