<svg xmlns="http://www.w3.org/2000/svg" width="17" height="16" viewBox="0 0 17 16" fill="none">
  <g clip-path="url(#clip0_29960_6229)">
    <path d="M16.37 5.60433C16.308 5.52034 16.2271 5.4521 16.1339 5.40508C16.0407 5.35807 15.9377 5.33361 15.8333 5.33366H3.83333C3.69073 5.33363 3.55188 5.37933 3.43716 5.46405C3.32245 5.54876 3.23793 5.66803 3.196 5.80433L1.83333 10.233V2.00033H5.47667L6.61 3.70366C6.67109 3.79522 6.75389 3.87023 6.85103 3.922C6.94816 3.97376 7.0566 4.00068 7.16667 4.00033H12.5V4.667H13.8333V3.33366C13.8333 3.15685 13.7631 2.98728 13.6381 2.86226C13.513 2.73723 13.3435 2.667 13.1667 2.667H7.52333L6.39 0.963662C6.32891 0.872103 6.24611 0.797092 6.14897 0.745326C6.05184 0.69356 5.9434 0.666649 5.83333 0.666995H1.16667C0.989856 0.666995 0.820286 0.737233 0.695262 0.862258C0.570238 0.987282 0.5 1.15685 0.5 1.33366L0.5 14.667H0.516667C0.510758 14.8078 0.550512 14.9467 0.63 15.063C0.692013 15.147 0.772884 15.2152 0.866099 15.2622C0.959314 15.3093 1.06227 15.3337 1.16667 15.3337H13.1667C13.3093 15.3337 13.4481 15.288 13.5628 15.2033C13.6775 15.1186 13.7621 14.9993 13.804 14.863L16.4707 6.19633C16.5014 6.09665 16.5082 5.99117 16.4908 5.88835C16.4733 5.78554 16.4319 5.68825 16.37 5.60433Z" fill="white"/>
  </g>
  <defs>
    <clipPath id="clip0_29960_6229">
      <rect width="16" height="16" fill="white" transform="translate(0.5)"/>
    </clipPath>
  </defs>
</svg>