<svg xmlns="http://www.w3.org/2000/svg" width="16" height="16" viewBox="0 0 16 16" fill="none">
  <g clip-path="url(#clip0_29960_6199)">
    <path d="M15.7 4.30035L11.7 0.300352C11.612 0.202644 11.5038 0.125214 11.383 0.0734163C11.2621 0.0216187 11.1314 -0.00331056 11 0.000352402H10V3.00035C10 3.26557 9.89464 3.51992 9.70711 3.70746C9.51957 3.895 9.26522 4.00035 9 4.00035H4C3.73478 4.00035 3.48043 3.895 3.29289 3.70746C3.10536 3.51992 3 3.26557 3 3.00035V0.000352402H2C1.46957 0.000352402 0.960859 0.211066 0.585786 0.586139C0.210714 0.961212 0 1.46992 0 2.00035L0 14.0004C0 14.5308 0.210714 15.0395 0.585786 15.4146C0.960859 15.7896 1.46957 16.0004 2 16.0004H14C14.5304 16.0004 15.0391 15.7896 15.4142 15.4146C15.7893 15.0395 16 14.5308 16 14.0004V5.00035C16.0037 4.86891 15.9787 4.73824 15.9269 4.61738C15.8751 4.49652 15.7977 4.38835 15.7 4.30035ZM13 12.0004C13 12.2656 12.8946 12.5199 12.7071 12.7075C12.5196 12.895 12.2652 13.0004 12 13.0004H4C3.73478 13.0004 3.48043 12.895 3.29289 12.7075C3.10536 12.5199 3 12.2656 3 12.0004V10.0004C3 9.73514 3.10536 9.48078 3.29289 9.29325C3.48043 9.10571 3.73478 9.00035 4 9.00035H12C12.2652 9.00035 12.5196 9.10571 12.7071 9.29325C12.8946 9.48078 13 9.73514 13 10.0004V12.0004Z" fill="white"/>
    <path d="M9 0H7V3H9V0Z" fill="white"/>
  </g>
  <defs>
    <clipPath id="clip0_29960_6199">
      <rect width="16" height="16" fill="white"/>
    </clipPath>
  </defs>
</svg>