<svg width="540" height="270" viewBox="0 0 540 270" fill="none" xmlns="http://www.w3.org/2000/svg">
<g clip-path="url(#clip0_490_135)">
<path opacity="0.7" d="M278.561 162.24L312.255 178.212C313.981 179.03 316.047 178.299 316.805 176.545C324.681 158.326 329.567 132.682 320.827 112.954C312.595 94.3742 292.238 89.3266 285.031 90.3825L271.81 97.5442C276.813 98.4623 286.903 104.706 287.234 122.334C287.507 136.922 281.639 149.75 277.135 156.758C275.921 158.649 276.53 161.277 278.561 162.24Z" fill="white"/>
<path opacity="0.5" d="M303.378 148.447L272.455 137.255C271.496 136.908 270.448 137.459 270.151 138.435C268.003 145.498 262.366 158.251 251.418 163.029C237.022 169.313 232.285 155.254 238.62 173.021C244.954 190.787 265.887 195.883 285.029 185.002C298.905 177.116 304.256 161.019 305.549 151.919C305.766 150.393 304.827 148.971 303.378 148.447Z" fill="white"/>
<path d="M256.663 132.935C247.298 150.555 238.236 186.636 266.881 190.63C255.679 191.492 230.22 185.738 218.652 158.414C204.192 124.259 232.563 83.2167 264.237 79.4981C295.202 75.8628 311.163 92.7613 320.354 111.921C320.59 112.377 320.797 112.818 320.975 113.24C320.772 112.8 320.565 112.36 320.354 111.921C316.818 105.09 306.755 95.1299 289.714 101.534C277.387 106.166 263.867 119.379 256.663 132.935Z" fill="white"/>
</g>
<defs>
<clipPath id="clip0_490_135">
<rect width="112" height="112" fill="white" transform="translate(214 79)"/>
</clipPath>
</defs>
</svg>
