<svg width="540" height="270" viewBox="0 0 540 270" fill="none" xmlns="http://www.w3.org/2000/svg">
  <path d="M300.798 172.61L311.046 177.644C314.069 179.129 317.734 177.813 318.9 174.654C321.898 166.536 324.242 156.921 325.049 147.03C325.994 135.454 324.826 123.618 320.254 113.376L320.248 113.379C320.045 112.938 319.838 112.497 319.628 112.059C318.055 109.025 315.108 105.304 310.769 102.843C305.878 100.068 299.083 98.812 290.167 102.169C288.275 102.882 286.349 103.802 284.418 104.9C286.844 109.048 288.581 114.643 288.719 122.021C288.844 128.689 287.768 135.003 286.12 140.628L301.748 146.461C305.44 147.839 307.862 151.494 307.129 155.366C306.243 160.048 304.755 164.604 302.71 168.934C302.132 170.159 301.496 171.389 300.798 172.61Z" fill="#373A4A"/>
  <path d="M247.817 168.188C249.151 167.784 250.561 167.2 252.04 166.387C258.303 162.947 263.04 157.33 266.408 151.819C268.591 148.247 270.232 144.664 271.361 141.636C271.87 140.272 273.378 139.531 274.742 140.04L300.03 149.478C302.576 150.429 304.18 152.991 303.61 155.647C302.854 159.165 301.581 163.304 299.615 167.467C296.398 174.279 291.386 181.037 283.885 185.309C277.688 188.838 271.349 190.659 265.424 190.933C258.968 189.835 254.733 187.018 252.035 183.256C249.178 179.274 247.908 174.04 247.817 168.188Z" fill="#373A4A"/>
  <path d="M263.493 79.5011C279.444 77.6248 291.296 81.1722 300.293 87.5577C305.073 90.9506 309.087 95.1738 312.491 99.8828L312.455 99.8619C306.648 96.5677 298.792 95.2621 288.964 98.9628C275.77 103.931 261.546 117.931 253.973 132.208C249.062 141.468 244.218 155.668 244.401 168.2C244.493 174.482 245.85 180.503 249.262 185.26C250.45 186.916 251.87 188.396 253.54 189.669C241.39 186.63 226.102 178.17 217.863 158.67C210.673 141.653 214.091 122.815 223.407 107.675C232.737 92.5112 247.804 81.3468 263.493 79.5011Z" fill="#373A4A"/>
</svg>
