<svg xmlns="http://www.w3.org/2000/svg" width="116" height="116" viewBox="0 0 116 116" fill="none">
<path fill-rule="evenodd" clip-rule="evenodd" d="M110.699 59.569C110.688 59.9252 110.203 60.0192 110.063 59.691C110.003 59.5493 109.941 59.4072 109.879 59.265C109.765 59.005 109.797 58.7025 109.967 58.4751C110.002 58.4285 110.074 58.3345 110.16 58.2223C110.391 57.9209 110.723 57.9659 110.723 58.3003C110.723 58.7392 110.713 59.1192 110.699 59.569ZM108.147 52.6003C107.754 53.308 106.747 53.3406 106.31 52.6582C106.243 52.5527 106.174 52.4472 106.106 52.3413C104.533 49.9265 102.723 47.5562 100.702 45.2526C100.206 44.6871 100.611 43.7994 101.364 43.7989H101.382C106.106 43.7989 108.582 44.9657 109.338 46.3905C109.968 47.5821 109.775 49.666 108.147 52.6003ZM107.091 77.3019C106.838 77.9466 106.573 78.5871 106.294 79.2214C106.251 79.3088 106.21 79.3972 106.165 79.4841C104.426 82.8304 101.509 85.4654 97.611 87.299C96.7363 87.71 95.7795 86.9098 96.04 85.9792C97.3344 81.3462 98.3141 76.3218 98.9489 71.0544C99.0673 70.0722 99.5516 69.1706 100.3 68.5233C101.903 67.1363 103.4 65.7514 104.777 64.3762L104.792 64.3607C105.47 63.6845 106.626 63.9756 106.902 64.8927C108.263 69.4156 108.338 73.6284 107.091 77.3019ZM96.4949 94.0289C96.0984 94.4528 95.6936 94.8716 95.2811 95.2841C94.5626 96.0016 93.8269 96.6959 93.0753 97.3664C92.6012 97.7888 91.8842 97.2605 92.1525 96.6846C92.229 96.5202 92.305 96.3547 92.3805 96.1878C92.6964 95.4914 93.0014 94.777 93.2981 94.0491C93.3684 93.8774 93.5163 93.7492 93.6962 93.7032C94.4437 93.5135 95.1726 93.3041 95.8823 93.0751C96.4577 92.89 96.9085 93.5874 96.4949 94.0289ZM88.7133 89.8466C87.1397 90.0746 85.4849 90.222 83.7537 90.283C79.5297 90.4308 75.0632 90.0664 70.4753 89.2216C69.9159 89.1188 69.8084 88.3624 70.3155 88.106C71.3163 87.5994 72.3177 87.0814 73.3185 86.551C80.3387 82.8299 86.889 78.7624 92.623 74.592C93.0531 74.2792 93.6455 74.6484 93.5581 75.1731C92.7631 79.9524 91.6619 84.4516 90.2791 88.5356C90.0434 89.2315 89.4406 89.7412 88.7133 89.8466ZM87.0906 96.2141C83.3266 103.617 78.6912 107.773 74.1978 107.69C69.3142 107.603 64.4445 102.517 60.8383 93.7373L60.8342 93.7275C60.6051 93.1702 60.8683 92.5323 61.4204 92.2924C61.4586 92.2754 61.4969 92.2588 61.5351 92.2417C61.7719 92.1389 62.0376 92.1203 62.2868 92.1906C69.0325 94.0837 75.6789 95.0716 81.9061 95.0716C82.5828 95.0716 83.2548 95.0602 83.9211 95.037C84.7012 95.0091 85.4689 94.9651 86.2231 94.9052C86.9226 94.8498 87.409 95.5886 87.0906 96.2141ZM64.8017 110.292C62.5639 110.58 60.2929 110.727 57.9997 110.727C47.7517 110.727 37.9498 107.823 29.5344 102.403C28.9554 102.03 29.2015 101.132 29.8895 101.1C30.0322 101.093 30.1656 101.086 30.2829 101.079C32.4215 100.94 34.7664 100.626 37.3072 100.137C42.712 99.0972 48.7199 97.3137 55.0107 94.9119C55.5747 94.6968 56.2043 94.9765 56.4339 95.5348C56.4354 95.5384 56.4365 95.5415 56.438 95.5447C58.8759 101.48 61.8763 105.966 65.2453 108.819C65.802 109.291 65.5255 110.199 64.8017 110.292ZM34.3126 73.3497C38.9584 69.5666 44.4019 65.7917 50.3732 62.2179C50.5014 69.8556 51.3388 77.1882 52.8209 83.8116C50.6063 82.8671 48.3984 81.8269 46.2096 80.6901C41.9701 78.4868 37.9813 76.0188 34.3126 73.3497ZM19.8643 93.8144C18.756 91.7232 20.1884 86.8793 27.4655 79.5171L27.4692 79.5135C28.2291 78.7458 28.1562 77.486 27.3079 76.8175C27.0163 76.5885 26.7268 76.3569 26.4394 76.1253C25.7146 75.5396 24.6657 75.5934 24.0077 76.2525C23.8634 76.3967 23.7559 76.5053 23.7244 76.5379C20.0866 80.2719 17.5406 83.7283 16.1144 86.8374C15.7101 87.7183 14.4891 87.8134 13.9545 87.0049C8.30893 78.4703 5.2765 68.4696 5.2765 58.0015C5.2765 54.2592 5.66525 50.5763 6.42155 46.9989C6.53579 46.4577 7.29933 46.423 7.45959 46.9524C8.55345 50.5639 10.3338 54.2995 12.794 58.077C16.1056 63.1629 20.4728 68.0519 25.648 72.5366C27.4144 74.0673 29.28 75.5479 31.2258 76.9763C35.1702 79.8708 39.4562 82.5419 44.0162 84.9112C46.0375 85.9616 48.006 86.964 50.0221 87.8718C51.1444 88.3769 52.4218 88.4162 53.5674 87.9664C54.5181 87.5942 55.4754 87.207 56.4385 86.8043C57.4859 86.3675 58.054 85.2255 57.7764 84.1249C57.7418 83.9874 57.7144 83.8767 57.6989 83.8116C56.1113 77.1303 55.2289 69.609 55.125 61.7309L55.1219 61.7325C55.1208 61.6389 55.1213 61.5438 55.1203 61.4492C55.1157 61.0185 55.1182 60.5848 55.1105 60.1552C55.1079 60.0182 55.112 59.7861 55.1136 59.6486C55.1146 59.5938 55.1136 59.5395 55.1136 59.4852C55.1141 59.4852 55.1151 59.4847 55.1157 59.4847C55.1182 58.9915 55.1219 58.4988 55.1306 58.0041C55.1549 56.6528 55.2035 55.3112 55.2733 53.9806C55.2723 53.9811 55.2718 53.9816 55.2707 53.9821C55.7603 44.4756 57.3721 35.543 59.9367 28.0289C60.174 27.3335 59.8034 26.5788 59.1081 26.3415C58.4303 26.1099 57.7531 25.8886 57.077 25.6767C56.393 25.4621 55.6621 25.8312 55.431 26.51C52.6514 34.6703 50.9361 44.3515 50.4786 54.5963C50.4202 55.8959 49.713 57.0787 48.5938 57.742C42.5264 61.338 36.9542 65.1501 32.1403 68.9927C31.1374 69.7935 29.705 69.763 28.7352 68.9219C23.9105 64.7386 19.8498 60.195 16.7802 55.4808C10.7479 46.2178 9.3144 37.4914 12.7449 30.9135C12.7542 30.898 12.7625 30.882 12.7712 30.867C13.2086 30.1412 13.6635 29.4252 14.137 28.719C18.0788 23.5013 25.4153 20.4775 35.1454 20.1358C35.761 20.1141 36.3809 20.1032 37.0064 20.1032C42.9746 20.1032 49.3796 21.0881 55.8937 22.9678L55.8952 22.9662C56.0379 23.0076 56.1806 23.0505 56.3232 23.0923C56.4334 23.1249 56.5435 23.1554 56.6536 23.1885C56.6531 23.189 56.6536 23.188 56.6536 23.1885C58.1589 23.6383 59.6684 24.1371 61.18 24.681C61.18 24.6815 61.1805 24.6805 61.18 24.681C61.2151 24.6934 61.2508 24.7063 61.286 24.7187C61.6799 24.8609 62.0733 25.0067 62.4667 25.155C62.5897 25.2016 62.7133 25.2486 62.8363 25.2962C62.9547 25.3417 63.0731 25.3856 63.192 25.4316L63.1904 25.4337C66.3717 26.6651 69.5504 28.0971 72.6894 29.7286C78.7651 32.8852 84.3264 36.5857 89.1661 40.6454C79.9298 42.7614 69.1938 46.8433 58.3993 52.3469C57.9015 52.6013 57.5737 53.1017 57.5422 53.66C57.5045 54.329 57.4548 55.6741 57.4192 56.7432C57.397 57.4142 58.1067 57.8588 58.7012 57.5466L58.7074 57.543C69.3948 51.9308 80.0611 47.7361 89.2209 45.5194C90.9331 45.1053 92.0414 43.4608 91.801 41.7161C91.6325 40.497 91.4428 39.2972 91.2329 38.1185C90.9692 36.6379 90.1587 35.3139 88.9624 34.403C84.6723 31.1348 79.9442 28.1369 74.8828 25.5066C71.472 23.7344 68.011 22.1814 64.5428 20.857C63.8009 20.5737 63.483 19.6969 63.8702 19.0037C67.4434 12.6114 71.6932 9.03138 75.8335 9.03138C75.8764 9.03138 75.9193 9.03138 75.9622 9.03241C80.8458 9.11978 85.7155 14.2052 89.3217 22.9848C91.1471 27.4292 92.5614 32.5544 93.5281 38.1242C93.523 38.1195 93.5178 38.1154 93.5131 38.1107C93.9257 40.4877 94.2581 42.9444 94.5047 45.4646C94.4835 45.478 94.4607 45.4899 94.4395 45.5033C94.4685 45.5328 94.499 45.5623 94.5284 45.5923C94.9373 49.8211 95.11 54.2246 95.0294 58.718C94.9787 61.5603 94.8272 64.3633 94.5822 67.1058C88.0485 72.3861 79.9701 77.6411 71.0904 82.347C68.1723 83.8938 65.2546 85.3335 62.3654 86.659C62.3204 86.6797 62.2759 86.6999 62.231 86.7206C62.0102 86.8214 61.789 86.9237 61.5682 87.0235C61.5662 87.023 61.5646 87.0225 61.5631 87.0219C59.1691 88.105 56.7978 89.1069 54.4658 90.0219C54.4664 90.0224 54.4664 90.0234 54.4669 90.024C54.3351 90.0757 54.2043 90.1253 54.073 90.1765C53.9091 90.2406 53.7452 90.3036 53.5819 90.3667C53.1905 90.5166 52.8008 90.6645 52.412 90.8098C52.305 90.8496 52.1975 90.8914 52.0905 90.9307C51.6185 91.106 51.1491 91.2761 50.6813 91.4436C50.6228 91.4642 50.5644 91.4865 50.5065 91.5071C50.5055 91.5066 50.505 91.5066 50.5045 91.5061C45.5071 93.286 40.7465 94.6306 36.4083 95.4656C25.925 97.4838 20.9887 95.9355 19.8643 93.8144ZM27.3937 15.0592C36.2666 8.70517 46.8693 5.27665 57.9997 5.27665C60.9375 5.27665 63.8376 5.51704 66.6793 5.98593C67.4403 6.11156 67.6956 7.08293 67.0887 7.55906C64.3349 9.71791 61.7766 12.9122 59.5123 17.0547C58.9597 18.0654 57.7878 18.5596 56.6794 18.2473C49.178 16.1355 41.7975 15.1419 34.9784 15.3813C32.4629 15.4697 30.0808 15.7245 27.8429 16.1371C27.2143 16.2529 26.8742 15.4309 27.3937 15.0592ZM99.7657 53.4853C99.7502 52.881 100.526 52.623 100.876 53.1152C101.307 53.7195 101.722 54.3269 102.119 54.9375C102.648 55.7491 103.139 56.5561 103.596 57.3579C103.881 57.8578 103.813 58.4849 103.425 58.9098C102.809 59.586 102.142 60.285 101.416 61.0098C101.152 61.2739 100.882 61.5386 100.607 61.8038C100.266 62.1336 99.6933 61.8824 99.7119 61.4078C99.7455 60.5429 99.7703 59.6749 99.7858 58.8028C99.8179 57.0162 99.8101 55.2425 99.7657 53.4853ZM94.2979 19.7615C94.6292 20.0758 94.957 20.3953 95.2811 20.7195C100.362 25.8002 104.275 31.7371 106.892 38.2028C107.156 38.8546 106.602 39.537 105.91 39.4125C104.396 39.1405 102.692 39.019 100.806 39.0506C99.4984 39.0723 98.3621 38.1562 98.1326 36.869C97.1075 31.1208 95.6254 25.8111 93.722 21.177C93.6134 20.9128 93.5038 20.6517 93.3927 20.3933C93.1508 19.8293 93.8528 19.3387 94.2979 19.7615ZM114.239 46.0462C111.967 35.2535 106.626 25.337 98.6444 17.3551C87.7879 6.49824 73.3537 0.519531 57.9997 0.519531C42.6463 0.519531 28.2115 6.49824 17.355 17.3551C14.7145 19.9957 12.366 22.8489 10.3183 25.8741C9.70935 26.6847 9.16397 27.5408 8.67907 28.4367C3.36017 37.2753 0.519531 47.4203 0.519531 58.0015C0.519531 73.3559 6.49858 87.7907 17.355 98.6475C28.2115 109.504 42.6463 115.484 57.9997 115.484C73.3537 115.484 87.7879 109.504 98.6444 98.6475C103.768 93.5238 107.804 87.6025 110.639 81.1642C110.986 80.4508 111.288 79.7203 111.548 78.9754C114.129 72.3809 115.48 65.2954 115.48 58.0015C115.48 53.9868 115.068 50.0366 114.27 46.195C114.259 46.1454 114.25 46.0958 114.239 46.0462Z" fill="white"/>
</svg>