<svg width="540" height="270" viewBox="0 0 540 270" fill="none" xmlns="http://www.w3.org/2000/svg">
  <path fill-rule="evenodd" clip-rule="evenodd" d="M271.355 194.975C305.517 194.975 333.21 165.207 333.21 128.487C333.21 91.7674 305.517 62 271.355 62C237.194 62 209.5 91.7674 209.5 128.487C209.5 165.207 237.194 194.975 271.355 194.975ZM327.368 129.939C327.518 130.318 328.041 130.21 328.052 129.798C328.068 129.277 328.079 128.838 328.079 128.33C328.079 127.943 327.721 127.891 327.472 128.24C327.38 128.37 327.302 128.479 327.265 128.532C327.081 128.795 327.046 129.145 327.169 129.446C327.237 129.61 327.303 129.775 327.368 129.939ZM323.326 121.804C323.796 122.593 324.881 122.556 325.304 121.737C327.057 118.343 327.266 115.933 326.586 114.555C325.772 112.907 323.105 111.557 318.018 111.557H317.998C317.187 111.558 316.75 112.584 317.285 113.238C319.462 115.903 321.411 118.645 323.105 121.438C323.179 121.56 323.253 121.682 323.326 121.804ZM323.308 152.529C323.609 151.795 323.894 151.054 324.167 150.309C325.51 146.06 325.429 141.187 323.963 135.955C323.666 134.895 322.421 134.558 321.691 135.34L321.675 135.358C320.191 136.949 318.579 138.55 316.852 140.155C316.046 140.903 315.524 141.946 315.397 143.082C314.713 149.175 313.658 154.986 312.263 160.345C311.983 161.422 313.013 162.347 313.956 161.872C318.154 159.751 321.297 156.703 323.169 152.833C323.199 152.771 323.227 152.709 323.255 152.646C323.273 152.607 323.29 152.568 323.308 152.529ZM311.446 171.108C311.89 170.631 312.326 170.146 312.753 169.656C313.199 169.145 312.713 168.339 312.094 168.553C311.329 168.818 310.544 169.06 309.739 169.279C309.545 169.332 309.386 169.481 309.31 169.679C308.99 170.521 308.662 171.348 308.322 172.153C308.24 172.346 308.159 172.537 308.076 172.728C307.787 173.394 308.559 174.005 309.07 173.516C309.88 172.741 310.672 171.938 311.446 171.108ZM299.029 165.323C300.894 165.253 302.677 165.082 304.372 164.818C305.155 164.696 305.804 164.107 306.058 163.302C307.548 158.578 308.734 153.374 309.59 147.846C309.684 147.239 309.046 146.812 308.583 147.174C302.407 151.998 295.351 156.702 287.79 161.007C286.712 161.62 285.633 162.219 284.555 162.805C284.009 163.102 284.125 163.977 284.727 164.096C289.669 165.073 294.48 165.494 299.029 165.323ZM288.737 185.457C293.577 185.554 298.57 180.746 302.624 172.183C302.967 171.46 302.443 170.605 301.689 170.669C300.877 170.739 300.05 170.79 299.21 170.822C298.492 170.849 297.768 170.862 297.039 170.862C290.332 170.862 283.173 169.719 275.907 167.53C275.639 167.448 275.352 167.47 275.097 167.589C275.071 167.601 275.045 167.614 275.019 167.626C275.004 167.633 274.989 167.64 274.974 167.647C274.379 167.925 274.096 168.663 274.342 169.307L274.347 169.319C278.231 179.474 283.476 185.356 288.737 185.457ZM271.289 188.97C273.759 188.97 276.205 188.799 278.616 188.467C279.395 188.359 279.693 187.309 279.094 186.763C275.465 183.463 272.233 178.275 269.607 171.409C269.606 171.406 269.604 171.402 269.603 171.398C269.355 170.752 268.677 170.428 268.07 170.677C261.294 173.455 254.823 175.518 249.001 176.721C246.264 177.287 243.739 177.649 241.435 177.81C241.309 177.819 241.165 177.827 241.011 177.835C240.27 177.871 240.005 178.91 240.629 179.342C249.693 185.61 260.251 188.97 271.289 188.97ZM263.075 132.861C256.643 136.995 250.779 141.361 245.775 145.737C249.727 148.824 254.024 151.679 258.59 154.228C260.948 155.542 263.326 156.746 265.711 157.838C264.115 150.177 263.213 141.696 263.075 132.861ZM238.4 152.871C230.562 161.386 229.019 166.989 230.213 169.408C231.424 171.861 236.741 173.652 248.033 171.318C252.706 170.352 257.833 168.797 263.216 166.738L263.218 166.739C263.281 166.715 263.344 166.689 263.406 166.666C263.91 166.472 264.416 166.275 264.924 166.072C265.04 166.027 265.155 165.979 265.271 165.932C265.689 165.764 266.109 165.593 266.531 165.42L266.619 165.383C266.766 165.323 266.913 165.262 267.06 165.2C267.123 165.173 267.187 165.147 267.25 165.121C267.328 165.089 267.406 165.057 267.484 165.024L267.483 165.021C269.995 163.963 272.549 162.804 275.128 161.551C275.128 161.551 275.131 161.552 275.133 161.553C275.242 161.5 275.351 161.446 275.461 161.393C275.59 161.329 275.718 161.266 275.847 161.203L275.992 161.132C279.104 159.598 282.246 157.933 285.39 156.144C294.954 150.701 303.656 144.623 310.693 138.515C310.957 135.343 311.12 132.101 311.175 128.813C311.262 123.616 311.076 118.523 310.635 113.631C310.619 113.614 310.603 113.597 310.587 113.58C310.571 113.562 310.555 113.545 310.539 113.528C310.562 113.513 310.587 113.499 310.61 113.484C310.344 110.569 309.986 107.727 309.542 104.978C309.547 104.983 309.552 104.988 309.558 104.993C308.517 98.551 306.993 92.6229 305.027 87.4823C301.143 77.3272 295.897 71.4452 290.637 71.3441C290.617 71.3436 290.597 71.3433 290.578 71.3432C290.551 71.3429 290.525 71.3429 290.498 71.3429C286.039 71.3429 281.461 75.4837 277.613 82.8774C277.195 83.6793 277.538 84.6934 278.337 85.0211C282.073 86.553 285.801 88.3493 289.474 90.3991C294.926 93.4415 300.019 96.909 304.64 100.689C305.928 101.743 306.802 103.274 307.086 104.987C307.312 106.35 307.516 107.738 307.697 109.148C307.956 111.166 306.763 113.068 304.918 113.547C295.052 116.111 283.563 120.963 272.052 127.454L272.045 127.458C271.405 127.82 270.64 127.305 270.664 126.529C270.702 125.293 270.756 123.737 270.797 122.963C270.831 122.317 271.184 121.738 271.72 121.444C283.347 115.078 294.911 110.357 304.859 107.91C299.646 103.214 293.656 98.9337 287.112 95.2826C283.731 93.3954 280.307 91.7391 276.88 90.3148L276.882 90.3124C276.812 90.2833 276.742 90.255 276.673 90.2267C276.615 90.2032 276.557 90.1796 276.499 90.1557C276.366 90.1007 276.233 90.0463 276.101 89.9925C275.677 89.8209 275.253 89.6522 274.829 89.4878C274.791 89.4734 274.753 89.4585 274.715 89.4442C273.087 88.8151 271.461 88.2381 269.839 87.7179C269.774 87.6966 269.708 87.6763 269.642 87.656C269.589 87.6397 269.536 87.6234 269.484 87.6066C269.33 87.5582 269.176 87.5086 269.023 87.4607L269.021 87.4625C262.004 85.2884 255.105 84.1493 248.677 84.1493C248.003 84.1493 247.336 84.1618 246.672 84.187C236.192 84.5822 228.29 88.0796 224.044 94.1148C223.534 94.9316 223.044 95.7597 222.573 96.5993C222.568 96.6071 222.564 96.6152 222.56 96.6234C222.555 96.6333 222.55 96.6433 222.544 96.6531C218.849 104.261 220.393 114.355 226.891 125.069C230.197 130.522 234.571 135.777 239.768 140.616C240.812 141.589 242.355 141.624 243.436 140.698C248.621 136.253 254.623 131.844 261.158 127.684C262.364 126.917 263.125 125.549 263.188 124.046C263.681 112.196 265.529 100.998 268.522 91.5597C268.771 90.7746 269.559 90.3477 270.295 90.5958C271.024 90.841 271.753 91.0969 272.483 91.3648C273.232 91.6392 273.631 92.5122 273.376 93.3165C270.613 102.008 268.877 112.34 268.35 123.336L268.353 123.334C268.277 124.873 268.225 126.425 268.199 127.988C268.19 128.56 268.186 129.13 268.183 129.7L268.181 129.701C268.181 129.722 268.181 129.743 268.181 129.763C268.181 129.805 268.181 129.847 268.181 129.89C268.179 130.049 268.174 130.317 268.177 130.476C268.182 130.768 268.183 131.061 268.184 131.355C268.185 131.561 268.186 131.767 268.188 131.972C268.189 132.042 268.189 132.112 268.189 132.182C268.189 132.222 268.189 132.261 268.19 132.3L268.193 132.298C268.305 141.41 269.255 150.11 270.965 157.838C270.982 157.913 271.011 158.041 271.049 158.2C271.348 159.473 270.736 160.794 269.608 161.3C268.57 161.765 267.539 162.213 266.515 162.644C265.281 163.164 263.905 163.118 262.697 162.534C260.525 161.484 258.405 160.325 256.227 159.11C251.316 156.369 246.699 153.28 242.451 149.932C240.355 148.28 238.345 146.567 236.443 144.797C230.868 139.609 226.164 133.955 222.597 128.072C219.947 123.703 218.03 119.382 216.851 115.205C216.679 114.592 215.856 114.632 215.733 115.258C214.919 119.396 214.5 123.656 214.5 127.985C214.5 140.093 217.766 151.66 223.847 161.532C224.423 162.467 225.738 162.357 226.174 161.338C227.71 157.742 230.452 153.744 234.371 149.425C234.405 149.387 234.52 149.262 234.676 149.095C235.385 148.332 236.514 148.27 237.295 148.948C237.605 149.215 237.916 149.483 238.23 149.748C239.144 150.521 239.223 151.979 238.404 152.867L238.4 152.871ZM271.289 67C259.3 67 247.88 70.9656 238.323 78.3151C237.763 78.745 238.13 79.6957 238.807 79.5618C241.217 79.0846 243.783 78.7898 246.493 78.6876C253.838 78.4107 261.787 79.56 269.867 82.0026C271.061 82.3638 272.323 81.7922 272.919 80.6232C275.357 75.8318 278.113 72.137 281.079 69.64C281.733 69.0892 281.458 67.9657 280.638 67.8204C277.577 67.278 274.454 67 271.289 67ZM317.472 122.333C317.095 121.763 316.26 122.062 316.276 122.761C316.324 124.793 316.333 126.845 316.298 128.911C316.281 129.92 316.255 130.924 316.218 131.924C316.198 132.473 316.815 132.764 317.182 132.383C317.479 132.076 317.769 131.77 318.054 131.464C318.835 130.626 319.555 129.817 320.218 129.035C320.636 128.544 320.709 127.818 320.402 127.24C319.91 126.313 319.381 125.379 318.812 124.441C318.383 123.734 317.936 123.032 317.472 122.333ZM311.446 84.862C311.097 84.4871 310.744 84.1176 310.387 83.754C309.907 83.2649 309.151 83.8324 309.412 84.4847C309.532 84.7837 309.65 85.0857 309.767 85.3912C311.817 90.7513 313.413 96.8929 314.517 103.541C314.765 105.03 315.988 106.09 317.397 106.065C319.428 106.028 321.264 106.169 322.895 106.483C323.64 106.628 324.237 105.838 323.952 105.084C321.133 97.6056 316.918 90.7387 311.446 84.862Z" fill="white"/>
</svg>
