<svg xmlns="http://www.w3.org/2000/svg" width="181" height="270" viewBox="0 0 181 270" fill="none">
<rect x="0.5" width="180" height="270" fill="#F37E11"/>
<path fill-rule="evenodd" clip-rule="evenodd" d="M142.121 124.402C144.28 108.186 133.29 99.4689 118.262 93.6539L123.137 71.6876L111.234 68.3557L106.488 89.7437C103.358 88.8669 100.145 88.0408 96.9508 87.2219L101.731 65.6927L89.8354 62.3608L84.9574 84.32C82.3679 83.6577 79.8244 83.0031 77.3568 82.3134L77.3706 82.2443L60.9558 77.6396L57.7894 91.9213C57.7894 91.9213 66.6206 94.1953 66.4345 94.3353C71.2546 95.6867 72.1263 99.2712 71.9816 102.112L66.4281 127.137C66.76 127.232 67.1906 127.369 67.6656 127.583C67.5525 127.552 67.4373 127.519 67.3203 127.486C67.0264 127.404 66.721 127.318 66.4074 127.234L58.6234 162.29C58.0343 163.935 56.5391 166.404 53.1691 165.466C53.2884 165.66 44.5176 163.041 44.5176 163.041L38.6079 178.347L54.098 182.685C55.7939 183.163 57.4698 183.653 59.1286 184.139L59.1298 184.139C60.2893 184.479 61.4406 184.816 62.5846 185.145L57.6589 207.363L69.5484 210.695L74.4264 188.712C77.6744 189.703 80.8265 190.617 83.9124 191.478L79.0509 213.357L90.9547 216.689L95.8798 194.512C116.177 198.827 131.439 197.087 137.864 176.464C143.04 159.859 137.606 150.282 126.927 144.036C134.705 142.021 140.563 136.274 142.125 124.404L142.122 124.401L142.121 124.402ZM114.926 167.243C111.551 182.477 90.3236 176.179 80.6115 173.297L80.6104 173.297C79.7372 173.038 78.9571 172.806 78.2914 172.621L84.8279 143.185C85.6392 143.413 86.6307 143.663 87.7539 143.946L87.7548 143.946C97.8008 146.479 118.384 151.668 114.926 167.243H114.926ZM89.7695 130.286C97.8667 132.713 115.531 138.009 118.607 124.163H118.608C121.749 110.002 104.583 105.732 96.1988 103.647C95.2556 103.413 94.4236 103.206 93.7441 103.015L87.8179 129.712C88.3775 129.868 89.034 130.065 89.7695 130.286Z" fill="white"/>
</svg>