<svg width="540" height="270" viewBox="0 0 540 270" fill="none" xmlns="http://www.w3.org/2000/svg">
  <path fill-rule="evenodd" clip-rule="evenodd" d="M321.621 124.402C323.78 108.186 312.79 99.4689 297.762 93.6539L302.637 71.6876L290.734 68.3557L285.988 89.7437C282.858 88.8669 279.645 88.0408 276.451 87.2219L281.231 65.6927L269.335 62.3608L264.457 84.32C261.868 83.6577 259.324 83.0031 256.857 82.3134L256.871 82.2443L240.456 77.6396L237.289 91.9213C237.289 91.9213 246.121 94.1953 245.934 94.3353C250.755 95.6867 251.626 99.2712 251.482 102.112L245.928 127.137C246.26 127.232 246.691 127.369 247.166 127.583C247.053 127.552 246.937 127.519 246.82 127.486L246.818 127.486C246.525 127.403 246.22 127.318 245.907 127.234L238.123 162.29C237.534 163.935 236.039 166.404 232.669 165.466C232.788 165.66 224.018 163.041 224.018 163.041L218.108 178.347L233.598 182.685C235.294 183.162 236.969 183.653 238.628 184.139L238.63 184.139C239.789 184.479 240.941 184.816 242.085 185.145L237.159 207.363L249.048 210.695L253.926 188.712C257.174 189.703 260.327 190.617 263.412 191.478L258.551 213.357L270.455 216.689L275.38 194.512C295.677 198.827 310.939 197.087 317.364 176.464C322.54 159.859 317.106 150.282 306.427 144.036C314.205 142.021 320.063 136.274 321.625 124.404L321.622 124.401L321.621 124.402ZM294.426 167.243C291.051 182.477 269.824 176.179 260.111 173.297L260.111 173.297C259.237 173.038 258.457 172.806 257.791 172.621L264.328 143.185C265.139 143.413 266.131 143.663 267.254 143.946L267.255 143.946C277.301 146.479 297.884 151.668 294.426 167.243H294.426ZM269.27 130.286C277.367 132.713 295.031 138.009 298.107 124.163H298.108C301.249 110.002 284.083 105.732 275.699 103.647C274.756 103.413 273.924 103.206 273.244 103.015L267.318 129.712C267.877 129.868 268.534 130.065 269.27 130.286Z" fill="white"/>
</svg>
