<svg width="540" height="270" viewBox="0 0 540 270" fill="none" xmlns="http://www.w3.org/2000/svg">
<g clip-path="url(#clip0_490_138)">
<path d="M300.332 91.0089L279.675 121.389C278.246 123.458 280.993 125.962 282.971 124.22L303.299 106.689C303.848 106.253 304.617 106.58 304.617 107.342V162.113C304.617 162.876 303.628 163.202 303.189 162.658L241.657 89.7022C239.679 87.3067 236.822 86 233.636 86H231.438C225.725 86 221 90.6822 221 96.4533V173.547C221 179.318 225.725 184 231.548 184C235.174 184 238.58 182.149 240.558 178.991L261.215 148.611C262.644 146.542 259.897 144.038 257.919 145.78L237.592 163.202C237.042 163.638 236.273 163.311 236.273 162.549V107.887C236.273 107.124 237.262 106.798 237.701 107.342L299.233 180.298C301.211 182.693 304.178 184 307.254 184H309.452C315.275 184 320 179.318 320 173.547V96.4533C320 90.6822 315.275 86 309.452 86C305.716 86 302.31 87.8511 300.332 91.0089Z" fill="white"/>
</g>
<defs>
<clipPath id="clip0_490_138">
<rect width="99" height="98" fill="white" transform="translate(221 86)"/>
</clipPath>
</defs>
</svg>
