<svg width="540" height="270" viewBox="0 0 540 270" fill="none" xmlns="http://www.w3.org/2000/svg">
  <path fill-rule="evenodd" clip-rule="evenodd" d="M212.394 168.274C217.155 172.363 223.268 174.408 230.734 174.408C239.754 174.408 246.97 172.013 252.332 167.105C257.744 162.139 261.502 154.602 263.707 144.612C265.06 138.477 266.162 132.109 267.114 125.624C267.415 123.287 267.565 121.359 267.565 119.84C267.565 114.757 266.463 110.375 264.258 106.694C262.053 102.955 259.047 100.151 255.238 98.3394C251.43 96.4114 247.07 95.4766 242.26 95.4766C224.521 95.4766 213.497 105.526 209.237 125.624C207.734 133.044 206.581 139.353 205.78 144.612C205.479 146.949 205.329 148.877 205.329 150.512C205.329 158.166 207.684 164.125 212.394 168.274ZM241.007 155.011C238.552 157.407 235.595 158.634 232.087 158.634C226.074 158.634 223.017 155.303 223.068 148.526C223.068 146.89 223.218 145.371 223.468 143.911C224.621 136.783 225.723 130.824 226.876 125.916C227.928 120.891 229.682 117.211 232.137 114.815C234.643 112.42 237.65 111.193 241.157 111.193C247.12 111.193 250.077 114.523 250.077 121.183C250.077 122.819 249.927 124.397 249.676 125.916C248.924 131.057 247.822 137.017 246.369 143.911C245.316 148.935 243.512 152.616 241.007 155.011Z" fill="white"/>
  <path fill-rule="evenodd" clip-rule="evenodd" d="M270.322 172.591C270.723 173.117 271.224 173.35 271.926 173.35H284.704C285.355 173.35 285.956 173.117 286.508 172.591C287.109 172.065 287.41 171.422 287.56 170.604L291.87 146.592H304.547C312.765 146.592 319.23 144.606 323.94 140.574C328.751 136.543 331.908 130.35 333.461 121.937C333.812 119.95 334.012 118.022 334.012 116.211C334.012 109.843 331.857 104.994 327.598 101.605C323.389 98.2749 317.827 96.5806 310.861 96.5806H285.856C285.205 96.5806 284.604 96.8143 284.052 97.3401C283.451 97.8659 283.1 98.5086 283 99.3265L270.021 170.604C269.921 171.364 270.021 172.007 270.322 172.591ZM312.064 128.947C310.109 130.642 307.854 131.46 305.198 131.46H294.425L297.983 111.829H309.257C311.813 111.829 313.667 112.413 314.719 113.582C315.772 114.692 316.323 116.328 316.323 118.431C316.323 119.366 316.223 120.476 316.022 121.703C315.371 124.858 314.068 127.253 312.064 128.947Z" fill="white"/>
</svg>
