<svg xmlns="http://www.w3.org/2000/svg" width="180" height="270" viewBox="0 0 180 270" fill="none">
<rect width="180" height="270" fill="white"/>
<rect width="180" height="270" fill="#FF0420"/>
<path d="M40.0899 179.288C32.6235 179.288 26.5101 177.244 21.7496 173.154C17.0393 169.006 14.6841 163.046 14.6841 155.393C14.6841 153.757 14.8344 151.829 15.1351 149.492C15.9368 144.234 17.0894 137.924 18.5927 130.504C22.852 110.406 33.8763 100.357 51.6153 100.357C56.4258 100.357 60.7854 101.292 64.5938 103.22C68.4022 105.031 71.4088 107.835 73.6136 111.574C75.8185 115.255 76.9209 119.637 76.9209 124.72C76.9209 126.239 76.7706 128.167 76.4699 130.504C75.5178 136.989 74.4154 143.357 73.0624 149.492C70.8576 159.483 67.0993 167.019 61.6874 171.985C56.3256 176.893 49.1098 179.288 40.0899 179.288Z" fill="white"/>
<path d="M81.2811 178.231C80.5796 178.231 80.0785 177.997 79.6776 177.471C79.3769 176.887 79.2767 176.244 79.3769 175.485L92.3555 104.207C92.4557 103.389 92.8065 102.746 93.4078 102.22C93.959 101.695 94.5603 101.461 95.2117 101.461H120.217C127.182 101.461 132.744 103.155 136.953 106.485C141.213 109.874 143.368 114.723 143.368 121.092C143.368 122.903 143.167 124.831 142.816 126.817C141.263 135.23 138.106 141.423 133.295 145.455C128.585 149.486 122.121 151.472 113.903 151.472H101.225L96.9155 175.485C96.7652 176.303 96.4645 176.945 95.8632 177.471C95.312 177.997 94.7106 178.231 94.0592 178.231H81.2811Z" fill="white"/>
<path d="M41.4428 163.514C44.9505 163.514 47.907 162.287 50.3624 159.892C52.8679 157.496 54.6719 153.815 55.7242 148.791C57.1774 141.897 58.2798 135.938 59.0315 130.796C59.282 129.277 59.4323 127.7 59.4323 126.064C59.4323 119.403 56.4758 116.073 50.5127 116.073C47.005 116.073 43.9984 117.3 41.4929 119.696C39.0375 122.091 37.2836 125.772 36.2313 130.796C35.0788 135.704 33.9764 141.663 32.8239 148.791C32.5733 150.252 32.423 151.771 32.423 153.407C32.3729 160.184 35.4296 163.514 41.4428 163.514Z" fill="#FF0420"/>
<path d="M114.554 136.341C117.21 136.341 119.465 135.523 121.42 133.828C123.424 132.134 124.727 129.739 125.378 126.584C125.579 125.357 125.679 124.247 125.679 123.312C125.679 121.209 125.128 119.573 124.075 118.463C123.023 117.294 121.169 116.71 118.613 116.71H107.339L103.781 136.341H114.554Z" fill="#FF0420"/>
</svg>