<svg width="548" height="278" viewBox="0 0 548 278" fill="none" xmlns="http://www.w3.org/2000/svg">
  <g filter="url(#filter0_d_288_14)">
    <rect width="540" height="270" transform="translate(4)" fill="white"/>
    <rect x="4" width="540" height="270" fill="#FF0420"/>
    <path d="M234.734 174.408C227.268 174.408 221.155 172.363 216.394 168.273C211.684 164.125 209.329 158.166 209.329 150.512C209.329 148.876 209.479 146.948 209.78 144.611C210.581 139.353 211.734 133.043 213.237 125.623C217.497 105.525 228.521 95.4761 246.26 95.4761C251.07 95.4761 255.43 96.4109 259.238 98.3389C263.047 100.15 266.053 102.954 268.258 106.694C270.463 110.374 271.565 114.756 271.565 119.839C271.565 121.358 271.415 123.286 271.114 125.623C270.162 132.108 269.06 138.477 267.707 144.611C265.502 154.602 261.744 162.138 256.332 167.105C250.97 172.012 243.754 174.408 234.734 174.408Z" fill="white"/>
    <path d="M275.926 173.35C275.224 173.35 274.723 173.116 274.322 172.59C274.021 172.006 273.921 171.363 274.021 170.604L287 99.326C287.1 98.5081 287.451 97.8654 288.052 97.3396C288.604 96.8138 289.205 96.5801 289.856 96.5801H314.861C321.827 96.5801 327.389 98.2744 331.598 101.605C335.857 104.993 338.012 109.842 338.012 116.211C338.012 118.022 337.812 119.95 337.461 121.936C335.907 130.349 332.751 136.542 327.94 140.574C323.23 144.605 316.765 146.591 308.547 146.591H295.869L291.56 170.604C291.41 171.422 291.109 172.065 290.508 172.59C289.956 173.116 289.355 173.35 288.704 173.35H275.926Z" fill="white"/>
    <path d="M236.087 158.633C239.595 158.633 242.552 157.406 245.007 155.011C247.512 152.615 249.316 148.935 250.369 143.91C251.822 137.016 252.924 131.057 253.676 125.915C253.927 124.396 254.077 122.819 254.077 121.183C254.077 114.523 251.12 111.192 245.157 111.192C241.65 111.192 238.643 112.419 236.137 114.815C233.682 117.21 231.928 120.891 230.876 125.915C229.723 130.823 228.621 136.782 227.468 143.91C227.218 145.371 227.068 146.89 227.068 148.526C227.017 155.303 230.074 158.633 236.087 158.633Z" fill="#FF0420"/>
    <path d="M309.199 131.46C311.855 131.46 314.11 130.642 316.064 128.947C318.068 127.253 319.371 124.858 320.023 121.703C320.223 120.476 320.323 119.366 320.323 118.431C320.323 116.328 319.772 114.692 318.72 113.582C317.668 112.413 315.813 111.829 313.258 111.829H301.983L298.425 131.46H309.199Z" fill="#FF0420"/>
  </g>
  <defs>
    <filter id="filter0_d_288_14" x="0" y="0" width="548" height="278" filterUnits="userSpaceOnUse" color-interpolation-filters="sRGB">
      <feFlood flood-opacity="0" result="BackgroundImageFix"/>
      <feColorMatrix in="SourceAlpha" type="matrix" values="0 0 0 0 0 0 0 0 0 0 0 0 0 0 0 0 0 0 127 0" result="hardAlpha"/>
      <feOffset dy="4"/>
      <feGaussianBlur stdDeviation="2"/>
      <feComposite in2="hardAlpha" operator="out"/>
      <feColorMatrix type="matrix" values="0 0 0 0 0 0 0 0 0 0 0 0 0 0 0 0 0 0 0.25 0"/>
      <feBlend mode="normal" in2="BackgroundImageFix" result="effect1_dropShadow_288_14"/>
      <feBlend mode="normal" in="SourceGraphic" in2="effect1_dropShadow_288_14" result="shape"/>
    </filter>
  </defs>
</svg>
