<svg width="540" height="270" viewBox="0 0 540 270" fill="none" xmlns="http://www.w3.org/2000/svg">
  <path d="M300.798 160.093L331.083 141.19C332.688 140.185 333.68 138.323 333.68 136.325V98.5178C333.68 96.5192 332.688 94.6571 331.083 93.6529L300.798 74.7494C299.192 73.7453 297.199 73.7551 295.603 74.7494L265.317 93.6529C263.712 94.6571 262.72 96.5192 262.72 98.5178V166.079L241.48 179.328L220.241 166.079V139.571L241.48 126.322L255.487 135.067V117.285L244.078 110.158C243.293 109.671 242.391 109.408 241.48 109.408C240.569 109.408 239.668 109.671 238.883 110.158L208.597 129.062C206.992 130.066 206 131.928 206 133.927V171.734C206 173.732 206.992 175.594 208.597 176.598L238.883 195.502C240.488 196.496 242.472 196.496 244.078 195.502L274.363 176.598C275.969 175.594 276.96 173.732 276.96 171.734V104.163L277.339 103.928L298.191 90.9135L319.431 104.163V130.67L298.191 143.919L284.202 135.194V152.976L295.593 160.084C297.199 161.078 299.192 161.078 300.788 160.084L300.798 160.093Z" fill="white"/>
</svg>
