<svg xmlns="http://www.w3.org/2000/svg" width="180" height="270" viewBox="0 0 180 270" fill="none">
<rect width="180" height="270" fill="#BA3FF4"/>
<path d="M120.798 160.093L151.083 141.19C152.688 140.185 153.68 138.323 153.68 136.325V98.5178C153.68 96.5192 152.688 94.6571 151.083 93.6529L120.798 74.7494C119.192 73.7453 117.199 73.7551 115.603 74.7494L85.317 93.6529C83.7119 94.6571 82.7197 96.5192 82.7197 98.5178V166.079L61.4803 179.328L40.2408 166.079V139.571L61.4803 126.322L75.4868 135.067V117.285L64.0775 110.158C63.2928 109.671 62.3914 109.408 61.4803 109.408C60.5691 109.408 59.6677 109.671 58.883 110.158L28.5975 129.062C26.9921 130.066 26 131.928 26 133.927V171.734C26 173.732 26.9921 175.594 28.5975 176.598L58.883 195.502C60.4881 196.496 62.4725 196.496 64.0775 195.502L94.3631 176.598C95.9686 175.594 96.9603 173.732 96.9603 171.734V104.163L97.3391 103.928L118.191 90.9135L139.431 104.163V130.67L118.191 143.919L104.202 135.194V152.976L115.593 160.084C117.199 161.078 119.192 161.078 120.788 160.084L120.798 160.093Z" fill="white"/>
</svg>