<svg width="541" height="270" viewBox="0 0 541 270" fill="none" xmlns="http://www.w3.org/2000/svg">
  <rect x="0.5" width="540" height="270" fill="#900046"/>
  <g clip-path="url(#clip0_288_30)">
    <path d="M254.017 82.433C252.19 82.1719 252.103 82.0849 252.973 81.9979C254.626 81.7368 258.455 82.0849 261.153 82.694C267.419 84.1734 273.075 88.0025 279.08 94.7032L280.646 96.5307L282.909 96.1826C292.568 94.6162 302.489 95.8345 310.756 99.6636C313.019 100.708 316.587 102.796 317.022 103.319C317.196 103.493 317.457 104.624 317.631 105.755C318.24 109.845 317.979 112.891 316.674 115.241C315.978 116.546 315.978 116.894 316.413 118.025C316.761 118.896 317.805 119.505 318.762 119.505C320.851 119.505 323.027 116.198 324.071 111.586L324.506 109.758L325.289 110.628C329.727 115.589 333.208 122.464 333.73 127.337L333.904 128.642L333.121 127.511C331.816 125.509 330.598 124.204 328.944 123.073C325.985 121.071 322.853 120.462 314.585 120.027C307.101 119.592 302.837 118.983 298.66 117.59C291.524 115.241 287.869 112.195 279.428 100.969C275.686 96.0086 273.336 93.3109 270.987 91.0483C265.852 86.0879 260.718 83.4772 254.017 82.433Z" fill="white"/>
    <path d="M318.849 93.4839C319.023 90.177 319.459 88.0014 320.416 85.9999C320.764 85.2167 321.112 84.5205 321.199 84.5205C321.286 84.5205 321.112 85.1297 320.851 85.8259C320.155 87.7404 320.068 90.4381 320.503 93.4839C321.112 97.3999 321.373 97.9221 325.55 102.186C327.465 104.188 329.727 106.711 330.598 107.756L332.077 109.67L330.598 108.278C328.77 106.537 324.593 103.23 323.636 102.795C323.026 102.447 322.939 102.447 322.504 102.882C322.156 103.23 322.069 103.753 322.069 106.276C321.982 110.192 321.46 112.629 320.155 115.153C319.459 116.458 319.372 116.197 319.981 114.718C320.416 113.586 320.503 113.064 320.503 109.322C320.503 101.751 319.633 99.9236 314.324 96.8778C313.019 96.0946 310.756 94.9633 309.451 94.3541C308.059 93.745 307.014 93.2228 307.101 93.2228C307.275 93.0488 312.41 94.5282 314.411 95.3984C317.457 96.6167 317.979 96.7038 318.327 96.6167C318.588 96.3557 318.762 95.6595 318.849 93.4839Z" fill="white"/>
    <path d="M257.585 106.452C253.93 101.405 251.581 93.5726 252.103 87.742L252.277 85.9146L253.147 86.0886C254.713 86.3497 257.411 87.3939 258.716 88.1772C262.197 90.2657 263.764 93.1375 265.243 100.273C265.678 102.362 266.287 104.799 266.549 105.582C266.984 106.887 268.637 109.933 270.029 111.847C270.987 113.24 270.378 113.936 268.202 113.762C264.895 113.414 260.457 110.368 257.585 106.452Z" fill="white"/>
    <path d="M314.411 144.305C297.18 137.343 291.089 131.339 291.089 121.157C291.089 119.678 291.176 118.459 291.176 118.459C291.263 118.459 291.872 118.982 292.655 119.591C296.136 122.376 300.052 123.594 310.93 125.16C317.283 126.118 320.938 126.814 324.245 127.945C334.774 131.426 341.301 138.562 342.868 148.221C343.303 151.006 343.042 156.315 342.346 159.099C341.736 161.275 339.996 165.278 339.561 165.365C339.474 165.365 339.3 164.93 339.3 164.234C339.126 160.579 337.298 157.098 334.252 154.4C330.597 151.267 325.898 148.918 314.411 144.305Z" fill="white"/>
    <path d="M302.228 147.178C302.054 145.873 301.619 144.219 301.357 143.523L300.922 142.218L301.706 143.175C302.837 144.48 303.707 146.047 304.49 148.222C305.099 149.876 305.099 150.398 305.099 153.096C305.099 155.706 305.012 156.316 304.49 157.795C303.62 160.145 302.576 161.798 300.835 163.625C297.703 166.845 293.612 168.586 287.782 169.369C286.738 169.456 283.779 169.717 281.168 169.891C274.641 170.239 270.29 170.935 266.374 172.328C265.852 172.502 265.33 172.676 265.243 172.589C265.069 172.415 267.767 170.848 269.942 169.804C272.988 168.325 276.121 167.542 282.996 166.323C286.389 165.801 289.87 165.105 290.741 164.757C299.356 162.059 303.62 155.358 302.228 147.178Z" fill="white"/>
    <path d="M310.147 161.187C307.884 156.226 307.362 151.527 308.581 147.089C308.755 146.654 308.929 146.219 309.103 146.219C309.277 146.219 309.799 146.48 310.321 146.828C311.365 147.524 313.541 148.742 319.11 151.788C326.159 155.617 330.162 158.576 332.947 161.97C335.384 164.929 336.863 168.323 337.559 172.5C337.994 174.849 337.733 180.506 337.124 182.855C335.21 190.252 330.858 196.17 324.506 199.564C323.549 200.086 322.765 200.434 322.678 200.434C322.591 200.434 322.939 199.564 323.462 198.52C325.55 194.081 325.811 189.817 324.245 185.031C323.287 182.072 321.286 178.504 317.283 172.5C312.497 165.538 311.365 163.71 310.147 161.187Z" fill="white"/>
    <path d="M245.315 187.816C251.755 182.421 259.674 178.591 266.984 177.373C270.117 176.851 275.338 177.025 278.21 177.808C282.822 179.027 286.999 181.637 289.175 184.857C291.264 187.99 292.221 190.688 293.178 196.692C293.526 199.042 293.961 201.479 294.048 202.001C294.744 205.134 296.137 207.57 297.877 208.876C300.575 210.877 305.274 210.964 309.886 209.224C310.67 208.963 311.366 208.702 311.366 208.789C311.54 208.963 309.19 210.529 307.624 211.312C305.448 212.443 303.708 212.792 301.358 212.792C297.181 212.792 293.613 210.616 290.741 206.265C290.132 205.395 288.914 202.871 287.87 200.521C284.824 193.472 283.257 191.384 279.689 189.034C276.557 187.033 272.554 186.598 269.508 188.077C265.505 189.992 264.46 195.126 267.245 198.259C268.376 199.564 270.465 200.608 272.205 200.869C275.425 201.305 278.21 198.781 278.21 195.561C278.21 193.472 277.427 192.254 275.338 191.297C272.554 190.079 269.508 191.471 269.595 194.169C269.595 195.3 270.117 195.996 271.248 196.518C271.944 196.866 271.944 196.866 271.422 196.779C268.899 196.257 268.289 193.124 270.291 191.123C272.728 188.686 277.862 189.73 279.602 193.124C280.299 194.517 280.386 197.301 279.776 199.042C278.297 202.871 274.12 204.872 269.856 203.741C266.984 202.958 265.766 202.175 262.285 198.607C256.193 192.341 253.844 191.123 245.141 189.817L243.488 189.556L245.315 187.816Z" fill="white"/>
    <path fill-rule="evenodd" clip-rule="evenodd" d="M199.541 47.7967C219.817 72.4242 251.058 110.714 252.625 112.803C253.93 114.543 253.408 116.197 251.233 117.415C250.014 118.111 247.491 118.808 246.272 118.808C244.88 118.808 243.226 118.111 242.095 116.98C241.312 116.197 237.918 111.237 230.26 99.3144C224.429 90.177 219.469 82.6059 219.382 82.5189C219.034 82.3449 219.034 82.3449 229.651 101.316C236.352 113.238 238.527 117.502 238.527 118.024C238.527 119.156 238.179 119.765 236.787 121.331C234.437 123.942 233.393 126.901 232.61 133.079C231.739 139.954 229.39 144.828 222.689 153.095C218.773 157.968 218.164 158.838 217.206 160.84C215.988 163.276 215.64 164.669 215.466 167.802C215.292 171.108 215.64 173.197 216.597 176.33C217.468 179.115 218.425 180.942 220.774 184.51C222.776 187.643 223.994 189.993 223.994 190.863C223.994 191.559 224.168 191.559 227.301 190.863C234.785 189.122 240.964 186.164 244.358 182.509C246.446 180.246 246.968 179.028 246.968 175.895C246.968 173.893 246.881 173.458 246.359 172.24C245.489 170.325 243.836 168.759 240.268 166.322C235.568 163.102 233.567 160.492 233.045 157.011C232.61 154.052 233.132 152.05 235.742 146.568C238.44 140.911 239.136 138.562 239.571 132.818C239.833 129.163 240.268 127.684 241.312 126.553C242.443 125.334 243.4 124.899 246.098 124.551C250.536 123.942 253.408 122.811 255.671 120.635C257.672 118.808 258.542 116.98 258.63 114.282L258.717 112.281L257.585 111.063C253.495 106.363 196.843 44.0547 196.582 44.0547C196.495 44.0547 197.887 45.7081 199.541 47.7967Z" fill="white"/>
    <path fill-rule="evenodd" clip-rule="evenodd" d="M226.257 171.544C227.214 169.89 226.692 167.802 225.126 166.757C223.646 165.8 221.384 166.235 221.384 167.541C221.384 167.889 221.558 168.237 222.08 168.411C222.863 168.846 222.95 169.281 222.341 170.238C221.732 171.196 221.732 172.066 222.515 172.675C223.733 173.632 225.387 173.11 226.257 171.544Z" fill="#900046"/>
    <path fill-rule="evenodd" clip-rule="evenodd" d="M261.501 125.77C259.413 126.38 257.411 128.642 256.802 130.905C256.454 132.297 256.628 134.821 257.237 135.604C258.194 136.822 259.065 137.17 261.501 137.17C266.287 137.17 270.378 135.082 270.813 132.558C271.248 130.47 269.42 127.598 266.897 126.292C265.591 125.596 262.894 125.335 261.501 125.77Z" fill="white"/>
    <path fill-rule="evenodd" clip-rule="evenodd" d="M267.071 130.121C267.767 129.077 267.506 127.946 266.2 127.162C263.851 125.683 260.283 126.901 260.283 129.164C260.283 130.295 262.11 131.514 263.851 131.514C264.982 131.514 266.548 130.817 267.071 130.121Z" fill="#900046"/>
  </g>
  <defs>
    <clipPath id="clip0_288_30">
      <rect width="146.46" height="168.651" fill="white" transform="translate(196.582 44.0547)"/>
    </clipPath>
  </defs>
</svg>
