<svg xmlns="http://www.w3.org/2000/svg" width="181" height="270" viewBox="0 0 181 270" fill="none">
<rect x="1" width="180" height="270" fill="#FF5F6A"/>
<g clip-path="url(#clip0_248_44)">
<path d="M74.5172 82.433C72.6897 82.1719 72.6027 82.0849 73.4729 81.9979C75.1264 81.7368 78.9554 82.0849 81.6531 82.694C87.9188 84.1734 93.5753 88.0025 99.5799 94.7032L101.146 96.5307L103.409 96.1826C113.068 94.6162 122.989 95.8345 131.256 99.6636C133.519 100.708 137.087 102.796 137.522 103.319C137.696 103.493 137.957 104.624 138.131 105.755C138.74 109.845 138.479 112.891 137.174 115.241C136.478 116.546 136.478 116.894 136.913 118.025C137.261 118.896 138.305 119.505 139.262 119.505C141.351 119.505 143.527 116.198 144.571 111.586L145.006 109.758L145.789 110.628C150.227 115.589 153.708 122.464 154.23 127.337L154.404 128.642L153.621 127.511C152.316 125.509 151.098 124.204 149.444 123.073C146.485 121.071 143.353 120.462 135.085 120.027C127.601 119.592 123.337 118.983 119.16 117.59C112.024 115.241 108.369 112.195 99.9279 100.969C96.186 96.0086 93.8363 93.3109 91.4867 91.0483C86.3523 86.0879 81.218 83.4772 74.5172 82.433Z" fill="white"/>
<path d="M139.349 93.4839C139.523 90.177 139.959 88.0014 140.916 85.9999C141.264 85.2167 141.612 84.5205 141.699 84.5205C141.786 84.5205 141.612 85.1297 141.351 85.8259C140.655 87.7404 140.568 90.4381 141.003 93.4839C141.612 97.3999 141.873 97.9221 146.05 102.186C147.965 104.188 150.227 106.711 151.098 107.756L152.577 109.67L151.098 108.278C149.27 106.537 145.093 103.23 144.136 102.795C143.526 102.447 143.439 102.447 143.004 102.882C142.656 103.23 142.569 103.753 142.569 106.276C142.482 110.192 141.96 112.629 140.655 115.153C139.959 116.458 139.872 116.197 140.481 114.718C140.916 113.586 141.003 113.064 141.003 109.322C141.003 101.751 140.133 99.9236 134.824 96.8778C133.519 96.0946 131.256 94.9633 129.951 94.3541C128.559 93.745 127.514 93.2228 127.601 93.2228C127.775 93.0488 132.91 94.5282 134.911 95.3984C137.957 96.6167 138.479 96.7038 138.827 96.6167C139.088 96.3557 139.262 95.6595 139.349 93.4839Z" fill="white"/>
<path d="M78.0852 106.452C74.4302 101.405 72.0806 93.5726 72.6027 87.742L72.7767 85.9146L73.647 86.0886C75.2134 86.3497 77.9111 87.3939 79.2165 88.1772C82.6974 90.2657 84.2638 93.1375 85.7432 100.273C86.1783 102.362 86.7875 104.799 87.0485 105.582C87.4837 106.887 89.1371 109.933 90.5295 111.847C91.4867 113.24 90.8776 113.936 88.702 113.762C85.3951 113.414 80.9569 110.368 78.0852 106.452Z" fill="white"/>
<path d="M134.911 144.305C117.68 137.343 111.589 131.339 111.589 121.157C111.589 119.678 111.676 118.459 111.676 118.459C111.763 118.459 112.372 118.982 113.155 119.591C116.636 122.376 120.552 123.594 131.43 125.16C137.783 126.118 141.438 126.814 144.745 127.945C155.274 131.426 161.801 138.562 163.368 148.221C163.803 151.006 163.542 156.315 162.846 159.099C162.236 161.275 160.496 165.278 160.061 165.365C159.974 165.365 159.8 164.93 159.8 164.234C159.626 160.579 157.798 157.098 154.752 154.4C151.097 151.267 146.398 148.918 134.911 144.305Z" fill="white"/>
<path d="M122.728 147.178C122.554 145.873 122.119 144.219 121.857 143.523L121.422 142.218L122.206 143.175C123.337 144.48 124.207 146.047 124.99 148.222C125.599 149.876 125.599 150.398 125.599 153.096C125.599 155.706 125.512 156.316 124.99 157.795C124.12 160.145 123.076 161.798 121.335 163.625C118.203 166.845 114.112 168.586 108.282 169.369C107.238 169.456 104.279 169.717 101.668 169.891C95.1414 170.239 90.7902 170.935 86.8742 172.328C86.352 172.502 85.8299 172.676 85.7429 172.589C85.5688 172.415 88.2665 170.848 90.4421 169.804C93.4879 168.325 96.6208 167.542 103.496 166.323C106.889 165.801 110.37 165.105 111.241 164.757C119.856 162.059 124.12 155.358 122.728 147.178Z" fill="white"/>
<path d="M130.647 161.187C128.384 156.226 127.862 151.527 129.081 147.089C129.255 146.654 129.429 146.219 129.603 146.219C129.777 146.219 130.299 146.48 130.821 146.828C131.865 147.524 134.041 148.742 139.61 151.788C146.659 155.617 150.662 158.576 153.447 161.97C155.884 164.929 157.363 168.323 158.059 172.5C158.494 174.849 158.233 180.506 157.624 182.855C155.71 190.252 151.358 196.17 145.006 199.564C144.049 200.086 143.265 200.434 143.178 200.434C143.091 200.434 143.439 199.564 143.962 198.52C146.05 194.081 146.311 189.817 144.745 185.031C143.787 182.072 141.786 178.504 137.783 172.5C132.997 165.538 131.865 163.71 130.647 161.187Z" fill="white"/>
<path d="M65.8153 187.816C72.255 182.421 80.1741 178.591 87.484 177.373C90.6169 176.851 95.8383 177.025 98.71 177.808C103.322 179.027 107.499 181.637 109.675 184.857C111.764 187.99 112.721 190.688 113.678 196.692C114.026 199.042 114.461 201.479 114.548 202.001C115.244 205.134 116.637 207.57 118.377 208.876C121.075 210.877 125.774 210.964 130.386 209.224C131.17 208.963 131.866 208.702 131.866 208.789C132.04 208.963 129.69 210.529 128.124 211.312C125.948 212.443 124.208 212.792 121.858 212.792C117.681 212.792 114.113 210.616 111.241 206.265C110.632 205.395 109.414 202.871 108.37 200.521C105.324 193.472 103.757 191.384 100.189 189.034C97.0566 187.033 93.0535 186.598 90.0077 188.077C86.0047 189.992 84.9604 195.126 87.7451 198.259C88.8764 199.564 90.965 200.608 92.7054 200.869C95.9253 201.305 98.71 198.781 98.71 195.561C98.71 193.472 97.9268 192.254 95.8383 191.297C93.0535 190.079 90.0077 191.471 90.0947 194.169C90.0947 195.3 90.6169 195.996 91.7482 196.518C92.4444 196.866 92.4444 196.866 91.9222 196.779C89.3986 196.257 88.7894 193.124 90.7909 191.123C93.2276 188.686 98.3619 189.73 100.102 193.124C100.799 194.517 100.886 197.301 100.276 199.042C98.7971 202.871 94.6199 204.872 90.3558 203.741C87.484 202.958 86.2657 202.175 82.7848 198.607C76.6932 192.341 74.3435 191.123 65.6412 189.817L63.9878 189.556L65.8153 187.816Z" fill="white"/>
<path fill-rule="evenodd" clip-rule="evenodd" d="M20.0408 47.7967C40.3172 72.4242 71.5585 110.714 73.1249 112.803C74.4303 114.543 73.9081 116.197 71.7325 117.415C70.5142 118.111 67.9905 118.808 66.7722 118.808C65.3798 118.808 63.7264 118.111 62.5951 116.98C61.8119 116.197 58.418 111.237 50.76 99.3144C44.9294 90.177 39.9691 82.6059 39.8821 82.5189C39.534 82.3449 39.534 82.3449 50.1508 101.316C56.8516 113.238 59.0272 117.502 59.0272 118.024C59.0272 119.156 58.6791 119.765 57.2867 121.331C54.9371 123.942 53.8928 126.901 53.1096 133.079C52.2394 139.954 49.8897 144.828 43.1889 153.095C39.2729 157.968 38.6637 158.838 37.7065 160.84C36.4882 163.276 36.1401 164.669 35.966 167.802C35.792 171.108 36.1401 173.197 37.0973 176.33C37.9676 179.115 38.9248 180.942 41.2744 184.51C43.276 187.643 44.4943 189.993 44.4943 190.863C44.4943 191.559 44.6683 191.559 47.8012 190.863C55.2852 189.122 61.4638 186.164 64.8577 182.509C66.9463 180.246 67.4684 179.028 67.4684 175.895C67.4684 173.893 67.3814 173.458 66.8592 172.24C65.989 170.325 64.3356 168.759 60.7676 166.322C56.0684 163.102 54.0668 160.492 53.5447 157.011C53.1096 154.052 53.6317 152.05 56.2424 146.568C58.9401 140.911 59.6363 138.562 60.0714 132.818C60.3325 129.163 60.7676 127.684 61.8119 126.553C62.9432 125.334 63.9005 124.899 66.5982 124.551C71.0364 123.942 73.9081 122.811 76.1707 120.635C78.1723 118.808 79.0425 116.98 79.1295 114.282L79.2165 112.281L78.0852 111.063C73.9951 106.363 17.3431 44.0547 17.082 44.0547C16.995 44.0547 18.3873 45.7081 20.0408 47.7967Z" fill="white"/>
<path fill-rule="evenodd" clip-rule="evenodd" d="M46.7571 171.544C47.7143 169.89 47.1922 167.802 45.6258 166.757C44.1464 165.8 41.8838 166.235 41.8838 167.541C41.8838 167.889 42.0578 168.237 42.58 168.411C43.3632 168.846 43.4502 169.281 42.841 170.238C42.2319 171.196 42.2319 172.066 43.0151 172.675C44.2334 173.632 45.8869 173.11 46.7571 171.544Z" fill="#FF5F6A"/>
<path fill-rule="evenodd" clip-rule="evenodd" d="M82.0012 125.77C79.9126 126.38 77.9111 128.642 77.3019 130.905C76.9538 132.297 77.1279 134.821 77.737 135.604C78.6943 136.822 79.5645 137.17 82.0012 137.17C86.7874 137.17 90.8775 135.082 91.3127 132.558C91.7478 130.47 89.9203 127.598 87.3966 126.292C86.0913 125.596 83.3935 125.335 82.0012 125.77Z" fill="white"/>
<path fill-rule="evenodd" clip-rule="evenodd" d="M87.5705 130.121C88.2667 129.077 88.0056 127.946 86.7003 127.162C84.3507 125.683 80.7827 126.901 80.7827 129.164C80.7827 130.295 82.6102 131.514 84.3507 131.514C85.482 131.514 87.0484 130.817 87.5705 130.121Z" fill="#FF5F6A"/>
</g>
<defs>
<clipPath id="clip0_248_44">
<rect width="146.46" height="168.651" fill="white" transform="translate(17.082 44.0547)"/>
</clipPath>
</defs>
</svg>