<svg width="540" height="270" viewBox="0 0 540 270" fill="none" xmlns="http://www.w3.org/2000/svg">
  <g clip-path="url(#clip0_326_82)">
    <path d="M254.018 82.433C252.19 82.1719 252.103 82.0849 252.973 81.9979C254.627 81.7368 258.456 82.0849 261.154 82.694C267.419 84.1734 273.076 88.0025 279.08 94.7032L280.647 96.5307L282.909 96.1826C292.569 94.6162 302.49 95.8345 310.757 99.6636C313.019 100.708 316.587 102.796 317.022 103.319C317.196 103.493 317.458 104.624 317.632 105.755C318.241 109.845 317.98 112.891 316.674 115.241C315.978 116.546 315.978 116.894 316.413 118.025C316.761 118.896 317.806 119.505 318.763 119.505C320.851 119.505 323.027 116.198 324.071 111.586L324.506 109.758L325.29 110.628C329.728 115.589 333.209 122.464 333.731 127.337L333.905 128.642L333.122 127.511C331.816 125.509 330.598 124.204 328.945 123.073C325.986 121.071 322.853 120.462 314.586 120.027C307.102 119.592 302.838 118.983 298.661 117.59C291.525 115.241 287.87 112.195 279.428 100.969C275.686 96.0086 273.337 93.3109 270.987 91.0483C265.853 86.0879 260.718 83.4772 254.018 82.433Z" fill="white"/>
    <path d="M318.85 93.4839C319.024 90.177 319.459 88.0014 320.416 85.9999C320.764 85.2167 321.112 84.5205 321.199 84.5205C321.287 84.5205 321.112 85.1297 320.851 85.8259C320.155 87.7404 320.068 90.4381 320.503 93.4839C321.112 97.3999 321.374 97.9221 325.551 102.186C327.465 104.188 329.728 106.711 330.598 107.756L332.077 109.67L330.598 108.278C328.771 106.537 324.593 103.23 323.636 102.795C323.027 102.447 322.94 102.447 322.505 102.882C322.157 103.23 322.07 103.753 322.07 106.276C321.983 110.192 321.461 112.629 320.155 115.153C319.459 116.458 319.372 116.197 319.981 114.718C320.416 113.586 320.503 113.064 320.503 109.322C320.503 101.751 319.633 99.9236 314.325 96.8778C313.019 96.0946 310.757 94.9633 309.451 94.3541C308.059 93.745 307.015 93.2228 307.102 93.2228C307.276 93.0488 312.41 94.5282 314.412 95.3984C317.457 96.6167 317.98 96.7038 318.328 96.6167C318.589 96.3557 318.763 95.6595 318.85 93.4839Z" fill="white"/>
    <path d="M257.585 106.452C253.93 101.405 251.581 93.5726 252.103 87.742L252.277 85.9146L253.147 86.0886C254.713 86.3497 257.411 87.3939 258.716 88.1772C262.197 90.2657 263.764 93.1375 265.243 100.273C265.678 102.362 266.287 104.799 266.549 105.582C266.984 106.887 268.637 109.933 270.029 111.847C270.987 113.24 270.378 113.936 268.202 113.762C264.895 113.414 260.457 110.368 257.585 106.452Z" fill="white"/>
    <path d="M314.411 144.305C297.18 137.343 291.089 131.339 291.089 121.157C291.089 119.678 291.176 118.459 291.176 118.459C291.263 118.459 291.872 118.982 292.655 119.591C296.136 122.376 300.052 123.594 310.93 125.16C317.283 126.118 320.938 126.814 324.245 127.945C334.774 131.426 341.301 138.562 342.868 148.221C343.303 151.006 343.042 156.315 342.346 159.099C341.736 161.275 339.996 165.278 339.561 165.365C339.474 165.365 339.3 164.93 339.3 164.234C339.126 160.579 337.298 157.098 334.252 154.4C330.597 151.267 325.898 148.918 314.411 144.305Z" fill="white"/>
    <path d="M302.228 147.178C302.054 145.873 301.619 144.219 301.358 143.523L300.923 142.218L301.706 143.175C302.837 144.48 303.708 146.047 304.491 148.222C305.1 149.876 305.1 150.398 305.1 153.096C305.1 155.706 305.013 156.316 304.491 157.795C303.621 160.145 302.576 161.798 300.836 163.625C297.703 166.845 293.613 168.586 287.782 169.369C286.738 169.456 283.779 169.717 281.169 169.891C274.642 170.239 270.291 170.935 266.375 172.328C265.853 172.502 265.33 172.676 265.243 172.589C265.069 172.415 267.767 170.848 269.943 169.804C272.988 168.325 276.121 167.542 282.996 166.323C286.39 165.801 289.871 165.105 290.741 164.757C299.356 162.059 303.621 155.358 302.228 147.178Z" fill="white"/>
    <path d="M310.147 161.187C307.885 156.226 307.363 151.527 308.581 147.089C308.755 146.654 308.929 146.219 309.103 146.219C309.277 146.219 309.799 146.48 310.321 146.828C311.366 147.524 313.541 148.742 319.111 151.788C326.16 155.617 330.163 158.576 332.948 161.97C335.384 164.929 336.864 168.323 337.56 172.5C337.995 174.849 337.734 180.506 337.125 182.855C335.21 190.252 330.859 196.17 324.506 199.564C323.549 200.086 322.766 200.434 322.679 200.434C322.592 200.434 322.94 199.564 323.462 198.52C325.551 194.081 325.812 189.817 324.245 185.031C323.288 182.072 321.286 178.504 317.283 172.5C312.497 165.538 311.366 163.71 310.147 161.187Z" fill="white"/>
    <path d="M245.315 187.816C251.755 182.421 259.674 178.591 266.984 177.373C270.116 176.851 275.338 177.025 278.21 177.808C282.822 179.027 286.999 181.637 289.174 184.857C291.263 187.99 292.22 190.688 293.178 196.692C293.526 199.042 293.961 201.479 294.048 202.001C294.744 205.134 296.136 207.57 297.877 208.876C300.574 210.877 305.274 210.964 309.886 209.224C310.669 208.963 311.365 208.702 311.365 208.789C311.539 208.963 309.19 210.529 307.623 211.312C305.448 212.443 303.707 212.792 301.358 212.792C297.181 212.792 293.613 210.616 290.741 206.265C290.132 205.395 288.913 202.871 287.869 200.521C284.823 193.472 283.257 191.384 279.689 189.034C276.556 187.033 272.553 186.598 269.507 188.077C265.504 189.992 264.46 195.126 267.245 198.259C268.376 199.564 270.464 200.608 272.205 200.869C275.425 201.305 278.21 198.781 278.21 195.561C278.21 193.472 277.426 192.254 275.338 191.297C272.553 190.079 269.507 191.471 269.594 194.169C269.594 195.3 270.116 195.996 271.248 196.518C271.944 196.866 271.944 196.866 271.422 196.779C268.898 196.257 268.289 193.124 270.29 191.123C272.727 188.686 277.861 189.73 279.602 193.124C280.298 194.517 280.385 197.301 279.776 199.042C278.297 202.871 274.119 204.872 269.855 203.741C266.984 202.958 265.765 202.175 262.284 198.607C256.193 192.341 253.843 191.123 245.141 189.817L243.487 189.556L245.315 187.816Z" fill="white"/>
    <path fill-rule="evenodd" clip-rule="evenodd" d="M252.625 112.803C251.058 110.714 219.817 72.4242 199.541 47.7967C198.897 46.9839 198.293 46.2371 197.801 45.6279C197.028 44.6717 196.529 44.0547 196.582 44.0547C196.843 44.0547 253.495 106.363 257.585 111.063L258.717 112.281L258.63 114.282C258.542 116.98 257.672 118.808 255.671 120.635C253.408 122.811 250.536 123.942 246.098 124.551C243.4 124.899 242.443 125.334 241.312 126.553C240.268 127.684 239.833 129.163 239.571 132.818C239.136 138.562 238.44 140.911 235.742 146.568C233.132 152.05 232.61 154.052 233.045 157.011C233.567 160.492 235.568 163.102 240.268 166.322C243.836 168.759 245.489 170.325 246.359 172.24C246.881 173.458 246.968 173.893 246.968 175.895C246.968 179.028 246.446 180.246 244.358 182.509C240.964 186.164 234.785 189.122 227.301 190.863C224.168 191.559 223.994 191.559 223.994 190.863C223.994 189.993 222.776 187.643 220.774 184.51C218.425 180.942 217.468 179.115 216.597 176.33C215.64 173.197 215.292 171.108 215.466 167.802C215.64 164.669 215.988 163.276 217.206 160.84C218.164 158.838 218.773 157.968 222.689 153.095C229.39 144.828 231.739 139.954 232.61 133.079C233.393 126.901 234.437 123.942 236.787 121.331C238.179 119.765 238.527 119.156 238.527 118.024C238.527 117.502 236.352 113.238 229.651 101.316C220.21 84.4472 219.164 82.5779 219.293 82.4931C219.309 82.4825 219.343 82.4996 219.382 82.5189C219.469 82.6059 224.429 90.177 230.26 99.3144C237.918 111.237 241.312 116.197 242.095 116.98C243.226 118.111 244.88 118.808 246.272 118.808C247.491 118.808 250.014 118.111 251.233 117.415C253.408 116.197 253.93 114.543 252.625 112.803ZM225.126 166.757C226.692 167.802 227.214 169.89 226.257 171.544C225.387 173.11 223.733 173.632 222.515 172.675C221.732 172.066 221.732 171.196 222.341 170.238C222.95 169.281 222.863 168.846 222.08 168.411C221.558 168.237 221.384 167.889 221.384 167.541C221.384 166.235 223.646 165.8 225.126 166.757Z" fill="white"/>
    <path fill-rule="evenodd" clip-rule="evenodd" d="M256.802 130.905C257.412 128.642 259.413 126.38 261.502 125.77C262.894 125.335 265.592 125.596 266.897 126.292C269.421 127.598 271.248 130.47 270.813 132.558C270.378 135.082 266.288 137.17 261.502 137.17C259.065 137.17 258.195 136.822 257.238 135.604C256.628 134.821 256.454 132.297 256.802 130.905ZM266.201 127.162C267.506 127.946 267.767 129.077 267.071 130.121C266.549 130.817 264.982 131.514 263.851 131.514C262.111 131.514 260.283 130.295 260.283 129.164C260.283 126.901 263.851 125.683 266.201 127.162Z" fill="white"/>
  </g>
  <defs>
    <clipPath id="clip0_326_82">
      <rect width="146.46" height="168.651" fill="white" transform="translate(196.582 44.0547)"/>
    </clipPath>
  </defs>
</svg>
