<svg width="180" height="270" viewBox="0 0 180 270" fill="none" xmlns="http://www.w3.org/2000/svg">
<rect width="180" height="270" fill="rgba(229, 226, 226, 0.9)"/>
<rect width="180" height="270" transform="translate(0.116211 -0.00341797)" fill="#E5E2E2"/>
<g clip-path="url(#clip0_61_549)">
<path d="M0.116211 40.572L0.568642 40.2111L1.02107 39.8523L1.4735 39.4978L1.92594 39.1499L2.37837 38.8105L2.8308 38.4817L3.28323 38.1655L3.73566 37.8638L4.18809 37.5784L4.64052 37.3111L5.09295 37.0633L5.54538 36.8367L5.99781 36.6325L6.45025 36.4519L6.90268 36.2961L7.35511 36.1659L7.80754 36.0621L8.25997 35.9853L8.7124 35.9358L9.16483 35.9141L9.61726 35.9201L10.0697 35.9537L10.5221 36.0147L10.9746 36.1027L11.427 36.2171L11.8794 36.3572L12.3319 36.5219L12.7843 36.7103L13.2367 36.9212L13.6891 37.1531L14.1416 37.4047L14.594 37.6743L15.0464 37.9602L15.4989 38.2606L15.9513 38.5735L16.4037 38.8971L16.8562 39.2293L17.3086 39.568L17.761 39.911L18.2135 40.2561L18.6659 40.6013L19.1183 40.9443L19.5707 41.2829L20.0232 41.6151L20.4756 41.9387L20.928 42.2517L21.3805 42.5521L21.8329 42.838L22.2853 43.1076L22.7378 43.3591L23.1902 43.5911L23.6426 43.8019L24.0951 43.9904L24.5475 44.1551L24.9999 44.2951L25.4524 44.4095L25.9048 44.4975L26.3572 44.5586L26.8096 44.5922L27.2621 44.5982L27.7145 44.5764L28.1669 44.527L28.6194 44.4502L29.0718 44.3464L29.5242 44.2162L29.9767 44.0603L30.4291 43.8798L30.8815 43.6756L31.334 43.4489L31.7864 43.2012L32.2388 42.9338L32.6912 42.6485L33.1437 42.3468L33.5961 42.0306L34.0485 41.7018L34.501 41.3624L34.9534 41.0144L35.4058 40.66L35.8583 40.3012L36.3107 39.9402L36.7631 39.5793L37.2156 39.2205L37.668 38.866L38.1204 38.5181L38.5729 38.1787L39.0253 37.8499L39.4777 37.5337L39.9301 37.232L40.3826 36.9467L40.835 36.6793L41.2874 36.4315L41.7399 36.2049L42.1923 36.0007L42.6447 35.8202L43.0972 35.6643L43.5496 35.5341L44.002 35.4303L44.4545 35.3535L44.9069 35.3041L45.3593 35.2823L45.8118 35.2883L46.2642 35.3219L46.7166 35.3829L47.169 35.471L47.6215 35.5854L48.0739 35.7254L48.5263 35.8901L48.9788 36.0785L49.4312 36.2894L49.8836 36.5213L50.3361 36.7729L50.7885 37.0425L51.2409 37.3284L51.6934 37.6288L52.1458 37.9418L52.5982 38.2654L53.0506 38.5975L53.5031 38.9362L53.9555 39.2792L54.4079 39.6244L54.8604 39.9695L55.3128 40.3125L55.7652 40.6512L56.2177 40.9833L56.6701 41.3069L57.1225 41.6199L57.575 41.9203L58.0274 42.2062L58.4798 42.4758L58.9322 42.7274L59.3847 42.9593L59.8371 43.1702L60.2895 43.3586L60.742 43.5233L61.1944 43.6634L61.6468 43.7778L62.0993 43.8658L62.5517 43.9268L63.0041 43.9604L63.4566 43.9664L63.909 43.9446L64.3614 43.8952L64.8139 43.8184L65.2663 43.7146L65.7187 43.5844L66.1711 43.4286L66.6236 43.248L67.076 43.0438L67.5284 42.8172L67.9809 42.5694L68.4333 42.3021L68.8857 42.0167L69.3382 41.715L69.7906 41.3988L70.243 41.07L70.6955 40.7306L71.1479 40.3827L71.6003 40.0282L72.0528 39.6694L72.5052 39.3085L72.9576 38.9475L73.41 38.5887L73.8625 38.2343L74.3149 37.8863L74.7673 37.5469L75.2198 37.2181L75.6722 36.9019L76.1246 36.6003L76.5771 36.3149L77.0295 36.0475L77.4819 35.7998L77.9344 35.5731L78.3868 35.3689L78.8392 35.1884L79.2916 35.0326L79.7441 34.9024L80.1965 34.7985L80.6489 34.7217L81.1014 34.6723L81.5538 34.6505L82.0062 34.6565L82.4587 34.6901L82.9111 34.7512L83.3635 34.8392L83.816 34.9536L84.2684 35.0936L84.7208 35.2584L85.1733 35.4468L85.6257 35.6576L86.0781 35.8896L86.5305 36.1411L86.983 36.4107L87.4354 36.6966L87.8878 36.997L88.3403 37.31L88.7927 37.6336L89.2451 37.9658L89.6976 38.3044L90.15 38.6474L90.6024 38.9926L91.0549 39.3377L91.5073 39.6807L91.9597 40.0194L92.4122 40.3516L92.8646 40.6752L93.317 40.9882L93.7694 41.2885L94.2219 41.5744L94.6743 41.844L95.1267 42.0956L95.5792 42.3275L96.0316 42.5384L96.484 42.7268L96.9365 42.8915L97.3889 43.0316L97.8413 43.146L98.2938 43.234L98.7462 43.295L99.1986 43.3287L99.651 43.3346L100.103 43.3129L100.556 43.2634L101.008 43.1866L101.461 43.0828L101.913 42.9526L102.366 42.7968L102.818 42.6162L103.27 42.412L103.723 42.1854L104.175 41.9376L104.628 41.6703L105.08 41.3849L105.533 41.0832L105.985 40.767L106.438 40.4383L106.89 40.0989L107.342 39.7509L107.795 39.3964L108.247 39.0377L108.7 38.6767L109.152 38.3157L109.605 37.9569L110.057 37.6025L110.509 37.2545L110.962 36.9151L111.414 36.5864L111.867 36.2702L112.319 35.9685L112.772 35.6831L113.224 35.4157L113.676 35.168L114.129 34.9413L114.581 34.7371L115.034 34.5566L115.486 34.4008L115.939 34.2706L116.391 34.1668L116.843 34.0899L117.296 34.0405L117.748 34.0187L118.201 34.0247L118.653 34.0584L119.106 34.1194L119.558 34.2074L120.01 34.3218L120.463 34.4618L120.915 34.6266L121.368 34.815L121.82 35.0258L122.273 35.2578L122.725 35.5094L123.177 35.7789L123.63 36.0648L124.082 36.3652L124.535 36.6782L124.987 37.0018L125.44 37.334L125.892 37.6726L126.344 38.0156L126.797 38.3608L127.249 38.706L127.702 39.049L128.154 39.3876L128.607 39.7198L129.059 40.0434L129.512 40.3564L129.964 40.6568L130.416 40.9427L130.869 41.2122L131.321 41.4638L131.774 41.6958L132.226 41.9066L132.679 42.095L133.131 42.2598L133.583 42.3998L134.036 42.5142L134.488 42.6022L134.941 42.6632L135.393 42.6969L135.846 42.7029L136.298 42.6811L136.75 42.6317L137.203 42.5548L137.655 42.451L138.108 42.3208L138.56 42.165L139.013 41.9845L139.465 41.7803L139.917 41.5536L140.37 41.3059L140.822 41.0385L141.275 40.7531L141.727 40.4514L142.18 40.1353L142.632 39.8065L143.084 39.4671L143.537 39.1191L143.989 38.7647L144.442 38.4059L144.894 38.0449L145.347 37.6839L145.799 37.3252L146.251 36.9707L146.704 36.6227L147.156 36.2834L147.609 35.9546L148.061 35.6384L148.514 35.3367L148.966 35.0513L149.418 34.784L149.871 34.5362L150.323 34.3096L150.776 34.1054L151.228 33.9248L151.681 33.769L152.133 33.6388L152.585 33.535L153.038 33.4582L153.49 33.4087L153.943 33.387L154.395 33.3929L154.848 33.4266L155.3 33.4876L155.752 33.5756L156.205 33.69L156.657 33.8301L157.11 33.9948L157.562 34.1832L158.015 34.3941L158.467 34.626L158.92 34.8776L159.372 35.1472L159.824 35.4331L160.277 35.7335L160.729 36.0464L161.182 36.37L161.634 36.7022L162.087 37.0409L162.539 37.3839L162.991 37.729L163.444 38.0742L163.896 38.4172L164.349 38.7558L164.801 39.088L165.254 39.4116L165.706 39.7246L166.158 40.025L166.611 40.3109L167.063 40.5805L167.516 40.832L167.968 41.064L168.421 41.2748L168.873 41.4632L169.325 41.628L169.778 41.768L170.23 41.8824L170.683 41.9704L171.135 42.0315L171.588 42.0651L172.04 42.0711L172.492 42.0493L172.945 41.9999L173.397 41.9231L173.85 41.8192L174.302 41.6891L174.755 41.5332L175.207 41.3527L175.659 41.1485L176.112 40.9218L176.564 40.6741L177.017 40.4067L177.469 40.1213L177.922 39.8197L178.374 39.5035L178.826 39.1747L179.279 38.8353L179.731 38.4873L180.184 38.1329L180.636 37.7741" stroke="white" stroke-width="8" stroke-miterlimit="10" stroke-linecap="round" stroke-linejoin="round"/>
<path d="M0.116211 88.572L0.568642 88.2111L1.02107 87.8523L1.4735 87.4978L1.92594 87.1499L2.37837 86.8105L2.8308 86.4817L3.28323 86.1655L3.73566 85.8638L4.18809 85.5784L4.64052 85.3111L5.09295 85.0633L5.54538 84.8367L5.99781 84.6325L6.45025 84.4519L6.90268 84.2961L7.35511 84.1659L7.80754 84.0621L8.25997 83.9853L8.7124 83.9358L9.16483 83.9141L9.61726 83.9201L10.0697 83.9537L10.5221 84.0147L10.9746 84.1027L11.427 84.2171L11.8794 84.3572L12.3319 84.5219L12.7843 84.7103L13.2367 84.9212L13.6891 85.1531L14.1416 85.4047L14.594 85.6743L15.0464 85.9602L15.4989 86.2606L15.9513 86.5735L16.4037 86.8971L16.8562 87.2293L17.3086 87.568L17.761 87.911L18.2135 88.2561L18.6659 88.6013L19.1183 88.9443L19.5707 89.2829L20.0232 89.6151L20.4756 89.9387L20.928 90.2517L21.3805 90.5521L21.8329 90.838L22.2853 91.1076L22.7378 91.3591L23.1902 91.5911L23.6426 91.8019L24.0951 91.9904L24.5475 92.1551L24.9999 92.2951L25.4524 92.4095L25.9048 92.4975L26.3572 92.5586L26.8096 92.5922L27.2621 92.5982L27.7145 92.5764L28.1669 92.527L28.6194 92.4502L29.0718 92.3464L29.5242 92.2162L29.9767 92.0603L30.4291 91.8798L30.8815 91.6756L31.334 91.4489L31.7864 91.2012L32.2388 90.9338L32.6912 90.6485L33.1437 90.3468L33.5961 90.0306L34.0485 89.7018L34.501 89.3624L34.9534 89.0144L35.4058 88.66L35.8583 88.3012L36.3107 87.9402L36.7631 87.5793L37.2156 87.2205L37.668 86.866L38.1204 86.5181L38.5729 86.1787L39.0253 85.8499L39.4777 85.5337L39.9301 85.232L40.3826 84.9467L40.835 84.6793L41.2874 84.4315L41.7399 84.2049L42.1923 84.0007L42.6447 83.8202L43.0972 83.6643L43.5496 83.5341L44.002 83.4303L44.4545 83.3535L44.9069 83.3041L45.3593 83.2823L45.8118 83.2883L46.2642 83.3219L46.7166 83.3829L47.169 83.471L47.6215 83.5854L48.0739 83.7254L48.5263 83.8901L48.9788 84.0785L49.4312 84.2894L49.8836 84.5213L50.3361 84.7729L50.7885 85.0425L51.2409 85.3284L51.6934 85.6288L52.1458 85.9418L52.5982 86.2654L53.0506 86.5975L53.5031 86.9362L53.9555 87.2792L54.4079 87.6244L54.8604 87.9695L55.3128 88.3125L55.7652 88.6512L56.2177 88.9833L56.6701 89.3069L57.1225 89.6199L57.575 89.9203L58.0274 90.2062L58.4798 90.4758L58.9322 90.7274L59.3847 90.9593L59.8371 91.1702L60.2895 91.3586L60.742 91.5233L61.1944 91.6634L61.6468 91.7778L62.0993 91.8658L62.5517 91.9268L63.0041 91.9604L63.4566 91.9664L63.909 91.9446L64.3614 91.8952L64.8139 91.8184L65.2663 91.7146L65.7187 91.5844L66.1711 91.4286L66.6236 91.248L67.076 91.0438L67.5284 90.8172L67.9809 90.5694L68.4333 90.3021L68.8857 90.0167L69.3382 89.715L69.7906 89.3988L70.243 89.07L70.6955 88.7306L71.1479 88.3827L71.6003 88.0282L72.0528 87.6694L72.5052 87.3085L72.9576 86.9475L73.41 86.5887L73.8625 86.2343L74.3149 85.8863L74.7673 85.5469L75.2198 85.2181L75.6722 84.9019L76.1246 84.6003L76.5771 84.3149L77.0295 84.0475L77.4819 83.7998L77.9344 83.5731L78.3868 83.3689L78.8392 83.1884L79.2916 83.0326L79.7441 82.9024L80.1965 82.7985L80.6489 82.7217L81.1014 82.6723L81.5538 82.6505L82.0062 82.6565L82.4587 82.6901L82.9111 82.7512L83.3635 82.8392L83.816 82.9536L84.2684 83.0936L84.7208 83.2584L85.1733 83.4468L85.6257 83.6576L86.0781 83.8896L86.5305 84.1411L86.983 84.4107L87.4354 84.6966L87.8878 84.997L88.3403 85.31L88.7927 85.6336L89.2451 85.9658L89.6976 86.3044L90.15 86.6474L90.6024 86.9926L91.0549 87.3377L91.5073 87.6807L91.9597 88.0194L92.4122 88.3516L92.8646 88.6752L93.317 88.9882L93.7694 89.2885L94.2219 89.5744L94.6743 89.844L95.1267 90.0956L95.5792 90.3275L96.0316 90.5384L96.484 90.7268L96.9365 90.8915L97.3889 91.0316L97.8413 91.146L98.2938 91.234L98.7462 91.295L99.1986 91.3287L99.651 91.3346L100.103 91.3129L100.556 91.2634L101.008 91.1866L101.461 91.0828L101.913 90.9526L102.366 90.7968L102.818 90.6162L103.27 90.412L103.723 90.1854L104.175 89.9376L104.628 89.6703L105.08 89.3849L105.533 89.0832L105.985 88.767L106.438 88.4383L106.89 88.0989L107.342 87.7509L107.795 87.3964L108.247 87.0377L108.7 86.6767L109.152 86.3157L109.605 85.9569L110.057 85.6025L110.509 85.2545L110.962 84.9151L111.414 84.5864L111.867 84.2702L112.319 83.9685L112.772 83.6831L113.224 83.4157L113.676 83.168L114.129 82.9413L114.581 82.7371L115.034 82.5566L115.486 82.4008L115.939 82.2706L116.391 82.1668L116.843 82.0899L117.296 82.0405L117.748 82.0187L118.201 82.0247L118.653 82.0584L119.106 82.1194L119.558 82.2074L120.01 82.3218L120.463 82.4618L120.915 82.6266L121.368 82.815L121.82 83.0258L122.273 83.2578L122.725 83.5094L123.177 83.7789L123.63 84.0648L124.082 84.3652L124.535 84.6782L124.987 85.0018L125.44 85.334L125.892 85.6726L126.344 86.0156L126.797 86.3608L127.249 86.706L127.702 87.049L128.154 87.3876L128.607 87.7198L129.059 88.0434L129.512 88.3564L129.964 88.6568L130.416 88.9427L130.869 89.2122L131.321 89.4638L131.774 89.6958L132.226 89.9066L132.679 90.095L133.131 90.2598L133.583 90.3998L134.036 90.5142L134.488 90.6022L134.941 90.6632L135.393 90.6969L135.846 90.7029L136.298 90.6811L136.75 90.6317L137.203 90.5548L137.655 90.451L138.108 90.3208L138.56 90.165L139.013 89.9845L139.465 89.7803L139.917 89.5536L140.37 89.3059L140.822 89.0385L141.275 88.7531L141.727 88.4514L142.18 88.1353L142.632 87.8065L143.084 87.4671L143.537 87.1191L143.989 86.7647L144.442 86.4059L144.894 86.0449L145.347 85.6839L145.799 85.3252L146.251 84.9707L146.704 84.6227L147.156 84.2834L147.609 83.9546L148.061 83.6384L148.514 83.3367L148.966 83.0513L149.418 82.784L149.871 82.5362L150.323 82.3096L150.776 82.1054L151.228 81.9248L151.681 81.769L152.133 81.6388L152.585 81.535L153.038 81.4582L153.49 81.4087L153.943 81.387L154.395 81.3929L154.848 81.4266L155.3 81.4876L155.752 81.5756L156.205 81.69L156.657 81.8301L157.11 81.9948L157.562 82.1832L158.015 82.3941L158.467 82.626L158.92 82.8776L159.372 83.1472L159.824 83.4331L160.277 83.7335L160.729 84.0464L161.182 84.37L161.634 84.7022L162.087 85.0409L162.539 85.3839L162.991 85.729L163.444 86.0742L163.896 86.4172L164.349 86.7558L164.801 87.088L165.254 87.4116L165.706 87.7246L166.158 88.025L166.611 88.3109L167.063 88.5805L167.516 88.832L167.968 89.064L168.421 89.2748L168.873 89.4632L169.325 89.628L169.778 89.768L170.23 89.8824L170.683 89.9704L171.135 90.0315L171.588 90.0651L172.04 90.0711L172.492 90.0493L172.945 89.9999L173.397 89.9231L173.85 89.8192L174.302 89.6891L174.755 89.5332L175.207 89.3527L175.659 89.1485L176.112 88.9218L176.564 88.6741L177.017 88.4067L177.469 88.1213L177.922 87.8197L178.374 87.5035L178.826 87.1747L179.279 86.8353L179.731 86.4873L180.184 86.1329L180.636 85.7741" stroke="white" stroke-width="8" stroke-miterlimit="10" stroke-linecap="round" stroke-linejoin="round"/>
<path d="M0.116211 136.572L0.568642 136.211L1.02107 135.852L1.4735 135.498L1.92594 135.15L2.37837 134.81L2.8308 134.482L3.28323 134.165L3.73566 133.864L4.18809 133.578L4.64052 133.311L5.09295 133.063L5.54538 132.837L5.99781 132.632L6.45025 132.452L6.90268 132.296L7.35511 132.166L7.80754 132.062L8.25997 131.985L8.7124 131.936L9.16483 131.914L9.61726 131.92L10.0697 131.954L10.5221 132.015L10.9746 132.103L11.427 132.217L11.8794 132.357L12.3319 132.522L12.7843 132.71L13.2367 132.921L13.6891 133.153L14.1416 133.405L14.594 133.674L15.0464 133.96L15.4989 134.261L15.9513 134.574L16.4037 134.897L16.8562 135.229L17.3086 135.568L17.761 135.911L18.2135 136.256L18.6659 136.601L19.1183 136.944L19.5707 137.283L20.0232 137.615L20.4756 137.939L20.928 138.252L21.3805 138.552L21.8329 138.838L22.2853 139.108L22.7378 139.359L23.1902 139.591L23.6426 139.802L24.0951 139.99L24.5475 140.155L24.9999 140.295L25.4524 140.41L25.9048 140.498L26.3572 140.559L26.8096 140.592L27.2621 140.598L27.7145 140.576L28.1669 140.527L28.6194 140.45L29.0718 140.346L29.5242 140.216L29.9767 140.06L30.4291 139.88L30.8815 139.676L31.334 139.449L31.7864 139.201L32.2388 138.934L32.6912 138.648L33.1437 138.347L33.5961 138.031L34.0485 137.702L34.501 137.362L34.9534 137.014L35.4058 136.66L35.8583 136.301L36.3107 135.94L36.7631 135.579L37.2156 135.22L37.668 134.866L38.1204 134.518L38.5729 134.179L39.0253 133.85L39.4777 133.534L39.9301 133.232L40.3826 132.947L40.835 132.679L41.2874 132.432L41.7399 132.205L42.1923 132.001L42.6447 131.82L43.0972 131.664L43.5496 131.534L44.002 131.43L44.4545 131.353L44.9069 131.304L45.3593 131.282L45.8118 131.288L46.2642 131.322L46.7166 131.383L47.169 131.471L47.6215 131.585L48.0739 131.725L48.5263 131.89L48.9788 132.079L49.4312 132.289L49.8836 132.521L50.3361 132.773L50.7885 133.042L51.2409 133.328L51.6934 133.629L52.1458 133.942L52.5982 134.265L53.0506 134.598L53.5031 134.936L53.9555 135.279L54.4079 135.624L54.8604 135.97L55.3128 136.313L55.7652 136.651L56.2177 136.983L56.6701 137.307L57.1225 137.62L57.575 137.92L58.0274 138.206L58.4798 138.476L58.9322 138.727L59.3847 138.959L59.8371 139.17L60.2895 139.359L60.742 139.523L61.1944 139.663L61.6468 139.778L62.0993 139.866L62.5517 139.927L63.0041 139.96L63.4566 139.966L63.909 139.945L64.3614 139.895L64.8139 139.818L65.2663 139.715L65.7187 139.584L66.1711 139.429L66.6236 139.248L67.076 139.044L67.5284 138.817L67.9809 138.569L68.4333 138.302L68.8857 138.017L69.3382 137.715L69.7906 137.399L70.243 137.07L70.6955 136.731L71.1479 136.383L71.6003 136.028L72.0528 135.669L72.5052 135.308L72.9576 134.948L73.41 134.589L73.8625 134.234L74.3149 133.886L74.7673 133.547L75.2198 133.218L75.6722 132.902L76.1246 132.6L76.5771 132.315L77.0295 132.048L77.4819 131.8L77.9344 131.573L78.3868 131.369L78.8392 131.188L79.2916 131.033L79.7441 130.902L80.1965 130.799L80.6489 130.722L81.1014 130.672L81.5538 130.651L82.0062 130.656L82.4587 130.69L82.9111 130.751L83.3635 130.839L83.816 130.954L84.2684 131.094L84.7208 131.258L85.1733 131.447L85.6257 131.658L86.0781 131.89L86.5305 132.141L86.983 132.411L87.4354 132.697L87.8878 132.997L88.3403 133.31L88.7927 133.634L89.2451 133.966L89.6976 134.304L90.15 134.647L90.6024 134.993L91.0549 135.338L91.5073 135.681L91.9597 136.019L92.4122 136.352L92.8646 136.675L93.317 136.988L93.7694 137.289L94.2219 137.574L94.6743 137.844L95.1267 138.096L95.5792 138.328L96.0316 138.538L96.484 138.727L96.9365 138.892L97.3889 139.032L97.8413 139.146L98.2938 139.234L98.7462 139.295L99.1986 139.329L99.651 139.335L100.103 139.313L100.556 139.263L101.008 139.187L101.461 139.083L101.913 138.953L102.366 138.797L102.818 138.616L103.27 138.412L103.723 138.185L104.175 137.938L104.628 137.67L105.08 137.385L105.533 137.083L105.985 136.767L106.438 136.438L106.89 136.099L107.342 135.751L107.795 135.396L108.247 135.038L108.7 134.677L109.152 134.316L109.605 133.957L110.057 133.602L110.509 133.255L110.962 132.915L111.414 132.586L111.867 132.27L112.319 131.968L112.772 131.683L113.224 131.416L113.676 131.168L114.129 130.941L114.581 130.737L115.034 130.557L115.486 130.401L115.939 130.271L116.391 130.167L116.843 130.09L117.296 130.041L117.748 130.019L118.201 130.025L118.653 130.058L119.106 130.119L119.558 130.207L120.01 130.322L120.463 130.462L120.915 130.627L121.368 130.815L121.82 131.026L122.273 131.258L122.725 131.509L123.177 131.779L123.63 132.065L124.082 132.365L124.535 132.678L124.987 133.002L125.44 133.334L125.892 133.673L126.344 134.016L126.797 134.361L127.249 134.706L127.702 135.049L128.154 135.388L128.607 135.72L129.059 136.043L129.512 136.356L129.964 136.657L130.416 136.943L130.869 137.212L131.321 137.464L131.774 137.696L132.226 137.907L132.679 138.095L133.131 138.26L133.583 138.4L134.036 138.514L134.488 138.602L134.941 138.663L135.393 138.697L135.846 138.703L136.298 138.681L136.75 138.632L137.203 138.555L137.655 138.451L138.108 138.321L138.56 138.165L139.013 137.984L139.465 137.78L139.917 137.554L140.37 137.306L140.822 137.039L141.275 136.753L141.727 136.451L142.18 136.135L142.632 135.806L143.084 135.467L143.537 135.119L143.989 134.765L144.442 134.406L144.894 134.045L145.347 133.684L145.799 133.325L146.251 132.971L146.704 132.623L147.156 132.283L147.609 131.955L148.061 131.638L148.514 131.337L148.966 131.051L149.418 130.784L149.871 130.536L150.323 130.31L150.776 130.105L151.228 129.925L151.681 129.769L152.133 129.639L152.585 129.535L153.038 129.458L153.49 129.409L153.943 129.387L154.395 129.393L154.848 129.427L155.3 129.488L155.752 129.576L156.205 129.69L156.657 129.83L157.11 129.995L157.562 130.183L158.015 130.394L158.467 130.626L158.92 130.878L159.372 131.147L159.824 131.433L160.277 131.733L160.729 132.046L161.182 132.37L161.634 132.702L162.087 133.041L162.539 133.384L162.991 133.729L163.444 134.074L163.896 134.417L164.349 134.756L164.801 135.088L165.254 135.412L165.706 135.725L166.158 136.025L166.611 136.311L167.063 136.58L167.516 136.832L167.968 137.064L168.421 137.275L168.873 137.463L169.325 137.628L169.778 137.768L170.23 137.882L170.683 137.97L171.135 138.031L171.588 138.065L172.04 138.071L172.492 138.049L172.945 138L173.397 137.923L173.85 137.819L174.302 137.689L174.755 137.533L175.207 137.353L175.659 137.148L176.112 136.922L176.564 136.674L177.017 136.407L177.469 136.121L177.922 135.82L178.374 135.503L178.826 135.175L179.279 134.835L179.731 134.487L180.184 134.133L180.636 133.774" stroke="white" stroke-width="8" stroke-miterlimit="10" stroke-linecap="round" stroke-linejoin="round"/>
<path d="M0.116211 184.572L0.568642 184.211L1.02107 183.852L1.4735 183.498L1.92594 183.15L2.37837 182.81L2.8308 182.482L3.28323 182.165L3.73566 181.864L4.18809 181.578L4.64052 181.311L5.09295 181.063L5.54538 180.837L5.99781 180.632L6.45025 180.452L6.90268 180.296L7.35511 180.166L7.80754 180.062L8.25997 179.985L8.7124 179.936L9.16483 179.914L9.61726 179.92L10.0697 179.954L10.5221 180.015L10.9746 180.103L11.427 180.217L11.8794 180.357L12.3319 180.522L12.7843 180.71L13.2367 180.921L13.6891 181.153L14.1416 181.405L14.594 181.674L15.0464 181.96L15.4989 182.261L15.9513 182.574L16.4037 182.897L16.8562 183.229L17.3086 183.568L17.761 183.911L18.2135 184.256L18.6659 184.601L19.1183 184.944L19.5707 185.283L20.0232 185.615L20.4756 185.939L20.928 186.252L21.3805 186.552L21.8329 186.838L22.2853 187.108L22.7378 187.359L23.1902 187.591L23.6426 187.802L24.0951 187.99L24.5475 188.155L24.9999 188.295L25.4524 188.41L25.9048 188.498L26.3572 188.559L26.8096 188.592L27.2621 188.598L27.7145 188.576L28.1669 188.527L28.6194 188.45L29.0718 188.346L29.5242 188.216L29.9767 188.06L30.4291 187.88L30.8815 187.676L31.334 187.449L31.7864 187.201L32.2388 186.934L32.6912 186.648L33.1437 186.347L33.5961 186.031L34.0485 185.702L34.501 185.362L34.9534 185.014L35.4058 184.66L35.8583 184.301L36.3107 183.94L36.7631 183.579L37.2156 183.22L37.668 182.866L38.1204 182.518L38.5729 182.179L39.0253 181.85L39.4777 181.534L39.9301 181.232L40.3826 180.947L40.835 180.679L41.2874 180.432L41.7399 180.205L42.1923 180.001L42.6447 179.82L43.0972 179.664L43.5496 179.534L44.002 179.43L44.4545 179.353L44.9069 179.304L45.3593 179.282L45.8118 179.288L46.2642 179.322L46.7166 179.383L47.169 179.471L47.6215 179.585L48.0739 179.725L48.5263 179.89L48.9788 180.079L49.4312 180.289L49.8836 180.521L50.3361 180.773L50.7885 181.042L51.2409 181.328L51.6934 181.629L52.1458 181.942L52.5982 182.265L53.0506 182.598L53.5031 182.936L53.9555 183.279L54.4079 183.624L54.8604 183.97L55.3128 184.313L55.7652 184.651L56.2177 184.983L56.6701 185.307L57.1225 185.62L57.575 185.92L58.0274 186.206L58.4798 186.476L58.9322 186.727L59.3847 186.959L59.8371 187.17L60.2895 187.359L60.742 187.523L61.1944 187.663L61.6468 187.778L62.0993 187.866L62.5517 187.927L63.0041 187.96L63.4566 187.966L63.909 187.945L64.3614 187.895L64.8139 187.818L65.2663 187.715L65.7187 187.584L66.1711 187.429L66.6236 187.248L67.076 187.044L67.5284 186.817L67.9809 186.569L68.4333 186.302L68.8857 186.017L69.3382 185.715L69.7906 185.399L70.243 185.07L70.6955 184.731L71.1479 184.383L71.6003 184.028L72.0528 183.669L72.5052 183.308L72.9576 182.948L73.41 182.589L73.8625 182.234L74.3149 181.886L74.7673 181.547L75.2198 181.218L75.6722 180.902L76.1246 180.6L76.5771 180.315L77.0295 180.048L77.4819 179.8L77.9344 179.573L78.3868 179.369L78.8392 179.188L79.2916 179.033L79.7441 178.902L80.1965 178.799L80.6489 178.722L81.1014 178.672L81.5538 178.651L82.0062 178.656L82.4587 178.69L82.9111 178.751L83.3635 178.839L83.816 178.954L84.2684 179.094L84.7208 179.258L85.1733 179.447L85.6257 179.658L86.0781 179.89L86.5305 180.141L86.983 180.411L87.4354 180.697L87.8878 180.997L88.3403 181.31L88.7927 181.634L89.2451 181.966L89.6976 182.304L90.15 182.647L90.6024 182.993L91.0549 183.338L91.5073 183.681L91.9597 184.019L92.4122 184.352L92.8646 184.675L93.317 184.988L93.7694 185.289L94.2219 185.574L94.6743 185.844L95.1267 186.096L95.5792 186.328L96.0316 186.538L96.484 186.727L96.9365 186.892L97.3889 187.032L97.8413 187.146L98.2938 187.234L98.7462 187.295L99.1986 187.329L99.651 187.335L100.103 187.313L100.556 187.263L101.008 187.187L101.461 187.083L101.913 186.953L102.366 186.797L102.818 186.616L103.27 186.412L103.723 186.185L104.175 185.938L104.628 185.67L105.08 185.385L105.533 185.083L105.985 184.767L106.438 184.438L106.89 184.099L107.342 183.751L107.795 183.396L108.247 183.038L108.7 182.677L109.152 182.316L109.605 181.957L110.057 181.602L110.509 181.255L110.962 180.915L111.414 180.586L111.867 180.27L112.319 179.968L112.772 179.683L113.224 179.416L113.676 179.168L114.129 178.941L114.581 178.737L115.034 178.557L115.486 178.401L115.939 178.271L116.391 178.167L116.843 178.09L117.296 178.041L117.748 178.019L118.201 178.025L118.653 178.058L119.106 178.119L119.558 178.207L120.01 178.322L120.463 178.462L120.915 178.627L121.368 178.815L121.82 179.026L122.273 179.258L122.725 179.509L123.177 179.779L123.63 180.065L124.082 180.365L124.535 180.678L124.987 181.002L125.44 181.334L125.892 181.673L126.344 182.016L126.797 182.361L127.249 182.706L127.702 183.049L128.154 183.388L128.607 183.72L129.059 184.043L129.512 184.356L129.964 184.657L130.416 184.943L130.869 185.212L131.321 185.464L131.774 185.696L132.226 185.907L132.679 186.095L133.131 186.26L133.583 186.4L134.036 186.514L134.488 186.602L134.941 186.663L135.393 186.697L135.846 186.703L136.298 186.681L136.75 186.632L137.203 186.555L137.655 186.451L138.108 186.321L138.56 186.165L139.013 185.984L139.465 185.78L139.917 185.554L140.37 185.306L140.822 185.039L141.275 184.753L141.727 184.451L142.18 184.135L142.632 183.806L143.084 183.467L143.537 183.119L143.989 182.765L144.442 182.406L144.894 182.045L145.347 181.684L145.799 181.325L146.251 180.971L146.704 180.623L147.156 180.283L147.609 179.955L148.061 179.638L148.514 179.337L148.966 179.051L149.418 178.784L149.871 178.536L150.323 178.31L150.776 178.105L151.228 177.925L151.681 177.769L152.133 177.639L152.585 177.535L153.038 177.458L153.49 177.409L153.943 177.387L154.395 177.393L154.848 177.427L155.3 177.488L155.752 177.576L156.205 177.69L156.657 177.83L157.11 177.995L157.562 178.183L158.015 178.394L158.467 178.626L158.92 178.878L159.372 179.147L159.824 179.433L160.277 179.733L160.729 180.046L161.182 180.37L161.634 180.702L162.087 181.041L162.539 181.384L162.991 181.729L163.444 182.074L163.896 182.417L164.349 182.756L164.801 183.088L165.254 183.412L165.706 183.725L166.158 184.025L166.611 184.311L167.063 184.58L167.516 184.832L167.968 185.064L168.421 185.275L168.873 185.463L169.325 185.628L169.778 185.768L170.23 185.882L170.683 185.97L171.135 186.031L171.588 186.065L172.04 186.071L172.492 186.049L172.945 186L173.397 185.923L173.85 185.819L174.302 185.689L174.755 185.533L175.207 185.353L175.659 185.148L176.112 184.922L176.564 184.674L177.017 184.407L177.469 184.121L177.922 183.82L178.374 183.503L178.826 183.175L179.279 182.835L179.731 182.487L180.184 182.133L180.636 181.774" stroke="white" stroke-width="8" stroke-miterlimit="10" stroke-linecap="round" stroke-linejoin="round"/>
<path d="M0.116211 232.572L0.568642 232.211L1.02107 231.852L1.4735 231.498L1.92594 231.15L2.37837 230.81L2.8308 230.482L3.28323 230.165L3.73566 229.864L4.18809 229.578L4.64052 229.311L5.09295 229.063L5.54538 228.837L5.99781 228.632L6.45025 228.452L6.90268 228.296L7.35511 228.166L7.80754 228.062L8.25997 227.985L8.7124 227.936L9.16483 227.914L9.61726 227.92L10.0697 227.954L10.5221 228.015L10.9746 228.103L11.427 228.217L11.8794 228.357L12.3319 228.522L12.7843 228.71L13.2367 228.921L13.6891 229.153L14.1416 229.405L14.594 229.674L15.0464 229.96L15.4989 230.261L15.9513 230.574L16.4037 230.897L16.8562 231.229L17.3086 231.568L17.761 231.911L18.2135 232.256L18.6659 232.601L19.1183 232.944L19.5707 233.283L20.0232 233.615L20.4756 233.939L20.928 234.252L21.3805 234.552L21.8329 234.838L22.2853 235.108L22.7378 235.359L23.1902 235.591L23.6426 235.802L24.0951 235.99L24.5475 236.155L24.9999 236.295L25.4524 236.41L25.9048 236.498L26.3572 236.559L26.8096 236.592L27.2621 236.598L27.7145 236.576L28.1669 236.527L28.6194 236.45L29.0718 236.346L29.5242 236.216L29.9767 236.06L30.4291 235.88L30.8815 235.676L31.334 235.449L31.7864 235.201L32.2388 234.934L32.6912 234.648L33.1437 234.347L33.5961 234.031L34.0485 233.702L34.501 233.362L34.9534 233.014L35.4058 232.66L35.8583 232.301L36.3107 231.94L36.7631 231.579L37.2156 231.22L37.668 230.866L38.1204 230.518L38.5729 230.179L39.0253 229.85L39.4777 229.534L39.9301 229.232L40.3826 228.947L40.835 228.679L41.2874 228.432L41.7399 228.205L42.1923 228.001L42.6447 227.82L43.0972 227.664L43.5496 227.534L44.002 227.43L44.4545 227.353L44.9069 227.304L45.3593 227.282L45.8118 227.288L46.2642 227.322L46.7166 227.383L47.169 227.471L47.6215 227.585L48.0739 227.725L48.5263 227.89L48.9788 228.079L49.4312 228.289L49.8836 228.521L50.3361 228.773L50.7885 229.042L51.2409 229.328L51.6934 229.629L52.1458 229.942L52.5982 230.265L53.0506 230.598L53.5031 230.936L53.9555 231.279L54.4079 231.624L54.8604 231.97L55.3128 232.313L55.7652 232.651L56.2177 232.983L56.6701 233.307L57.1225 233.62L57.575 233.92L58.0274 234.206L58.4798 234.476L58.9322 234.727L59.3847 234.959L59.8371 235.17L60.2895 235.359L60.742 235.523L61.1944 235.663L61.6468 235.778L62.0993 235.866L62.5517 235.927L63.0041 235.96L63.4566 235.966L63.909 235.945L64.3614 235.895L64.8139 235.818L65.2663 235.715L65.7187 235.584L66.1711 235.429L66.6236 235.248L67.076 235.044L67.5284 234.817L67.9809 234.569L68.4333 234.302L68.8857 234.017L69.3382 233.715L69.7906 233.399L70.243 233.07L70.6955 232.731L71.1479 232.383L71.6003 232.028L72.0528 231.669L72.5052 231.308L72.9576 230.948L73.41 230.589L73.8625 230.234L74.3149 229.886L74.7673 229.547L75.2198 229.218L75.6722 228.902L76.1246 228.6L76.5771 228.315L77.0295 228.048L77.4819 227.8L77.9344 227.573L78.3868 227.369L78.8392 227.188L79.2916 227.033L79.7441 226.902L80.1965 226.799L80.6489 226.722L81.1014 226.672L81.5538 226.651L82.0062 226.656L82.4587 226.69L82.9111 226.751L83.3635 226.839L83.816 226.954L84.2684 227.094L84.7208 227.258L85.1733 227.447L85.6257 227.658L86.0781 227.89L86.5305 228.141L86.983 228.411L87.4354 228.697L87.8878 228.997L88.3403 229.31L88.7927 229.634L89.2451 229.966L89.6976 230.304L90.15 230.647L90.6024 230.993L91.0549 231.338L91.5073 231.681L91.9597 232.019L92.4122 232.352L92.8646 232.675L93.317 232.988L93.7694 233.289L94.2219 233.574L94.6743 233.844L95.1267 234.096L95.5792 234.328L96.0316 234.538L96.484 234.727L96.9365 234.892L97.3889 235.032L97.8413 235.146L98.2938 235.234L98.7462 235.295L99.1986 235.329L99.651 235.335L100.103 235.313L100.556 235.263L101.008 235.187L101.461 235.083L101.913 234.953L102.366 234.797L102.818 234.616L103.27 234.412L103.723 234.185L104.175 233.938L104.628 233.67L105.08 233.385L105.533 233.083L105.985 232.767L106.438 232.438L106.89 232.099L107.342 231.751L107.795 231.396L108.247 231.038L108.7 230.677L109.152 230.316L109.605 229.957L110.057 229.602L110.509 229.255L110.962 228.915L111.414 228.586L111.867 228.27L112.319 227.968L112.772 227.683L113.224 227.416L113.676 227.168L114.129 226.941L114.581 226.737L115.034 226.557L115.486 226.401L115.939 226.271L116.391 226.167L116.843 226.09L117.296 226.041L117.748 226.019L118.201 226.025L118.653 226.058L119.106 226.119L119.558 226.207L120.01 226.322L120.463 226.462L120.915 226.627L121.368 226.815L121.82 227.026L122.273 227.258L122.725 227.509L123.177 227.779L123.63 228.065L124.082 228.365L124.535 228.678L124.987 229.002L125.44 229.334L125.892 229.673L126.344 230.016L126.797 230.361L127.249 230.706L127.702 231.049L128.154 231.388L128.607 231.72L129.059 232.043L129.512 232.356L129.964 232.657L130.416 232.943L130.869 233.212L131.321 233.464L131.774 233.696L132.226 233.907L132.679 234.095L133.131 234.26L133.583 234.4L134.036 234.514L134.488 234.602L134.941 234.663L135.393 234.697L135.846 234.703L136.298 234.681L136.75 234.632L137.203 234.555L137.655 234.451L138.108 234.321L138.56 234.165L139.013 233.984L139.465 233.78L139.917 233.554L140.37 233.306L140.822 233.039L141.275 232.753L141.727 232.451L142.18 232.135L142.632 231.806L143.084 231.467L143.537 231.119L143.989 230.765L144.442 230.406L144.894 230.045L145.347 229.684L145.799 229.325L146.251 228.971L146.704 228.623L147.156 228.283L147.609 227.955L148.061 227.638L148.514 227.337L148.966 227.051L149.418 226.784L149.871 226.536L150.323 226.31L150.776 226.105L151.228 225.925L151.681 225.769L152.133 225.639L152.585 225.535L153.038 225.458L153.49 225.409L153.943 225.387L154.395 225.393L154.848 225.427L155.3 225.488L155.752 225.576L156.205 225.69L156.657 225.83L157.11 225.995L157.562 226.183L158.015 226.394L158.467 226.626L158.92 226.878L159.372 227.147L159.824 227.433L160.277 227.733L160.729 228.046L161.182 228.37L161.634 228.702L162.087 229.041L162.539 229.384L162.991 229.729L163.444 230.074L163.896 230.417L164.349 230.756L164.801 231.088L165.254 231.412L165.706 231.725L166.158 232.025L166.611 232.311L167.063 232.58L167.516 232.832L167.968 233.064L168.421 233.275L168.873 233.463L169.325 233.628L169.778 233.768L170.23 233.882L170.683 233.97L171.135 234.031L171.588 234.065L172.04 234.071L172.492 234.049L172.945 234L173.397 233.923L173.85 233.819L174.302 233.689L174.755 233.533L175.207 233.353L175.659 233.148L176.112 232.922L176.564 232.674L177.017 232.407L177.469 232.121L177.922 231.82L178.374 231.503L178.826 231.175L179.279 230.835L179.731 230.487L180.184 230.133L180.636 229.774" stroke="white" stroke-width="8" stroke-miterlimit="10" stroke-linecap="round" stroke-linejoin="round"/>
</g>
<defs>
<clipPath id="clip0_61_549">
<rect width="181" height="269" fill="white" transform="translate(0.116211 0.496582)"/>
</clipPath>
</defs>
</svg>
