<svg width="180" height="270" viewBox="0 0 180 270" fill="none" xmlns="http://www.w3.org/2000/svg">
<rect width="180" height="270" fill="rgba(229, 226, 226, 0.9)"/>
<g clip-path="url(#clip0_61_599)">
<rect width="180" height="270" fill="#E5E2E2"/>
<path d="M16.2368 -7.39795C21.2845 -3.54268 25.3758 1.42808 28.1921 7.12709C31.0084 12.8261 32.4735 19.0995 32.4735 25.4588C32.4735 31.8181 31.0084 38.0916 28.1921 43.7906C25.3758 49.4896 21.2845 54.4603 16.2368 58.3155" stroke="white" stroke-width="6" stroke-miterlimit="10"/>
<path d="M65.9772 58.5911C58.7944 64.0093 50.0374 66.9201 41.0465 66.878C32.0557 66.8359 23.3263 63.8432 16.1943 58.3579" stroke="white" stroke-width="6" stroke-miterlimit="10"/>
<path d="M65.9771 -7.63062C71.1286 -3.78989 75.3126 1.2043 78.1951 6.95329C81.0776 12.7023 82.5789 19.0468 82.5789 25.4805C82.5789 31.9141 81.0776 38.2587 78.1951 44.0077C75.3126 49.7567 71.1286 54.7509 65.9771 58.5916" stroke="white" stroke-width="6" stroke-miterlimit="10"/>
<path d="M16.2367 -7.39795C11.189 -3.54268 7.09767 1.42808 4.28141 7.12709C1.46515 12.8261 0 19.0995 0 25.4588C0 31.8181 1.46515 38.0916 4.28141 43.7906C7.09767 49.4896 11.189 54.4603 16.2367 58.3155" stroke="white" stroke-width="6" stroke-miterlimit="10"/>
<path d="M115.675 -7.39795C120.723 -3.54268 124.814 1.42808 127.63 7.12709C130.446 12.8261 131.911 19.0995 131.911 25.4588C131.911 31.8181 130.446 38.0916 127.63 43.7906C124.814 49.4896 120.723 54.4603 115.675 58.3155" stroke="white" stroke-width="6" stroke-miterlimit="10"/>
<path d="M65.9768 -7.63062C60.8291 -3.78723 56.6487 1.20788 53.7688 6.95652C50.8889 12.7052 49.3892 19.0483 49.3892 25.4805C49.3892 31.9126 50.8889 38.2558 53.7688 44.0044C56.6487 49.7531 60.8291 54.7482 65.9768 58.5916" stroke="white" stroke-width="6" stroke-miterlimit="10"/>
<path d="M115.675 58.3579C108.543 63.8432 99.8141 66.8359 90.8232 66.878C81.8324 66.9201 73.0754 64.0093 65.8926 58.5911" stroke="white" stroke-width="6" stroke-miterlimit="10"/>
<path d="M165.564 58.3579C158.428 63.8449 149.695 66.8385 140.701 66.8806C131.706 66.9227 122.946 64.011 115.76 58.5911" stroke="white" stroke-width="6" stroke-miterlimit="10"/>
<path d="M115.675 -7.39795C110.631 -3.54015 106.543 1.43146 103.729 7.13013C100.915 12.8288 99.4517 19.1009 99.4517 25.4588C99.4517 31.8166 100.915 38.0888 103.729 43.7875C106.543 49.4862 110.631 54.4577 115.675 58.3155" stroke="white" stroke-width="6" stroke-miterlimit="10"/>
<path d="M165.417 -7.39795C170.464 -3.54268 174.555 1.42808 177.372 7.12709C180.188 12.8261 181.653 19.0995 181.653 25.4588C181.653 31.8181 180.188 38.0916 177.372 43.7906C174.555 49.4896 170.464 54.4603 165.417 58.3155" stroke="white" stroke-width="6" stroke-miterlimit="10"/>
<path d="M215.114 58.5911C207.932 64.0093 199.175 66.9201 190.184 66.878C181.193 66.8359 172.463 63.8432 165.332 58.3579" stroke="white" stroke-width="6" stroke-miterlimit="10"/>
<path d="M165.416 -7.39795C160.368 -3.54268 156.277 1.42808 153.461 7.12709C150.644 12.8261 149.179 19.0995 149.179 25.4588C149.179 31.8181 150.644 38.0916 153.461 43.7906C156.277 49.4896 160.368 54.4603 165.416 58.3155" stroke="white" stroke-width="6" stroke-miterlimit="10"/>
<path d="M16.2368 62.8521C21.2845 66.7073 25.3758 71.6781 28.1921 77.3771C31.0084 83.0761 32.4735 89.3495 32.4735 95.7088C32.4735 102.068 31.0084 108.342 28.1921 114.041C25.3758 119.74 21.2845 124.71 16.2368 128.566" stroke="white" stroke-width="6" stroke-miterlimit="10"/>
<path d="M65.9772 128.842C58.7944 134.26 50.0374 137.171 41.0465 137.129C32.0557 137.086 23.3263 134.094 16.1943 128.608" stroke="white" stroke-width="6" stroke-miterlimit="10"/>
<path d="M65.9771 62.6191C71.1286 66.4599 75.3126 71.4541 78.1951 77.203C81.0776 82.952 82.5789 89.2966 82.5789 95.7302C82.5789 102.164 81.0776 108.508 78.1951 114.257C75.3126 120.006 71.1286 125.001 65.9771 128.841" stroke="white" stroke-width="6" stroke-miterlimit="10"/>
<path d="M16.2367 62.8521C11.189 66.7073 7.09767 71.6781 4.28141 77.3771C1.46515 83.0761 0 89.3495 0 95.7088C0 102.068 1.46515 108.342 4.28141 114.041C7.09767 119.74 11.189 124.71 16.2367 128.566" stroke="white" stroke-width="6" stroke-miterlimit="10"/>
<path d="M115.675 62.8521C120.723 66.7073 124.814 71.6781 127.63 77.3771C130.446 83.0761 131.911 89.3495 131.911 95.7088C131.911 102.068 130.446 108.342 127.63 114.041C124.814 119.74 120.723 124.71 115.675 128.566" stroke="white" stroke-width="6" stroke-miterlimit="10"/>
<path d="M65.9768 62.6191C60.8291 66.4625 56.6487 71.4576 53.7688 77.2063C50.8889 82.9549 49.3892 89.2981 49.3892 95.7302C49.3892 102.162 50.8889 108.506 53.7688 114.254C56.6487 120.003 60.8291 124.998 65.9768 128.841" stroke="white" stroke-width="6" stroke-miterlimit="10"/>
<path d="M115.675 128.608C108.543 134.094 99.8141 137.086 90.8232 137.129C81.8324 137.171 73.0754 134.26 65.8926 128.842" stroke="white" stroke-width="6" stroke-miterlimit="10"/>
<path d="M165.564 128.608C158.428 134.095 149.695 137.089 140.701 137.131C131.706 137.173 122.946 134.262 115.76 128.842" stroke="white" stroke-width="6" stroke-miterlimit="10"/>
<path d="M115.675 62.8521C110.631 66.7099 106.543 71.6815 103.729 77.3801C100.915 83.0788 99.4517 89.3509 99.4517 95.7088C99.4517 102.067 100.915 108.339 103.729 114.038C106.543 119.736 110.631 124.708 115.675 128.566" stroke="white" stroke-width="6" stroke-miterlimit="10"/>
<path d="M165.417 62.8521C170.464 66.7073 174.555 71.6781 177.372 77.3771C180.188 83.0761 181.653 89.3495 181.653 95.7088C181.653 102.068 180.188 108.342 177.372 114.041C174.555 119.74 170.464 124.71 165.417 128.566" stroke="white" stroke-width="6" stroke-miterlimit="10"/>
<path d="M215.114 128.842C207.932 134.26 199.175 137.171 190.184 137.129C181.193 137.086 172.463 134.094 165.332 128.608" stroke="white" stroke-width="6" stroke-miterlimit="10"/>
<path d="M165.416 62.8521C160.368 66.7073 156.277 71.6781 153.461 77.3771C150.644 83.0761 149.179 89.3495 149.179 95.7088C149.179 102.068 150.644 108.342 153.461 114.041C156.277 119.74 160.368 124.71 165.416 128.566" stroke="white" stroke-width="6" stroke-miterlimit="10"/>
<path d="M16.2368 133.102C21.2845 136.957 25.3758 141.928 28.1921 147.627C31.0084 153.326 32.4735 159.599 32.4735 165.959C32.4735 172.318 31.0084 178.591 28.1921 184.29C25.3758 189.989 21.2845 194.96 16.2368 198.815" stroke="white" stroke-width="6" stroke-miterlimit="10"/>
<path d="M65.9772 199.091C58.7944 204.51 50.0374 207.42 41.0465 207.378C32.0557 207.336 23.3263 204.343 16.1943 198.858" stroke="white" stroke-width="6" stroke-miterlimit="10"/>
<path d="M65.9771 132.869C71.1286 136.71 75.3126 141.704 78.1951 147.453C81.0776 153.202 82.5789 159.547 82.5789 165.98C82.5789 172.414 81.0776 178.759 78.1951 184.508C75.3126 190.257 71.1286 195.251 65.9771 199.092" stroke="white" stroke-width="6" stroke-miterlimit="10"/>
<path d="M16.2367 133.102C11.189 136.957 7.09767 141.928 4.28141 147.627C1.46515 153.326 0 159.599 0 165.959C0 172.318 1.46515 178.591 4.28141 184.29C7.09767 189.989 11.189 194.96 16.2367 198.815" stroke="white" stroke-width="6" stroke-miterlimit="10"/>
<path d="M115.675 133.102C120.723 136.957 124.814 141.928 127.63 147.627C130.446 153.326 131.911 159.599 131.911 165.959C131.911 172.318 130.446 178.591 127.63 184.29C124.814 189.989 120.723 194.96 115.675 198.815" stroke="white" stroke-width="6" stroke-miterlimit="10"/>
<path d="M65.9768 132.869C60.8291 136.713 56.6487 141.708 53.7688 147.457C50.8889 153.205 49.3892 159.548 49.3892 165.98C49.3892 172.413 50.8889 178.756 53.7688 184.504C56.6487 190.253 60.8291 195.248 65.9768 199.092" stroke="white" stroke-width="6" stroke-miterlimit="10"/>
<path d="M115.675 198.858C108.543 204.343 99.8141 207.336 90.8232 207.378C81.8324 207.42 73.0754 204.51 65.8926 199.091" stroke="white" stroke-width="6" stroke-miterlimit="10"/>
<path d="M165.564 198.858C158.428 204.345 149.695 207.339 140.701 207.381C131.706 207.423 122.946 204.511 115.76 199.091" stroke="white" stroke-width="6" stroke-miterlimit="10"/>
<path d="M115.675 133.102C110.631 136.96 106.543 141.931 103.729 147.63C100.915 153.329 99.4517 159.601 99.4517 165.959C99.4517 172.316 100.915 178.589 103.729 184.287C106.543 189.986 110.631 194.957 115.675 198.815" stroke="white" stroke-width="6" stroke-miterlimit="10"/>
<path d="M165.417 133.102C170.464 136.957 174.555 141.928 177.372 147.627C180.188 153.326 181.653 159.599 181.653 165.959C181.653 172.318 180.188 178.591 177.372 184.29C174.555 189.989 170.464 194.96 165.417 198.815" stroke="white" stroke-width="6" stroke-miterlimit="10"/>
<path d="M215.114 199.091C207.932 204.51 199.175 207.42 190.184 207.378C181.193 207.336 172.463 204.343 165.332 198.858" stroke="white" stroke-width="6" stroke-miterlimit="10"/>
<path d="M165.416 133.102C160.368 136.957 156.277 141.928 153.461 147.627C150.644 153.326 149.179 159.599 149.179 165.959C149.179 172.318 150.644 178.591 153.461 184.29C156.277 189.989 160.368 194.96 165.416 198.815" stroke="white" stroke-width="6" stroke-miterlimit="10"/>
<path d="M16.2368 203.351C21.2845 207.207 25.3758 212.177 28.1921 217.876C31.0084 223.575 32.4735 229.849 32.4735 236.208C32.4735 242.567 31.0084 248.841 28.1921 254.54C25.3758 260.239 21.2845 265.21 16.2368 269.065" stroke="white" stroke-width="6" stroke-miterlimit="10"/>
<path d="M65.9772 269.341C58.7944 274.759 50.0374 277.67 41.0465 277.628C32.0557 277.585 23.3263 274.593 16.1943 269.107" stroke="white" stroke-width="6" stroke-miterlimit="10"/>
<path d="M65.9771 203.118C71.1286 206.959 75.3126 211.953 78.1951 217.702C81.0776 223.451 82.5789 229.796 82.5789 236.23C82.5789 242.663 81.0776 249.008 78.1951 254.757C75.3126 260.506 71.1286 265.5 65.9771 269.341" stroke="white" stroke-width="6" stroke-miterlimit="10"/>
<path d="M16.2367 203.351C11.189 207.207 7.09767 212.177 4.28141 217.876C1.46515 223.575 0 229.849 0 236.208C0 242.567 1.46515 248.841 4.28141 254.54C7.09767 260.239 11.189 265.21 16.2367 269.065" stroke="white" stroke-width="6" stroke-miterlimit="10"/>
<path d="M115.675 203.351C120.723 207.207 124.814 212.177 127.63 217.876C130.446 223.575 131.911 229.849 131.911 236.208C131.911 242.567 130.446 248.841 127.63 254.54C124.814 260.239 120.723 265.21 115.675 269.065" stroke="white" stroke-width="6" stroke-miterlimit="10"/>
<path d="M65.9768 203.118C60.8291 206.962 56.6487 211.957 53.7688 217.706C50.8889 223.454 49.3892 229.797 49.3892 236.23C49.3892 242.662 50.8889 249.005 53.7688 254.753C56.6487 260.502 60.8291 265.497 65.9768 269.341" stroke="white" stroke-width="6" stroke-miterlimit="10"/>
<path d="M115.675 269.107C108.543 274.593 99.8141 277.585 90.8232 277.628C81.8324 277.67 73.0754 274.759 65.8926 269.341" stroke="white" stroke-width="6" stroke-miterlimit="10"/>
<path d="M165.564 269.107C158.428 274.594 149.695 277.588 140.701 277.63C131.706 277.672 122.946 274.761 115.76 269.341" stroke="white" stroke-width="6" stroke-miterlimit="10"/>
<path d="M115.675 203.351C110.631 207.209 106.543 212.181 103.729 217.879C100.915 223.578 99.4517 229.85 99.4517 236.208C99.4517 242.566 100.915 248.838 103.729 254.537C106.543 260.235 110.631 265.207 115.675 269.065" stroke="white" stroke-width="6" stroke-miterlimit="10"/>
<path d="M165.417 203.351C170.464 207.207 174.555 212.177 177.372 217.876C180.188 223.575 181.653 229.849 181.653 236.208C181.653 242.567 180.188 248.841 177.372 254.54C174.555 260.239 170.464 265.21 165.417 269.065" stroke="white" stroke-width="6" stroke-miterlimit="10"/>
<path d="M215.114 269.341C207.932 274.759 199.175 277.67 190.184 277.628C181.193 277.585 172.463 274.593 165.332 269.107" stroke="white" stroke-width="6" stroke-miterlimit="10"/>
<path d="M165.416 203.351C160.368 207.207 156.277 212.177 153.461 217.876C150.644 223.575 149.179 229.849 149.179 236.208C149.179 242.567 150.644 248.841 153.461 254.54C156.277 260.239 160.368 265.21 165.416 269.065" stroke="white" stroke-width="6" stroke-miterlimit="10"/>
</g>
<defs>
<clipPath id="clip0_61_599">
<rect width="180" height="270" fill="white"/>
</clipPath>
</defs>
</svg>
