<svg width="40" height="42" viewBox="0 0 40 42" fill="none" xmlns="http://www.w3.org/2000/svg">
<path d="M14.511 2.03433L29.0166 10.4092L14.511 18.784L0.00537109 10.4092L14.511 2.03433Z" fill="#D1EAFF"/>
<path d="M0.00537109 10.4089L14.5106 18.7835V41.1157L0.00537109 32.7411V10.4089Z" fill="#A3D5FF"/>
<path d="M14.5107 18.7835L29.016 10.4089V32.7411L14.5107 41.1157V18.7835Z" fill="#007CD9"/>
<path d="M7.67285 4.82458C7.67285 5.91477 8.43822 6.90175 9.67566 7.61618V13.1994C8.43822 12.485 7.67285 11.498 7.67285 10.4078V4.82458Z" fill="#A3D5FF"/>
<path d="M9.67529 7.61623C12.3457 9.15799 16.6753 9.15799 19.3457 7.61623V13.1994C16.6753 14.7412 12.3457 14.7412 9.67529 13.1994V7.61623Z" fill="#A3D5FF"/>
<path d="M21.3485 4.82458C21.3485 5.91477 20.5831 6.90175 19.3457 7.61618V13.1994C20.5831 12.485 21.3485 11.498 21.3485 10.4078V4.82458Z" fill="#007CD9"/>
<path d="M19.3461 7.61634C16.6757 9.1581 12.3461 9.1581 9.67566 7.61634C7.00525 6.07457 7.00525 3.57488 9.67566 2.03312C12.3461 0.49136 16.6757 0.49136 19.3461 2.03312C22.0165 3.57488 22.0165 6.07457 19.3461 7.61634Z" fill="#D1EAFF"/>
<g clip-path="url(#clip0_29569_7717)">
<path d="M-6.37598 10.0574L-6.30841 9.99349L-6.24084 9.93002L-6.17327 9.86737L-6.1057 9.80593L-6.03813 9.74609L-5.97056 9.68826L-5.90299 9.6328L-5.83542 9.5801L-5.76785 9.53051L-5.70028 9.48439L-5.63271 9.44207L-5.56514 9.40387L-5.49757 9.3701L-5.43 9.34104L-5.36243 9.31697L-5.29486 9.29812L-5.22729 9.28474L-5.15972 9.27702L-5.09215 9.27515L-5.02458 9.27929L-4.95701 9.28959L-4.88944 9.30615L-4.82187 9.32906L-4.7543 9.35838L-4.68673 9.39416L-4.61916 9.4364L-4.55159 9.4851L-4.48402 9.54022L-4.41645 9.60168L-4.34888 9.66941L-4.28131 9.74329L-4.21374 9.82318L-4.14617 9.90892L-4.0786 10.0003L-4.01103 10.0972L-3.94346 10.1993L-3.87589 10.3064L-3.80832 10.4182L-3.74074 10.5344L-3.67317 10.6547L-3.6056 10.7789L-3.53803 10.9065L-3.47046 11.0372L-3.40289 11.1707L-3.33532 11.3066L-3.26775 11.4444L-3.20018 11.5839L-3.13261 11.7246L-3.06504 11.866L-2.99747 12.0079L-2.9299 12.1498L-2.86233 12.2913L-2.79476 12.432L-2.72719 12.5715L-2.65962 12.7093L-2.59205 12.8452L-2.52448 12.9786L-2.45691 13.1094L-2.38934 13.237L-2.32177 13.3611L-2.2542 13.4815L-2.18663 13.5977L-2.11906 13.7095L-2.05149 13.8166L-1.98392 13.9187L-1.91635 14.0155L-1.84878 14.1069L-1.78121 14.1927L-1.71364 14.2726L-1.64607 14.3465L-1.5785 14.4142L-1.51093 14.4757L-1.44336 14.5308L-1.37579 14.5795L-1.30822 14.6217L-1.24065 14.6575L-1.17308 14.6868L-1.10551 14.7097L-1.03794 14.7263L-0.970373 14.7366L-0.902803 14.7407L-0.835233 14.7389L-0.767663 14.7311L-0.700093 14.7177L-0.632523 14.6989L-0.564953 14.6748L-0.497383 14.6458L-0.429813 14.612L-0.362243 14.5738L-0.294673 14.5315L-0.227103 14.4854L-0.159533 14.4358L-0.0919628 14.3831L-0.0243928 14.3276L0.0431773 14.2698L0.110747 14.2099L0.178317 14.1485L0.245887 14.0858L0.313457 14.0224L0.381027 13.9585L0.448598 13.8946L0.516168 13.8312L0.583738 13.7685L0.651308 13.7071L0.718878 13.6473L0.786448 13.5894L0.854018 13.534L0.921588 13.4813L0.989158 13.4317L1.05673 13.3856L1.1243 13.3432L1.19187 13.305L1.25944 13.2713L1.32701 13.2422L1.39458 13.2181L1.46215 13.1993L1.52972 13.1859L1.59729 13.1782L1.66486 13.1763L1.73243 13.1805L1.8 13.1907L1.86757 13.2073L1.93514 13.2302L2.00271 13.2595L2.07028 13.2953L2.13785 13.3376L2.20542 13.3863L2.27299 13.4414L2.34056 13.5028L2.40813 13.5706L2.4757 13.6444L2.54327 13.7243L2.61084 13.8101L2.67841 13.9015L2.74598 13.9984L2.81355 14.1005L2.88112 14.2075L2.94869 14.3193L3.01626 14.4356L3.08383 14.5559L3.1514 14.68L3.21897 14.8077L3.28654 14.9384L3.35411 15.0719L3.42168 15.2077L3.48925 15.3456L3.55682 15.485L3.62439 15.6257L3.69196 15.7672L3.75953 15.9091L3.8271 16.051L3.89467 16.1925L3.96224 16.3331L4.02981 16.4726L4.09738 16.6105L4.16495 16.7463L4.23252 16.8798L4.30009 17.0105L4.36766 17.1381L4.43523 17.2623L4.5028 17.3826L4.57037 17.4989L4.63794 17.6106L4.70551 17.7177L4.77308 17.8198L4.84065 17.9167L4.90822 18.0081L4.97579 18.0938L5.04336 18.1737L5.11093 18.2476L5.1785 18.3153L5.24607 18.3768L5.31364 18.4319L5.38121 18.4806L5.44878 18.5229L5.51635 18.5586L5.58392 18.588L5.65149 18.6109L5.71906 18.6274L5.78663 18.6377L5.8542 18.6419L5.92177 18.64L5.98934 18.6323L6.05691 18.6189L6.12448 18.6001L6.19205 18.576L6.25962 18.5469L6.32719 18.5132L6.39476 18.475L6.46233 18.4326L6.5299 18.3865L6.59747 18.3369L6.66504 18.2842L6.73261 18.2288L6.80018 18.1709L6.86775 18.1111L6.93532 18.0497L7.00289 17.987L7.07046 17.9235L7.13803 17.8597L7.2056 17.7958L7.27317 17.7323L7.34074 17.6697L7.40831 17.6082L7.47588 17.5484L7.54345 17.4906L7.61102 17.4351L7.67859 17.3824L7.74616 17.3328L7.81373 17.2867L7.8813 17.2444L7.94887 17.2062L8.01644 17.1724L8.08401 17.1434L8.15158 17.1193L8.21915 17.1004L8.28672 17.0871L8.35429 17.0793L8.42186 17.0775L8.48943 17.0816L8.557 17.0919L8.62457 17.1085L8.69214 17.1314L8.75971 17.1607L8.82728 17.1965L8.89485 17.2387L8.96242 17.2874L9.02999 17.3425L9.09756 17.404L9.16513 17.4717L9.2327 17.5456L9.30027 17.6255L9.36784 17.7112L9.43541 17.8026L9.50298 17.8995L9.57055 18.0016L9.63812 18.1087L9.70569 18.2205L9.77326 18.3367L9.84083 18.4571L9.9084 18.5812L9.97597 18.7088L10.0435 18.8395L10.1111 18.973L10.1787 19.1089L10.2463 19.2467L10.3138 19.3862L10.3814 19.5269L10.449 19.6684L10.5165 19.8103L10.5841 19.9521L10.6517 20.0936L10.7192 20.2343L10.7868 20.3738L10.8544 20.5116L10.922 20.6475L10.9895 20.781L11.0571 20.9117L11.1247 21.0393L11.1922 21.1634L11.2598 21.2838L11.3274 21.4L11.3949 21.5118L11.4625 21.6189L11.5301 21.721L11.5977 21.8179L11.6652 21.9093L11.7328 21.995L11.8004 22.0749L11.8679 22.1488L11.9355 22.2165L12.0031 22.278L12.0706 22.3331L12.1382 22.3818L12.2058 22.424L12.2734 22.4598L12.3409 22.4891L12.4085 22.512L12.4761 22.5286L12.5436 22.5389L12.6112 22.543L12.6788 22.5412L12.7463 22.5334L12.8139 22.5201L12.8815 22.5012L12.9491 22.4771L13.0166 22.4481L13.0842 22.4143L13.1518 22.3761L13.2193 22.3338L13.2869 22.2877L13.3545 22.2381L13.422 22.1854L13.4896 22.1299L13.5572 22.0721L13.6248 22.0123L13.6923 21.9508L13.7599 21.8882L13.8275 21.8247L13.895 21.7608L13.9626 21.697L14.0302 21.6335L14.0977 21.5708L14.1653 21.5094L14.2329 21.4496L14.3005 21.3917L14.368 21.3363L14.4356 21.2836L14.5032 21.234L14.5707 21.1879L14.6383 21.1455L14.7059 21.1073L14.7734 21.0736L14.841 21.0445L14.9086 21.0204L14.9762 21.0016L15.0437 20.9882L15.1113 20.9805L15.1789 20.9786L15.2464 20.9828L15.314 20.9931L15.3816 21.0096L15.4491 21.0325L15.5167 21.0619L15.5843 21.0976L15.6519 21.1399L15.7194 21.1886L15.787 21.2437L15.8546 21.3052L15.9221 21.3729L15.9897 21.4468L16.0573 21.5267L16.1248 21.6124L16.1924 21.7038L16.26 21.8007L16.3276 21.9028L16.3951 22.0099L16.4627 22.1216L16.5303 22.2379L16.5978 22.3582L16.6654 22.4824L16.733 22.61L16.8005 22.7407L16.8681 22.8742L16.9357 23.01L17.0033 23.1479L17.0708 23.2874L17.1384 23.428L17.206 23.5695L17.2735 23.7114L17.3411 23.8533L17.4087 23.9948L17.4762 24.1355L17.5438 24.2749L17.6114 24.4128L17.679 24.5486L17.7465 24.6821L17.8141 24.8128L17.8817 24.9405L17.9492 25.0646L18.0168 25.1849L18.0844 25.3012L18.1519 25.413L18.2195 25.52L18.2871 25.6221L18.3547 25.719L18.4222 25.8104L18.4898 25.8962L18.5574 25.9761L18.6249 26.0499L18.6925 26.1177L18.7601 26.1791L18.8276 26.2342L18.8952 26.2829L18.9628 26.3252L19.0304 26.361L19.0979 26.3903L19.1655 26.4132L19.2331 26.4298L19.3006 26.44L19.3682 26.4442L19.4358 26.4423L19.5033 26.4346L19.5709 26.4212L19.6385 26.4024L19.7061 26.3783L19.7736 26.3492L19.8412 26.3155L19.9088 26.2773L19.9763 26.2349L20.0439 26.1888L20.1115 26.1392L20.179 26.0865L20.2466 26.0311L20.3142 25.9732L20.3818 25.9134L20.4493 25.852L20.5169 25.7893L20.5845 25.7259" stroke="#5EB6FF" stroke-width="0.679804" stroke-miterlimit="10" stroke-linecap="round" stroke-linejoin="round"/>
<path d="M-6.37598 17.3227L-6.30841 17.2588L-6.24084 17.1953L-6.17327 17.1327L-6.1057 17.0713L-6.03813 17.0114L-5.97056 16.9536L-5.90299 16.8981L-5.83542 16.8454L-5.76785 16.7958L-5.70028 16.7497L-5.63271 16.7074L-5.56514 16.6692L-5.49757 16.6354L-5.43 16.6064L-5.36243 16.5823L-5.29486 16.5634L-5.22729 16.5501L-5.15972 16.5423L-5.09215 16.5405L-5.02458 16.5446L-4.95701 16.5549L-4.88944 16.5715L-4.82187 16.5944L-4.7543 16.6237L-4.68673 16.6595L-4.61916 16.7017L-4.55159 16.7504L-4.48402 16.8055L-4.41645 16.867L-4.34888 16.9347L-4.28131 17.0086L-4.21374 17.0885L-4.14617 17.1742L-4.0786 17.2657L-4.01103 17.3625L-3.94346 17.4646L-3.87589 17.5717L-3.80832 17.6835L-3.74074 17.7997L-3.67317 17.9201L-3.6056 18.0442L-3.53803 18.1718L-3.47046 18.3025L-3.40289 18.436L-3.33532 18.5719L-3.26775 18.7097L-3.20018 18.8492L-3.13261 18.9899L-3.06504 19.1314L-2.99747 19.2733L-2.9299 19.4152L-2.86233 19.5566L-2.79476 19.6973L-2.72719 19.8368L-2.65962 19.9746L-2.59205 20.1105L-2.52448 20.244L-2.45691 20.3747L-2.38934 20.5023L-2.32177 20.6265L-2.2542 20.7468L-2.18663 20.863L-2.11906 20.9748L-2.05149 21.0819L-1.98392 21.184L-1.91635 21.2809L-1.84878 21.3723L-1.78121 21.458L-1.71364 21.5379L-1.64607 21.6118L-1.5785 21.6795L-1.51093 21.741L-1.44336 21.7961L-1.37579 21.8448L-1.30822 21.887L-1.24065 21.9228L-1.17308 21.9521L-1.10551 21.975L-1.03794 21.9916L-0.970373 22.0019L-0.902803 22.006L-0.835233 22.0042L-0.767663 21.9965L-0.700093 21.9831L-0.632523 21.9642L-0.564953 21.9402L-0.497383 21.9111L-0.429813 21.8773L-0.362243 21.8391L-0.294673 21.7968L-0.227103 21.7507L-0.159533 21.7011L-0.0919628 21.6484L-0.0243928 21.5929L0.0431773 21.5351L0.110747 21.4753L0.178317 21.4138L0.245887 21.3512L0.313457 21.2877L0.381027 21.2238L0.448598 21.16L0.516168 21.0965L0.583738 21.0339L0.651308 20.9724L0.718878 20.9126L0.786448 20.8547L0.854018 20.7993L0.921588 20.7466L0.989158 20.697L1.05673 20.6509L1.1243 20.6086L1.19187 20.5704L1.25944 20.5366L1.32701 20.5075L1.39458 20.4835L1.46215 20.4646L1.52972 20.4512L1.59729 20.4435L1.66486 20.4416L1.73243 20.4458L1.8 20.4561L1.86757 20.4726L1.93514 20.4955L2.00271 20.5249L2.07028 20.5606L2.13785 20.6029L2.20542 20.6516L2.27299 20.7067L2.34056 20.7682L2.40813 20.8359L2.4757 20.9098L2.54327 20.9897L2.61084 21.0754L2.67841 21.1668L2.74598 21.2637L2.81355 21.3658L2.88112 21.4729L2.94869 21.5847L3.01626 21.7009L3.08383 21.8212L3.1514 21.9454L3.21897 22.073L3.28654 22.2037L3.35411 22.3372L3.42168 22.473L3.48925 22.6109L3.55682 22.7504L3.62439 22.891L3.69196 23.0325L3.75953 23.1744L3.8271 23.3163L3.89467 23.4578L3.96224 23.5985L4.02981 23.7379L4.09738 23.8758L4.16495 24.0117L4.23252 24.1451L4.30009 24.2759L4.36766 24.4035L4.43523 24.5276L4.5028 24.648L4.57037 24.7642L4.63794 24.876L4.70551 24.9831L4.77308 25.0852L4.84065 25.182L4.90822 25.2734L4.97579 25.3592L5.04336 25.4391L5.11093 25.5129L5.1785 25.5807L5.24607 25.6421L5.31364 25.6973L5.38121 25.746L5.44878 25.7882L5.51635 25.824L5.58392 25.8533L5.65149 25.8762L5.71906 25.8928L5.78663 25.9031L5.8542 25.9072L5.92177 25.9053L5.98934 25.8976L6.05691 25.8842L6.12448 25.8654L6.19205 25.8413L6.25962 25.8123L6.32719 25.7785L6.39476 25.7403L6.46233 25.698L6.5299 25.6518L6.59747 25.6023L6.66504 25.5496L6.73261 25.4941L6.80018 25.4363L6.86775 25.3764L6.93532 25.315L7.00289 25.2523L7.07046 25.1889L7.13803 25.125L7.2056 25.0611L7.27317 24.9977L7.34074 24.935L7.40831 24.8736L7.47588 24.8137L7.54345 24.7559L7.61102 24.7004L7.67859 24.6477L7.74616 24.5982L7.81373 24.552L7.8813 24.5097L7.94887 24.4715L8.01644 24.4377L8.08401 24.4087L8.15158 24.3846L8.21915 24.3658L8.28672 24.3524L8.35429 24.3447L8.42186 24.3428L8.48943 24.3469L8.557 24.3572L8.62457 24.3738L8.69214 24.3967L8.75971 24.426L8.82728 24.4618L8.89485 24.504L8.96242 24.5527L9.02999 24.6079L9.09756 24.6693L9.16513 24.7371L9.2327 24.8109L9.30027 24.8908L9.36784 24.9766L9.43541 25.068L9.50298 25.1648L9.57055 25.2669L9.63812 25.374L9.70569 25.4858L9.77326 25.602L9.84083 25.7224L9.9084 25.8465L9.97597 25.9741L10.0435 26.1049L10.1111 26.2383L10.1787 26.3742L10.2463 26.5121L10.3138 26.6515L10.3814 26.7922L10.449 26.9337L10.5165 27.0756L10.5841 27.2175L10.6517 27.359L10.7192 27.4996L10.7868 27.6391L10.8544 27.777L10.922 27.9128L10.9895 28.0463L11.0571 28.177L11.1247 28.3046L11.1922 28.4288L11.2598 28.5491L11.3274 28.6653L11.3949 28.7771L11.4625 28.8842L11.5301 28.9863L11.5977 29.0832L11.6652 29.1746L11.7328 29.2603L11.8004 29.3402L11.8679 29.4141L11.9355 29.4818L12.0031 29.5433L12.0706 29.5984L12.1382 29.6471L12.2058 29.6894L12.2734 29.7251L12.3409 29.7545L12.4085 29.7774L12.4761 29.7939L12.5436 29.8042L12.6112 29.8084L12.6788 29.8065L12.7463 29.7988L12.8139 29.7854L12.8815 29.7665L12.9491 29.7425L13.0166 29.7134L13.0842 29.6796L13.1518 29.6414L13.2193 29.5991L13.2869 29.553L13.3545 29.5034L13.422 29.4507L13.4896 29.3953L13.5572 29.3374L13.6248 29.2776L13.6923 29.2161L13.7599 29.1535L13.8275 29.09L13.895 29.0262L13.9626 28.9623L14.0302 28.8988L14.0977 28.8362L14.1653 28.7747L14.2329 28.7149L14.3005 28.6571L14.368 28.6016L14.4356 28.5489L14.5032 28.4993L14.5707 28.4532L14.6383 28.4109L14.7059 28.3727L14.7734 28.3389L14.841 28.3098L14.9086 28.2858L14.9762 28.2669L15.0437 28.2535L15.1113 28.2458L15.1789 28.244L15.2464 28.2481L15.314 28.2584L15.3816 28.2749L15.4491 28.2979L15.5167 28.3272L15.5843 28.363L15.6519 28.4052L15.7194 28.4539L15.787 28.509L15.8546 28.5705L15.9221 28.6382L15.9897 28.7121L16.0573 28.792L16.1248 28.8777L16.1924 28.9691L16.26 29.066L16.3276 29.1681L16.3951 29.2752L16.4627 29.387L16.5303 29.5032L16.5978 29.6235L16.6654 29.7477L16.733 29.8753L16.8005 30.006L16.8681 30.1395L16.9357 30.2754L17.0033 30.4132L17.0708 30.5527L17.1384 30.6934L17.206 30.8348L17.2735 30.9767L17.3411 31.1186L17.4087 31.2601L17.4762 31.4008L17.5438 31.5403L17.6114 31.6781L17.679 31.814L17.7465 31.9475L17.8141 32.0782L17.8817 32.2058L17.9492 32.3299L18.0168 32.4503L18.0844 32.5665L18.1519 32.6783L18.2195 32.7854L18.2871 32.8875L18.3547 32.9843L18.4222 33.0757L18.4898 33.1615L18.5574 33.2414L18.6249 33.3153L18.6925 33.383L18.7601 33.4445L18.8276 33.4996L18.8952 33.5483L18.9628 33.5905L19.0304 33.6263L19.0979 33.6556L19.1655 33.6785L19.2331 33.6951L19.3006 33.7054L19.3682 33.7095L19.4358 33.7077L19.5033 33.6999L19.5709 33.6865L19.6385 33.6677L19.7061 33.6436L19.7736 33.6146L19.8412 33.5808L19.9088 33.5426L19.9763 33.5003L20.0439 33.4542L20.1115 33.4046L20.179 33.3519L20.2466 33.2964L20.3142 33.2386L20.3818 33.1787L20.4493 33.1173L20.5169 33.0546L20.5845 32.9912" stroke="#5EB6FF" stroke-width="0.679804" stroke-miterlimit="10" stroke-linecap="round" stroke-linejoin="round"/>
<path d="M-6.37598 24.5878L-6.30841 24.5239L-6.24084 24.4605L-6.17327 24.3978L-6.1057 24.3364L-6.03813 24.2765L-5.97056 24.2187L-5.90299 24.1633L-5.83542 24.1105L-5.76785 24.061L-5.70028 24.0148L-5.63271 23.9725L-5.56514 23.9343L-5.49757 23.9005L-5.43 23.8715L-5.36243 23.8474L-5.29486 23.8286L-5.22729 23.8152L-5.15972 23.8075L-5.09215 23.8056L-5.02458 23.8097L-4.95701 23.82L-4.88944 23.8366L-4.82187 23.8595L-4.7543 23.8888L-4.68673 23.9246L-4.61916 23.9669L-4.55159 24.0156L-4.48402 24.0707L-4.41645 24.1321L-4.34888 24.1999L-4.28131 24.2737L-4.21374 24.3536L-4.14617 24.4394L-4.0786 24.5308L-4.01103 24.6276L-3.94346 24.7297L-3.87589 24.8368L-3.80832 24.9486L-3.74074 25.0648L-3.67317 25.1852L-3.6056 25.3093L-3.53803 25.4369L-3.47046 25.5677L-3.40289 25.7011L-3.33532 25.837L-3.26775 25.9749L-3.20018 26.1143L-3.13261 26.255L-3.06504 26.3965L-2.99747 26.5384L-2.9299 26.6803L-2.86233 26.8218L-2.79476 26.9624L-2.72719 27.1019L-2.65962 27.2398L-2.59205 27.3756L-2.52448 27.5091L-2.45691 27.6398L-2.38934 27.7674L-2.32177 27.8916L-2.2542 28.0119L-2.18663 28.1281L-2.11906 28.2399L-2.05149 28.347L-1.98392 28.4491L-1.91635 28.546L-1.84878 28.6374L-1.78121 28.7231L-1.71364 28.803L-1.64607 28.8769L-1.5785 28.9446L-1.51093 29.0061L-1.44336 29.0612L-1.37579 29.1099L-1.30822 29.1522L-1.24065 29.1879L-1.17308 29.2173L-1.10551 29.2402L-1.03794 29.2567L-0.970373 29.267L-0.902803 29.2712L-0.835233 29.2693L-0.767663 29.2616L-0.700093 29.2482L-0.632523 29.2294L-0.564953 29.2053L-0.497383 29.1762L-0.429813 29.1424L-0.362243 29.1042L-0.294673 29.0619L-0.227103 29.0158L-0.159533 28.9662L-0.0919628 28.9135L-0.0243928 28.8581L0.0431773 28.8002L0.110747 28.7404L0.178317 28.6789L0.245887 28.6163L0.313457 28.5528L0.381027 28.489L0.448598 28.4251L0.516168 28.3616L0.583738 28.299L0.651308 28.2375L0.718878 28.1777L0.786448 28.1199L0.854018 28.0644L0.921588 28.0117L0.989158 27.9621L1.05673 27.916L1.1243 27.8737L1.19187 27.8355L1.25944 27.8017L1.32701 27.7726L1.39458 27.7486L1.46215 27.7297L1.52972 27.7163L1.59729 27.7086L1.66486 27.7068L1.73243 27.7109L1.8 27.7212L1.86757 27.7378L1.93514 27.7607L2.00271 27.79L2.07028 27.8258L2.13785 27.868L2.20542 27.9167L2.27299 27.9718L2.34056 28.0333L2.40813 28.101L2.4757 28.1749L2.54327 28.2548L2.61084 28.3405L2.67841 28.4319L2.74598 28.5288L2.81355 28.6309L2.88112 28.738L2.94869 28.8498L3.01626 28.966L3.08383 29.0863L3.1514 29.2105L3.21897 29.3381L3.28654 29.4688L3.35411 29.6023L3.42168 29.7382L3.48925 29.876L3.55682 30.0155L3.62439 30.1562L3.69196 30.2976L3.75953 30.4395L3.8271 30.5814L3.89467 30.7229L3.96224 30.8636L4.02981 31.0031L4.09738 31.1409L4.16495 31.2768L4.23252 31.4103L4.30009 31.541L4.36766 31.6686L4.43523 31.7927L4.5028 31.9131L4.57037 32.0293L4.63794 32.1411L4.70551 32.2482L4.77308 32.3503L4.84065 32.4471L4.90822 32.5386L4.97579 32.6243L5.04336 32.7042L5.11093 32.7781L5.1785 32.8458L5.24607 32.9073L5.31364 32.9624L5.38121 33.0111L5.44878 33.0533L5.51635 33.0891L5.58392 33.1184L5.65149 33.1413L5.71906 33.1579L5.78663 33.1682L5.8542 33.1723L5.92177 33.1705L5.98934 33.1627L6.05691 33.1494L6.12448 33.1305L6.19205 33.1064L6.25962 33.0774L6.32719 33.0436L6.39476 33.0054L6.46233 32.9631L6.5299 32.917L6.59747 32.8674L6.66504 32.8147L6.73261 32.7592L6.80018 32.7014L6.86775 32.6415L6.93532 32.5801L7.00289 32.5175L7.07046 32.454L7.13803 32.3901L7.2056 32.3263L7.27317 32.2628L7.34074 32.2001L7.40831 32.1387L7.47588 32.0789L7.54345 32.021L7.61102 31.9656L7.67859 31.9129L7.74616 31.8633L7.81373 31.8172L7.8813 31.7748L7.94887 31.7366L8.01644 31.7029L8.08401 31.6738L8.15158 31.6497L8.21915 31.6309L8.28672 31.6175L8.35429 31.6098L8.42186 31.6079L8.48943 31.6121L8.557 31.6224L8.62457 31.6389L8.69214 31.6618L8.75971 31.6911L8.82728 31.7269L8.89485 31.7692L8.96242 31.8179L9.02999 31.873L9.09756 31.9344L9.16513 32.0022L9.2327 32.0761L9.30027 32.1559L9.36784 32.2417L9.43541 32.3331L9.50298 32.43L9.57055 32.5321L9.63812 32.6391L9.70569 32.7509L9.77326 32.8672L9.84083 32.9875L9.9084 33.1116L9.97597 33.2393L10.0435 33.37L10.1111 33.5035L10.1787 33.6393L10.2463 33.7772L10.3138 33.9166L10.3814 34.0573L10.449 34.1988L10.5165 34.3407L10.5841 34.4826L10.6517 34.6241L10.7192 34.7648L10.7868 34.9042L10.8544 35.0421L10.922 35.1779L10.9895 35.3114L11.0571 35.4421L11.1247 35.5697L11.1922 35.6939L11.2598 35.8142L11.3274 35.9305L11.3949 36.0423L11.4625 36.1493L11.5301 36.2514L11.5977 36.3483L11.6652 36.4397L11.7328 36.5255L11.8004 36.6053L11.8679 36.6792L11.9355 36.747L12.0031 36.8084L12.0706 36.8635L12.1382 36.9122L12.2058 36.9545L12.2734 36.9903L12.3409 37.0196L12.4085 37.0425L12.4761 37.059L12.5436 37.0693L12.6112 37.0735L12.6788 37.0716L12.7463 37.0639L12.8139 37.0505L12.8815 37.0317L12.9491 37.0076L13.0166 36.9785L13.0842 36.9448L13.1518 36.9066L13.2193 36.8642L13.2869 36.8181L13.3545 36.7685L13.422 36.7158L13.4896 36.6604L13.5572 36.6025L13.6248 36.5427L13.6923 36.4813L13.7599 36.4186L13.8275 36.3551L13.895 36.2913L13.9626 36.2274L14.0302 36.1639L14.0977 36.1013L14.1653 36.0398L14.2329 35.98L14.3005 35.9222L14.368 35.8667L14.4356 35.814L14.5032 35.7644L14.5707 35.7183L14.6383 35.676L14.7059 35.6378L14.7734 35.604L14.841 35.575L14.9086 35.5509L14.9762 35.532L15.0437 35.5187L15.1113 35.5109L15.1789 35.5091L15.2464 35.5132L15.314 35.5235L15.3816 35.5401L15.4491 35.563L15.5167 35.5923L15.5843 35.6281L15.6519 35.6703L15.7194 35.719L15.787 35.7741L15.8546 35.8356L15.9221 35.9033L15.9897 35.9772L16.0573 36.0571L16.1248 36.1428L16.1924 36.2343L16.26 36.3311L16.3276 36.4332L16.3951 36.5403L16.4627 36.6521L16.5303 36.7683L16.5978 36.8887L16.6654 37.0128L16.733 37.1404L16.8005 37.2711L16.8681 37.4046L16.9357 37.5405L17.0033 37.6783L17.0708 37.8178L17.1384 37.9585L17.206 38.1L17.2735 38.2419L17.3411 38.3838L17.4087 38.5252L17.4762 38.6659L17.5438 38.8054L17.6114 38.9432L17.679 39.0791L17.7465 39.2126L17.8141 39.3433L17.8817 39.4709L17.9492 39.5951L18.0168 39.7154L18.0844 39.8316L18.1519 39.9434L18.2195 40.0505L18.2871 40.1526L18.3547 40.2495L18.4222 40.3409L18.4898 40.4266L18.5574 40.5065L18.6249 40.5804L18.6925 40.6481L18.7601 40.7096L18.8276 40.7647L18.8952 40.8134L18.9628 40.8556L19.0304 40.8914L19.0979 40.9207L19.1655 40.9436L19.2331 40.9602L19.3006 40.9705L19.3682 40.9746L19.4358 40.9728L19.5033 40.9651L19.5709 40.9517L19.6385 40.9328L19.7061 40.9087L19.7736 40.8797L19.8412 40.8459L19.9088 40.8077L19.9763 40.7654L20.0439 40.7193L20.1115 40.6697L20.179 40.617L20.2466 40.5615L20.3142 40.5037L20.3818 40.4439L20.4493 40.3824L20.5169 40.3198L20.5845 40.2563" stroke="#5EB6FF" stroke-width="0.679804" stroke-miterlimit="10" stroke-linecap="round" stroke-linejoin="round"/>
<path d="M12.6108 12.7191L12.6999 12.8486L12.7887 12.9778L12.8767 13.1067L12.9637 13.2349L13.0493 13.3624L13.1332 13.4888L13.215 13.6141L13.2944 13.738L13.3711 13.8603L13.4449 13.9809L13.5153 14.0996L13.5822 14.2162L13.6452 14.3306L13.7042 14.4427L13.7588 14.5522L13.8089 14.6592L13.8543 14.7634L13.8947 14.8648L13.9301 14.9632L13.9603 15.0587L13.9852 15.1511L14.0047 15.2403L14.0186 15.3264L14.027 15.4093L14.0298 15.4889L14.027 15.5653L14.0186 15.6385L14.0047 15.7085L13.9852 15.7753L13.9603 15.8389L13.9301 15.8995L13.8947 15.9571L13.8543 16.0118L13.8089 16.0636L13.7588 16.1127L13.7042 16.1592L13.6452 16.2032L13.5822 16.2448L13.5153 16.2842L13.4449 16.3216L13.3711 16.357L13.2944 16.3907L13.215 16.4229L13.1332 16.4537L13.0493 16.4833L12.9637 16.5119L12.8767 16.5397L12.7887 16.5669L12.6999 16.5937L12.6108 16.6203L12.5217 16.6468L12.433 16.6736L12.3449 16.7008L12.2579 16.7286L12.1723 16.7572L12.0885 16.7868L12.0066 16.8176L11.9272 16.8498L11.8505 16.8835L11.7768 16.9189L11.7063 16.9563L11.6395 16.9957L11.5764 17.0374L11.5175 17.0813L11.4628 17.1278L11.4127 17.1769L11.3674 17.2287L11.3269 17.2834L11.2915 17.341L11.2613 17.4016L11.2364 17.4652L11.217 17.532L11.203 17.602L11.1946 17.6752L11.1918 17.7516L11.1946 17.8312L11.203 17.9141L11.217 18.0002L11.2364 18.0894L11.2613 18.1818L11.2915 18.2773L11.3269 18.3757L11.3674 18.4771L11.4127 18.5813L11.4628 18.6883L11.5175 18.7978L11.5764 18.9099L11.6395 19.0243L11.7063 19.141L11.7768 19.2596L11.8505 19.3802L11.9272 19.5026L12.0066 19.6264L12.0885 19.7517L12.1723 19.8781L12.2579 20.0056L12.3449 20.1338L12.433 20.2627L12.5217 20.3919L12.6108 20.5214L12.6999 20.6509L12.7887 20.7801L12.8767 20.909L12.9637 21.0372L13.0493 21.1647L13.1332 21.2911L13.215 21.4164L13.2944 21.5403L13.3711 21.6626L13.4449 21.7832L13.5153 21.9019L13.5822 22.0185L13.6452 22.1329L13.7041 22.245L13.7588 22.3545L13.8089 22.4615L13.8543 22.5657L13.8947 22.6671L13.9301 22.7656L13.9603 22.861L13.9852 22.9534L14.0047 23.0427L14.0186 23.1287L14.027 23.2116L14.0298 23.2912L14.027 23.3676L14.0186 23.4408L14.0047 23.5108L13.9852 23.5776L13.9603 23.6413L13.9301 23.7018L13.8947 23.7594L13.8543 23.8141L13.8089 23.8659L13.7588 23.915L13.7041 23.9615L13.6452 24.0055L13.5822 24.0471L13.5153 24.0865L13.4449 24.1239L13.3711 24.1593L13.2944 24.1931L13.215 24.2252L13.1332 24.256L13.0493 24.2856L12.9637 24.3142L12.8767 24.342L12.7887 24.3692L12.6999 24.396L12.6108 24.4226L12.5217 24.4492L12.433 24.4759L12.3449 24.5031L12.2579 24.5309L12.1723 24.5595L12.0885 24.5891L12.0066 24.6199L11.9272 24.6521L11.8505 24.6858L11.7768 24.7213L11.7063 24.7586L11.6395 24.798L11.5764 24.8397L11.5175 24.8837L11.4628 24.9301L11.4127 24.9792L11.3674 25.0311L11.3269 25.0857L11.2915 25.1433L11.2613 25.2039L11.2364 25.2675L11.217 25.3343L11.203 25.4043L11.1946 25.4775L11.1918 25.5539L11.1946 25.6335L11.203 25.7164L11.217 25.8025L11.2364 25.8917L11.2613 25.9841L11.2915 26.0796L11.3269 26.178L11.3674 26.2794L11.4127 26.3836L11.4628 26.4906L11.5175 26.6002L11.5764 26.7122L11.6395 26.8266L11.7063 26.9433L11.7768 27.062L11.8505 27.1825L11.9272 27.3049L12.0066 27.4287L12.0885 27.554L12.1723 27.6805L12.2579 27.8079L12.3449 27.9361L12.433 28.065L12.5217 28.1943L12.6108 28.3237L12.6999 28.4532L12.7887 28.5825L12.8767 28.7113L12.9637 28.8396L13.0493 28.967L13.1332 29.0934L13.215 29.2187L13.2944 29.3426L13.3711 29.4649L13.4449 29.5855L13.5153 29.7042L13.5822 29.8208L13.6452 29.9352L13.7041 30.0473L13.7588 30.1569L13.8089 30.2638L13.8543 30.368L13.8947 30.4694L13.9301 30.5679L13.9603 30.6633L13.9852 30.7557L14.0047 30.845L14.0186 30.931L14.027 31.0139L14.0298 31.0935L14.027 31.17L14.0186 31.2431L14.0047 31.3131L13.9852 31.3799L13.9603 31.4436L13.9301 31.5042L13.8947 31.5617L13.8543 31.6164L13.8089 31.6682L13.7588 31.7173L13.7041 31.7638L13.6452 31.8078L13.5822 31.8494L13.5153 31.8888L13.4449 31.9262L13.3711 31.9616L13.2944 31.9954L13.215 32.0275L13.1332 32.0583L13.0493 32.0879L12.9637 32.1165L12.8767 32.1443L12.7887 32.1715L12.6999 32.1983L12.6108 32.2249L12.5217 32.2515L12.433 32.2783L12.3449 32.3054L12.2579 32.3332L12.1723 32.3618L12.0885 32.3914L12.0066 32.4222L11.9272 32.4544L11.8505 32.4881L11.7768 32.5236L11.7063 32.5609L11.6395 32.6004L11.5764 32.642L11.5175 32.686L11.4628 32.7324L11.4127 32.7815L11.3674 32.8334L11.3269 32.888L11.2915 32.9456L11.2613 33.0062L11.2364 33.0699L11.217 33.1367L11.203 33.2066L11.1946 33.2798L11.1918 33.3562L11.1946 33.4359L11.203 33.5187L11.217 33.6048L11.2364 33.6941L11.2613 33.7864L11.2915 33.8819L11.3269 33.9804L11.3674 34.0817L11.4127 34.186L11.4628 34.2929L11.5175 34.4025L11.5764 34.5145L11.6395 34.629L11.7063 34.7456L11.7768 34.8643L11.8505 34.9849L11.9272 35.1072L12.0066 35.2311L12.0885 35.3563L12.1723 35.4828L12.2579 35.6102L12.3449 35.7385L12.433 35.8673L12.5217 35.9966L12.6108 36.126L12.6999 36.2555L12.7887 36.3848L12.8767 36.5136L12.9637 36.6419L13.0493 36.7693L13.1332 36.8958L13.215 37.021L13.2944 37.1449L13.3711 37.2672L13.4449 37.3878L13.5153 37.5065L13.5822 37.6231L13.6452 37.7375L13.7041 37.8496L13.7588 37.9592L13.8089 38.0661L13.8543 38.1703L13.8947 38.2717L13.9301 38.3702L13.9603 38.4657L13.9852 38.558L14.0047 38.6473L14.0186 38.7334L14.027 38.8162L14.0298 38.8959L14.027 38.9723L14.0186 39.0455L14.0047 39.1154L13.9852 39.1822L13.9603 39.2459L13.9301 39.3065L13.8947 39.3641L13.8543 39.4187L13.8089 39.4705L13.7588 39.5196L13.7041 39.5661L13.6452 39.6101L13.5822 39.6517L13.5153 39.6912L13.4449 39.7285L13.3711 39.764L13.2944 39.7977L13.215 39.8299L13.1332 39.8606L13.0493 39.8902L12.9637 39.9188L12.8767 39.9466L12.7887 39.9738L12.6999 40.0006L12.6108 40.0272L12.5217 40.0538L12.433 40.0806L12.3449 40.1078L12.2579 40.1356L12.1723 40.1642L12.0885 40.1938L12.0066 40.2245L11.9272 40.2567L11.8505 40.2904L11.7768 40.3259L11.7063 40.3632L11.6395 40.4027L11.5764 40.4443L11.5175 40.4883L11.4628 40.5348L11.4127 40.5839L11.3674 40.6357L11.3269 40.6903L11.2915 40.7479L11.2613 40.8085L11.2364 40.8722L11.217 40.939L11.203 41.0089L11.1946 41.0821L11.1918 41.1585L11.1946 41.2382L11.203 41.321L11.217 41.4071L11.2364 41.4964L11.2613 41.5887L11.2915 41.6842L11.3269 41.7827L11.3674 41.8841L11.4127 41.9883L11.4628 42.0952L11.5175 42.2048L11.5764 42.3169L11.6395 42.4313L11.7063 42.5479L11.7768 42.6666L11.8505 42.7872L11.9272 42.9095L12.0066 43.0334L12.0885 43.1586L12.1723 43.2851L12.2579 43.4125L12.3449 43.5408L12.433 43.6696L12.5217 43.7989" stroke="#5EB6FF" stroke-width="0.679804" stroke-miterlimit="10" stroke-linecap="round" stroke-linejoin="round"/>
<path d="M6.94675 9.44893L7.03585 9.57839L7.1246 9.70765L7.21264 9.83651L7.29964 9.96476L7.38524 10.0922L7.46911 10.2187L7.55092 10.3439L7.63035 10.4678L7.70707 10.5901L7.7808 10.7107L7.85124 10.8294L7.9181 10.946L7.98114 11.0604L8.04009 11.1725L8.09472 11.2821L8.14483 11.389L8.19021 11.4932L8.23067 11.5946L8.26608 11.6931L8.29627 11.7885L8.32114 11.8809L8.34059 11.9702L8.35453 12.0562L8.36292 12.1391L8.36572 12.2188L8.36292 12.2952L8.35453 12.3683L8.34059 12.4383L8.32114 12.5051L8.29627 12.5688L8.26608 12.6294L8.23067 12.6869L8.19021 12.7416L8.14483 12.7934L8.09472 12.8425L8.04009 12.889L7.98114 12.933L7.9181 12.9746L7.85124 13.014L7.7808 13.0514L7.70707 13.0869L7.63035 13.1206L7.55092 13.1527L7.46911 13.1835L7.38524 13.2131L7.29964 13.2417L7.21264 13.2695L7.1246 13.2967L7.03585 13.3235L6.94675 13.3501L6.85765 13.3767L6.76891 13.4035L6.68086 13.4306L6.59387 13.4584L6.50827 13.487L6.42439 13.5166L6.34258 13.5474L6.26316 13.5796L6.18643 13.6133L6.1127 13.6488L6.04227 13.6861L5.9754 13.7256L5.91237 13.7672L5.85342 13.8112L5.79878 13.8577L5.74867 13.9067L5.7033 13.9586L5.66283 14.0132L5.62743 14.0708L5.59723 14.1314L5.57236 14.1951L5.55291 14.2619L5.53897 14.3318L5.53058 14.405L5.52778 14.4814L5.53058 14.5611L5.53897 14.6439L5.55291 14.73L5.57236 14.8193L5.59723 14.9116L5.62743 15.0071L5.66283 15.1056L5.7033 15.2069L5.74867 15.3112L5.79878 15.4181L5.85342 15.5277L5.91237 15.6397L5.9754 15.7542L6.04227 15.8708L6.1127 15.9895L6.18643 16.1101L6.26316 16.2324L6.34258 16.3563L6.42439 16.4815L6.50827 16.608L6.59387 16.7354L6.68086 16.8637L6.76891 16.9925L6.85765 17.1218L6.94675 17.2512L7.03585 17.3807L7.1246 17.51L7.21264 17.6388L7.29964 17.7671L7.38524 17.8945L7.46911 18.021L7.55092 18.1462L7.63035 18.2701L7.70707 18.3924L7.7808 18.513L7.85124 18.6317L7.9181 18.7483L7.98114 18.8627L8.04009 18.9748L8.09472 19.0844L8.14483 19.1913L8.19021 19.2955L8.23067 19.3969L8.26608 19.4954L8.29627 19.5909L8.32114 19.6832L8.34059 19.7725L8.35453 19.8586L8.36292 19.9414L8.36572 20.0211L8.36292 20.0975L8.35453 20.1707L8.34059 20.2406L8.32114 20.3074L8.29627 20.3711L8.26608 20.4317L8.23067 20.4893L8.19021 20.5439L8.14483 20.5957L8.09472 20.6448L8.04009 20.6913L7.98114 20.7353L7.9181 20.7769L7.85124 20.8164L7.7808 20.8537L7.70707 20.8892L7.63035 20.9229L7.55092 20.9551L7.46911 20.9858L7.38524 21.0154L7.29964 21.044L7.21264 21.0718L7.1246 21.099L7.03585 21.1258L6.94675 21.1524L6.85765 21.179L6.76891 21.2058L6.68086 21.233L6.59387 21.2608L6.50827 21.2894L6.42439 21.319L6.34258 21.3497L6.26316 21.3819L6.18643 21.4156L6.1127 21.4511L6.04227 21.4885L5.9754 21.5279L5.91237 21.5695L5.85342 21.6135L5.79878 21.66L5.74867 21.7091L5.7033 21.7609L5.66283 21.8155L5.62743 21.8731L5.59723 21.9337L5.57236 21.9974L5.55291 22.0642L5.53897 22.1342L5.53058 22.2073L5.52778 22.2837L5.53058 22.3634L5.53897 22.4462L5.55291 22.5323L5.57236 22.6216L5.59723 22.714L5.62743 22.8094L5.66283 22.9079L5.7033 23.0093L5.74867 23.1135L5.79878 23.2204L5.85342 23.33L5.91237 23.4421L5.9754 23.5565L6.04227 23.6731L6.1127 23.7918L6.18643 23.9124L6.26316 24.0347L6.34258 24.1586L6.42439 24.2838L6.50827 24.4103L6.59387 24.5377L6.68086 24.666L6.76891 24.7948L6.85765 24.9241L6.94675 25.0536L7.03585 25.183L7.1246 25.3123L7.21264 25.4411L7.29963 25.5694L7.38524 25.6968L7.46911 25.8233L7.55092 25.9485L7.63035 26.0724L7.70707 26.1947L7.7808 26.3153L7.85124 26.434L7.9181 26.5507L7.98114 26.6651L8.04009 26.7771L8.09472 26.8867L8.14483 26.9936L8.1902 27.0979L8.23067 27.1993L8.26608 27.2977L8.29627 27.3932L8.32114 27.4856L8.34059 27.5748L8.35453 27.6609L8.36292 27.7437L8.36572 27.8234L8.36292 27.8998L8.35453 27.973L8.34059 28.0429L8.32114 28.1097L8.29627 28.1734L8.26608 28.234L8.23067 28.2916L8.1902 28.3462L8.14483 28.3981L8.09472 28.4472L8.04009 28.4936L7.98114 28.5376L7.9181 28.5793L7.85124 28.6187L7.7808 28.656L7.70707 28.6915L7.63035 28.7252L7.55092 28.7574L7.46911 28.7882L7.38524 28.8178L7.29963 28.8464L7.21264 28.8742L7.1246 28.9014L7.03585 28.9281L6.94675 28.9547L6.85765 28.9813L6.76891 29.0081L6.68086 29.0353L6.59387 29.0631L6.50826 29.0917L6.42439 29.1213L6.34258 29.1521L6.26316 29.1842L6.18643 29.218L6.1127 29.2534L6.04227 29.2908L5.9754 29.3302L5.91237 29.3718L5.85342 29.4158L5.79878 29.4623L5.74867 29.5114L5.7033 29.5632L5.66283 29.6179L5.62743 29.6754L5.59723 29.736L5.57236 29.7997L5.55291 29.8665L5.53897 29.9365L5.53058 30.0096L5.52778 30.0861L5.53058 30.1657L5.53897 30.2486L5.55291 30.3346L5.57236 30.4239L5.59723 30.5163L5.62743 30.6117L5.66283 30.7102L5.7033 30.8116L5.74867 30.9158L5.79878 31.0227L5.85342 31.1323L5.91237 31.2444L5.9754 31.3588L6.04226 31.4754L6.1127 31.5941L6.18643 31.7147L6.26316 31.837L6.34258 31.9609L6.42439 32.0862L6.50826 32.2126L6.59387 32.34L6.68086 32.4683L6.76891 32.5972L6.85765 32.7264L6.94675 32.8559L7.03585 32.9853L7.1246 33.1146L7.21264 33.2435L7.29963 33.3717L7.38524 33.4992L7.46911 33.6256L7.55092 33.7509L7.63035 33.8747L7.70707 33.9971L7.7808 34.1176L7.85124 34.2363L7.9181 34.353L7.98114 34.4674L8.04009 34.5794L8.09472 34.689L8.14483 34.796L8.1902 34.9002L8.23067 35.0016L8.26608 35.1L8.29627 35.1955L8.32114 35.2879L8.34059 35.3771L8.35453 35.4632L8.36292 35.5461L8.36572 35.6257L8.36292 35.7021L8.35453 35.7753L8.34059 35.8453L8.32114 35.9121L8.29627 35.9757L8.26608 36.0363L8.23067 36.0939L8.1902 36.1486L8.14483 36.2004L8.09472 36.2495L8.04009 36.2959L7.98114 36.3399L7.9181 36.3816L7.85124 36.421L7.7808 36.4583L7.70707 36.4938L7.63035 36.5275L7.55092 36.5597L7.46911 36.5905L7.38524 36.6201L7.29963 36.6487L7.21264 36.6765L7.12459 36.7037L7.03585 36.7305L6.94675 36.757L6.85765 36.7836L6.76891 36.8104L6.68086 36.8376L6.59387 36.8654L6.50826 36.894L6.42439 36.9236L6.34258 36.9544L6.26316 36.9865L6.18643 37.0203L6.1127 37.0557L6.04226 37.0931L5.9754 37.1325L5.91237 37.1741L5.85341 37.2181L5.79878 37.2646L5.74867 37.3137L5.7033 37.3655L5.66283 37.4202L5.62742 37.4778L5.59723 37.5384L5.57236 37.602L5.55291 37.6688L5.53897 37.7388L5.53058 37.812L5.52778 37.8884L5.53058 37.968L5.53897 38.0509L5.55291 38.137L5.57236 38.2262L5.59723 38.3186L5.62742 38.414L5.66283 38.5125L5.7033 38.6139L5.74867 38.7181L5.79878 38.8251L5.85341 38.9346L5.91237 39.0467L5.9754 39.1611L6.04226 39.2777L6.1127 39.3964L6.18643 39.517L6.26316 39.6393L6.34258 39.7632L6.42439 39.8885L6.50826 40.0149L6.59387 40.1424L6.68086 40.2706L6.76891 40.3995L6.85765 40.5287" stroke="#5EB6FF" stroke-width="0.679804" stroke-miterlimit="10" stroke-linecap="round" stroke-linejoin="round"/>
<path d="M1.28318 6.17937L1.37228 6.30883L1.46102 6.43809L1.54907 6.56695L1.63606 6.6952L1.72166 6.82264L1.80554 6.94909L1.88735 7.07435L1.96677 7.19823L2.0435 7.32055L2.11723 7.44114L2.18766 7.55983L2.25453 7.67646L2.31756 7.79087L2.37651 7.90293L2.43115 8.0125L2.48125 8.11945L2.52663 8.22367L2.5671 8.32506L2.6025 8.42352L2.6327 8.51898L2.65757 8.61136L2.67701 8.70061L2.69096 8.78668L2.69935 8.86955L2.70215 8.94919L2.69935 9.0256L2.69096 9.09878L2.67701 9.16875L2.65757 9.23555L2.6327 9.29921L2.6025 9.3598L2.5671 9.41738L2.52663 9.47204L2.48125 9.52387L2.43115 9.57296L2.37651 9.61944L2.31756 9.66343L2.25453 9.70506L2.18766 9.74448L2.11723 9.78183L2.0435 9.81729L1.96677 9.85101L1.88735 9.88318L1.80554 9.91397L1.72166 9.94357L1.63606 9.97217L1.54907 9.99997L1.46102 10.0272L1.37228 10.0539L1.28318 10.0805L1.19408 10.1071L1.10533 10.1339L1.01729 10.1611L0.930294 10.1889L0.844691 10.2175L0.76082 10.2471L0.679009 10.2779L0.599583 10.31L0.522855 10.3438L0.449127 10.3792L0.378691 10.4166L0.311825 10.456L0.248792 10.4976L0.189842 10.5416L0.135206 10.5881L0.0851006 10.6372L0.0397236 10.689L-0.000745656 10.7437L-0.0361484 10.8013L-0.0663438 10.8618L-0.091214 10.9255L-0.110659 10.9923L-0.124605 11.0623L-0.132994 11.1355L-0.135793 11.2119L-0.132994 11.2915L-0.124605 11.3744L-0.110659 11.4604L-0.091214 11.5497L-0.0663439 11.6421L-0.0361484 11.7375L-0.000745697 11.836L0.0397235 11.9374L0.0851005 12.0416L0.135206 12.1486L0.189841 12.2581L0.248792 12.3702L0.311825 12.4846L0.378691 12.6012L0.449127 12.7199L0.522855 12.8405L0.599583 12.9628L0.679009 13.0867L0.760819 13.212L0.844691 13.3384L0.930294 13.4659L1.01729 13.5941L1.10533 13.723L1.19408 13.8522L1.28318 13.9817L1.37228 14.1111L1.46102 14.2404L1.54907 14.3693L1.63606 14.4975L1.72166 14.625L1.80554 14.7514L1.88735 14.8767L1.96677 15.0005L2.0435 15.1229L2.11723 15.2435L2.18766 15.3621L2.25453 15.4788L2.31756 15.5932L2.37651 15.7052L2.43115 15.8148L2.48125 15.9218L2.52663 16.026L2.5671 16.1274L2.6025 16.2258L2.6327 16.3213L2.65757 16.4137L2.67701 16.5029L2.69096 16.589L2.69935 16.6719L2.70215 16.7515L2.69935 16.8279L2.69096 16.9011L2.67701 16.9711L2.65757 17.0379L2.6327 17.1015L2.6025 17.1621L2.5671 17.2197L2.52663 17.2744L2.48125 17.3262L2.43115 17.3753L2.37651 17.4218L2.31756 17.4657L2.25453 17.5074L2.18766 17.5468L2.11723 17.5841L2.0435 17.6196L1.96677 17.6533L1.88735 17.6855L1.80554 17.7163L1.72166 17.7459L1.63606 17.7745L1.54907 17.8023L1.46102 17.8295L1.37228 17.8563L1.28318 17.8828L1.19408 17.9094L1.10533 17.9362L1.01729 17.9634L0.930293 17.9912L0.844691 18.0198L0.760819 18.0494L0.679009 18.0802L0.599583 18.1124L0.522854 18.1461L0.449127 18.1815L0.378691 18.2189L0.311825 18.2583L0.248792 18.2999L0.189841 18.3439L0.135206 18.3904L0.0851003 18.4395L0.0397233 18.4913L-0.000745951 18.546L-0.0361487 18.6036L-0.0663441 18.6642L-0.0912143 18.7278L-0.11066 18.7946L-0.124605 18.8646L-0.132994 18.9378L-0.135794 19.0142L-0.132994 19.0938L-0.124605 19.1767L-0.11066 19.2628L-0.0912143 19.352L-0.0663442 19.4444L-0.0361487 19.5398L-0.000745992 19.6383L0.0397232 19.7397L0.0851002 19.8439L0.135206 19.9509L0.189841 20.0604L0.248792 20.1725L0.311825 20.2869L0.378691 20.4035L0.449127 20.5222L0.522854 20.6428L0.599582 20.7651L0.679008 20.889L0.760819 21.0143L0.844691 21.1407L0.930293 21.2682L1.01729 21.3964L1.10533 21.5253L1.19408 21.6545L1.28318 21.784L1.37228 21.9135L1.46102 22.0427L1.54907 22.1716L1.63606 22.2998L1.72166 22.4273L1.80553 22.5537L1.88735 22.679L1.96677 22.8029L2.0435 22.9252L2.11723 23.0458L2.18766 23.1645L2.25453 23.2811L2.31756 23.3955L2.37651 23.5076L2.43115 23.6171L2.48125 23.7241L2.52663 23.8283L2.5671 23.9297L2.6025 24.0282L2.6327 24.1236L2.65757 24.216L2.67701 24.3052L2.69096 24.3913L2.69935 24.4742L2.70215 24.5538L2.69935 24.6302L2.69096 24.7034L2.67701 24.7734L2.65757 24.8402L2.6327 24.9038L2.6025 24.9644L2.5671 25.022L2.52663 25.0767L2.48125 25.1285L2.43115 25.1776L2.37651 25.2241L2.31756 25.2681L2.25453 25.3097L2.18766 25.3491L2.11723 25.3865L2.0435 25.4219L1.96677 25.4556L1.88735 25.4878L1.80553 25.5186L1.72166 25.5482L1.63606 25.5768L1.54907 25.6046L1.46102 25.6318L1.37227 25.6586L1.28318 25.6852L1.19408 25.7117L1.10533 25.7385L1.01729 25.7657L0.930293 25.7935L0.844691 25.8221L0.760819 25.8517L0.679008 25.8825L0.599582 25.9147L0.522854 25.9484L0.449127 25.9839L0.378691 26.0212L0.311824 26.0606L0.248792 26.1023L0.189841 26.1462L0.135205 26.1927L0.0851 26.2418L0.039723 26.2936L-0.000746246 26.3483L-0.036149 26.4059L-0.0663444 26.4665L-0.0912146 26.5301L-0.11066 26.5969L-0.124605 26.6669L-0.132994 26.7401L-0.135794 26.8165L-0.132994 26.8961L-0.124605 26.979L-0.11066 27.0651L-0.0912146 27.1543L-0.0663445 27.2467L-0.036149 27.3422L-0.000746288 27.4406L0.0397229 27.542L0.0850999 27.6462L0.135205 27.7532L0.189841 27.8628L0.248791 27.9748L0.311824 28.0892L0.378691 28.2059L0.449127 28.3245L0.522854 28.4451L0.599582 28.5675L0.679008 28.6913L0.760819 28.8166L0.844691 28.943L0.930293 29.0705L1.01729 29.1987L1.10533 29.3276L1.19408 29.4569L1.28318 29.5863L1.37227 29.7158L1.46102 29.845L1.54907 29.9739L1.63606 30.1021L1.72166 30.2296L1.80553 30.356L1.88735 30.4813L1.96677 30.6052L2.0435 30.7275L2.11723 30.8481L2.18766 30.9668L2.25453 31.0834L2.31756 31.1978L2.37651 31.3099L2.43115 31.4194L2.48125 31.5264L2.52663 31.6306L2.5671 31.732L2.6025 31.8305L2.6327 31.9259L2.65757 32.0183L2.67701 32.1076L2.69096 32.1936L2.69935 32.2765L2.70215 32.3561L2.69935 32.4325L2.69096 32.5057L2.67701 32.5757L2.65757 32.6425L2.6327 32.7062L2.6025 32.7667L2.5671 32.8243L2.52663 32.879L2.48125 32.9308L2.43115 32.9799L2.37651 33.0264L2.31756 33.0704L2.25453 33.112L2.18766 33.1514L2.11723 33.1888L2.0435 33.2242L1.96677 33.258L1.88735 33.2901L1.80553 33.3209L1.72166 33.3505L1.63606 33.3791L1.54907 33.4069L1.46102 33.4341L1.37227 33.4609L1.28318 33.4875L1.19408 33.5141L1.10533 33.5408L1.01729 33.568L0.930293 33.5958L0.84469 33.6244L0.760819 33.654L0.679008 33.6848L0.599582 33.717L0.522854 33.7507L0.449126 33.7862L0.378691 33.8235L0.311824 33.8629L0.248791 33.9046L0.189841 33.9486L0.135205 33.995L0.0850997 34.0441L0.0397227 34.096L-0.000746542 34.1506L-0.0361493 34.2082L-0.0663447 34.2688L-0.0912149 34.3325L-0.11066 34.3993L-0.124606 34.4692L-0.132995 34.5424L-0.135794 34.6188L-0.132995 34.6984L-0.124606 34.7813L-0.11066 34.8674L-0.0912149 34.9566L-0.0663448 35.049L-0.0361493 35.1445L-0.000746583 35.2429L0.0397226 35.3443L0.0850996 35.4486L0.135205 35.5555L0.189841 35.6651L0.248791 35.7771L0.311824 35.8915L0.37869 36.0082L0.449126 36.1269L0.522854 36.2475L0.599582 36.3698L0.679008 36.4937L0.760819 36.6189L0.84469 36.7454L0.930293 36.8728L1.01729 37.0011L1.10533 37.1299L1.19408 37.2592" stroke="#5EB6FF" stroke-width="0.679804" stroke-miterlimit="10" stroke-linecap="round" stroke-linejoin="round"/>
</g>
<g clip-path="url(#clip1_29569_7717)">
<path d="M35.3965 10.0576L35.3289 9.99372L35.2613 9.93026L35.1938 9.86761L35.1262 9.80616L35.0586 9.74633L34.9911 9.68849L34.9235 9.63304L34.8559 9.58034L34.7884 9.53075L34.7208 9.48463L34.6532 9.44231L34.5856 9.40411L34.5181 9.37034L34.4505 9.34128L34.3829 9.3172L34.3154 9.29836L34.2478 9.28497L34.1802 9.27725L34.1127 9.27539L34.0451 9.27953L33.9775 9.28982L33.9099 9.30638L33.8424 9.32929L33.7748 9.35862L33.7072 9.3944L33.6397 9.43664L33.5721 9.48534L33.5045 9.54045L33.437 9.60192L33.3694 9.66965L33.3018 9.74352L33.2342 9.82342L33.1667 9.90916L33.0991 10.0006L33.0315 10.0974L32.964 10.1995L32.8964 10.3066L32.8288 10.4184L32.7613 10.5346L32.6937 10.655L32.6261 10.7791L32.5585 10.9067L32.491 11.0375L32.4234 11.1709L32.3558 11.3068L32.2883 11.4446L32.2207 11.5841L32.1531 11.7248L32.0856 11.8663L32.018 12.0082L31.9504 12.1501L31.8828 12.2916L31.8153 12.4322L31.7477 12.5717L31.6801 12.7095L31.6126 12.8454L31.545 12.9789L31.4774 13.1096L31.4099 13.2372L31.3423 13.3614L31.2747 13.4817L31.2071 13.5979L31.1396 13.7097L31.072 13.8168L31.0044 13.9189L30.9369 14.0158L30.8693 14.1072L30.8017 14.1929L30.7342 14.2728L30.6666 14.3467L30.599 14.4144L30.5314 14.4759L30.4639 14.531L30.3963 14.5797L30.3287 14.6219L30.2612 14.6577L30.1936 14.6871L30.126 14.71L30.0585 14.7265L29.9909 14.7368L29.9233 14.741L29.8557 14.7391L29.7882 14.7314L29.7206 14.718L29.653 14.6991L29.5855 14.6751L29.5179 14.646L29.4503 14.6122L29.3828 14.574L29.3152 14.5317L29.2476 14.4856L29.18 14.436L29.1125 14.3833L29.0449 14.3278L28.9773 14.27L28.9098 14.2102L28.8422 14.1487L28.7746 14.0861L28.7071 14.0226L28.6395 13.9587L28.5719 13.8949L28.5043 13.8314L28.4368 13.7688L28.3692 13.7073L28.3016 13.6475L28.2341 13.5897L28.1665 13.5342L28.0989 13.4815L28.0313 13.4319L27.9638 13.3858L27.8962 13.3435L27.8286 13.3053L27.7611 13.2715L27.6935 13.2424L27.6259 13.2184L27.5584 13.1995L27.4908 13.1861L27.4232 13.1784L27.3556 13.1765L27.2881 13.1807L27.2205 13.191L27.1529 13.2075L27.0854 13.2304L27.0178 13.2598L26.9502 13.2956L26.8827 13.3378L26.8151 13.3865L26.7475 13.4416L26.6799 13.5031L26.6124 13.5708L26.5448 13.6447L26.4772 13.7246L26.4097 13.8103L26.3421 13.9017L26.2745 13.9986L26.207 14.1007L26.1394 14.2078L26.0718 14.3196L26.0042 14.4358L25.9367 14.5561L25.8691 14.6803L25.8015 14.8079L25.734 14.9386L25.6664 15.0721L25.5988 15.208L25.5313 15.3458L25.4637 15.4853L25.3961 15.6259L25.3285 15.7674L25.261 15.9093L25.1934 16.0512L25.1258 16.1927L25.0583 16.3334L24.9907 16.4729L24.9231 16.6107L24.8556 16.7466L24.788 16.88L24.7204 17.0108L24.6528 17.1384L24.5853 17.2625L24.5177 17.3829L24.4501 17.4991L24.3826 17.6109L24.315 17.718L24.2474 17.8201L24.1799 17.9169L24.1123 18.0083L24.0447 18.0941L23.9771 18.174L23.9096 18.2479L23.842 18.3156L23.7744 18.377L23.7069 18.4322L23.6393 18.4809L23.5717 18.5231L23.5042 18.5589L23.4366 18.5882L23.369 18.6111L23.3014 18.6277L23.2339 18.638L23.1663 18.6421L23.0987 18.6402L23.0312 18.6325L22.9636 18.6191L22.896 18.6003L22.8285 18.5762L22.7609 18.5472L22.6933 18.5134L22.6257 18.4752L22.5582 18.4329L22.4906 18.3867L22.423 18.3372L22.3555 18.2845L22.2879 18.229L22.2203 18.1712L22.1528 18.1113L22.0852 18.0499L22.0176 17.9872L21.95 17.9238L21.8825 17.8599L21.8149 17.796L21.7473 17.7326L21.6798 17.6699L21.6122 17.6085L21.5446 17.5486L21.4771 17.4908L21.4095 17.4354L21.3419 17.3827L21.2743 17.3331L21.2068 17.2869L21.1392 17.2446L21.0716 17.2064L21.0041 17.1727L20.9365 17.1436L20.8689 17.1195L20.8014 17.1007L20.7338 17.0873L20.6662 17.0796L20.5986 17.0777L20.5311 17.0818L20.4635 17.0921L20.3959 17.1087L20.3284 17.1316L20.2608 17.1609L20.1932 17.1967L20.1257 17.239L20.0581 17.2877L19.9905 17.3428L19.9229 17.4042L19.8554 17.472L19.7878 17.5458L19.7202 17.6257L19.6527 17.7115L19.5851 17.8029L19.5175 17.8997L19.45 18.0018L19.3824 18.1089L19.3148 18.2207L19.2472 18.3369L19.1797 18.4573L19.1121 18.5814L19.0445 18.709L18.977 18.8398L18.9094 18.9733L18.8418 19.1091L18.7743 19.247L18.7067 19.3864L18.6391 19.5271L18.5715 19.6686L18.504 19.8105L18.4364 19.9524L18.3688 20.0939L18.3013 20.2345L18.2337 20.374L18.1661 20.5119L18.0986 20.6477L18.031 20.7812L17.9634 20.9119L17.8958 21.0395L17.8283 21.1637L17.7607 21.284L17.6931 21.4002L17.6256 21.512L17.558 21.6191L17.4904 21.7212L17.4229 21.8181L17.3553 21.9095L17.2877 21.9952L17.2201 22.0751L17.1526 22.149L17.085 22.2167L17.0174 22.2782L16.9499 22.3333L16.8823 22.382L16.8147 22.4243L16.7472 22.46L16.6796 22.4894L16.612 22.5123L16.5444 22.5288L16.4769 22.5391L16.4093 22.5433L16.3417 22.5414L16.2742 22.5337L16.2066 22.5203L16.139 22.5015L16.0715 22.4774L16.0039 22.4483L15.9363 22.4145L15.8687 22.3763L15.8012 22.334L15.7336 22.2879L15.666 22.2383L15.5985 22.1856L15.5309 22.1302L15.4633 22.0723L15.3958 22.0125L15.3282 21.9511L15.2606 21.8884L15.193 21.8249L15.1255 21.7611L15.0579 21.6972L14.9903 21.6337L14.9228 21.5711L14.8552 21.5096L14.7876 21.4498L14.7201 21.392L14.6525 21.3365L14.5849 21.2838L14.5173 21.2342L14.4498 21.1881L14.3822 21.1458L14.3146 21.1076L14.2471 21.0738L14.1795 21.0448L14.1119 21.0207L14.0444 21.0018L13.9768 20.9884L13.9092 20.9807L13.8416 20.9789L13.7741 20.983L13.7065 20.9933L13.6389 21.0099L13.5714 21.0328L13.5038 21.0621L13.4362 21.0979L13.3687 21.1401L13.3011 21.1888L13.2335 21.2439L13.1659 21.3054L13.0984 21.3731L13.0308 21.447L12.9632 21.5269L12.8957 21.6126L12.8281 21.704L12.7605 21.8009L12.693 21.903L12.6254 22.0101L12.5578 22.1219L12.4902 22.2381L12.4227 22.3585L12.3551 22.4826L12.2875 22.6102L12.22 22.7409L12.1524 22.8744L12.0848 23.0103L12.0173 23.1481L11.9497 23.2876L11.8821 23.4283L11.8145 23.5698L11.747 23.7116L11.6794 23.8535L11.6118 23.995L11.5443 24.1357L11.4767 24.2752L11.4091 24.413L11.3416 24.5489L11.274 24.6824L11.2064 24.8131L11.1388 24.9407L11.0713 25.0648L11.0037 25.1852L10.9361 25.3014L10.8686 25.4132L10.801 25.5203L10.7334 25.6224L10.6658 25.7192L10.5983 25.8107L10.5307 25.8964L10.4631 25.9763L10.3956 26.0502L10.328 26.1179L10.2604 26.1794L10.1929 26.2345L10.1253 26.2832L10.0577 26.3254L9.99015 26.3612L9.92258 26.3905L9.85501 26.4134L9.78744 26.43L9.71987 26.4403L9.6523 26.4444L9.58473 26.4426L9.51716 26.4348L9.44959 26.4215L9.38202 26.4026L9.31445 26.3785L9.24688 26.3495L9.17931 26.3157L9.11174 26.2775L9.04417 26.2352L8.9766 26.1891L8.90903 26.1395L8.84146 26.0868L8.77389 26.0313L8.70632 25.9735L8.63875 25.9137L8.57118 25.8522L8.50361 25.7896L8.43604 25.7261" stroke="#279AF1" stroke-width="0.679804" stroke-miterlimit="10" stroke-linecap="round" stroke-linejoin="round"/>
<path d="M35.3965 17.3227L35.3289 17.2589L35.2613 17.1954L35.1938 17.1327L35.1262 17.0713L35.0586 17.0115L34.9911 16.9536L34.9235 16.8982L34.8559 16.8455L34.7884 16.7959L34.7208 16.7498L34.6532 16.7074L34.5856 16.6692L34.5181 16.6355L34.4505 16.6064L34.3829 16.5823L34.3154 16.5635L34.2478 16.5501L34.1802 16.5424L34.1127 16.5405L34.0451 16.5447L33.9775 16.555L33.9099 16.5715L33.8424 16.5944L33.7748 16.6238L33.7072 16.6595L33.6397 16.7018L33.5721 16.7505L33.5045 16.8056L33.437 16.8671L33.3694 16.9348L33.3018 17.0087L33.2342 17.0886L33.1667 17.1743L33.0991 17.2657L33.0315 17.3626L32.964 17.4647L32.8964 17.5718L32.8288 17.6835L32.7613 17.7998L32.6937 17.9201L32.6261 18.0443L32.5585 18.1719L32.491 18.3026L32.4234 18.4361L32.3558 18.5719L32.2883 18.7098L32.2207 18.8493L32.1531 18.9899L32.0856 19.1314L32.018 19.2733L31.9504 19.4152L31.8828 19.5567L31.8153 19.6974L31.7477 19.8368L31.6801 19.9747L31.6126 20.1105L31.545 20.244L31.4774 20.3747L31.4099 20.5024L31.3423 20.6265L31.2747 20.7468L31.2071 20.8631L31.1396 20.9749L31.072 21.0819L31.0044 21.184L30.9369 21.2809L30.8693 21.3723L30.8017 21.4581L30.7342 21.538L30.6666 21.6118L30.599 21.6796L30.5314 21.741L30.4639 21.7961L30.3963 21.8448L30.3287 21.8871L30.2612 21.9229L30.1936 21.9522L30.126 21.9751L30.0585 21.9917L29.9909 22.0019L29.9233 22.0061L29.8557 22.0042L29.7882 21.9965L29.7206 21.9831L29.653 21.9643L29.5855 21.9402L29.5179 21.9111L29.4503 21.8774L29.3828 21.8392L29.3152 21.7968L29.2476 21.7507L29.18 21.7011L29.1125 21.6484L29.0449 21.593L28.9773 21.5351L28.9098 21.4753L28.8422 21.4139L28.7746 21.3512L28.7071 21.2878L28.6395 21.2239L28.5719 21.16L28.5043 21.0966L28.4368 21.0339L28.3692 20.9725L28.3016 20.9126L28.2341 20.8548L28.1665 20.7993L28.0989 20.7466L28.0313 20.697L27.9638 20.6509L27.8962 20.6086L27.8286 20.5704L27.7611 20.5366L27.6935 20.5076L27.6259 20.4835L27.5584 20.4647L27.4908 20.4513L27.4232 20.4435L27.3556 20.4417L27.2881 20.4458L27.2205 20.4561L27.1529 20.4727L27.0854 20.4956L27.0178 20.5249L26.9502 20.5607L26.8827 20.6029L26.8151 20.6516L26.7475 20.7067L26.6799 20.7682L26.6124 20.8359L26.5448 20.9098L26.4772 20.9897L26.4097 21.0755L26.3421 21.1669L26.2745 21.2637L26.207 21.3658L26.1394 21.4729L26.0718 21.5847L26.0042 21.7009L25.9367 21.8213L25.8691 21.9454L25.8015 22.073L25.734 22.2038L25.6664 22.3372L25.5988 22.4731L25.5313 22.6109L25.4637 22.7504L25.3961 22.8911L25.3285 23.0326L25.261 23.1745L25.1934 23.3164L25.1258 23.4578L25.0583 23.5985L24.9907 23.738L24.9231 23.8758L24.8556 24.0117L24.788 24.1452L24.7204 24.2759L24.6528 24.4035L24.5853 24.5277L24.5177 24.648L24.4501 24.7642L24.3826 24.876L24.315 24.9831L24.2474 25.0852L24.1799 25.1821L24.1123 25.2735L24.0447 25.3592L23.9771 25.4391L23.9096 25.513L23.842 25.5807L23.7744 25.6422L23.7069 25.6973L23.6393 25.746L23.5717 25.7882L23.5042 25.824L23.4366 25.8533L23.369 25.8763L23.3014 25.8928L23.2339 25.9031L23.1663 25.9073L23.0987 25.9054L23.0312 25.8977L22.9636 25.8843L22.896 25.8654L22.8285 25.8414L22.7609 25.8123L22.6933 25.7785L22.6257 25.7403L22.5582 25.698L22.4906 25.6519L22.423 25.6023L22.3555 25.5496L22.2879 25.4941L22.2203 25.4363L22.1528 25.3765L22.0852 25.315L22.0176 25.2524L21.95 25.1889L21.8825 25.125L21.8149 25.0612L21.7473 24.9977L21.6798 24.9351L21.6122 24.8736L21.5446 24.8138L21.4771 24.7559L21.4095 24.7005L21.3419 24.6478L21.2743 24.5982L21.2068 24.5521L21.1392 24.5098L21.0716 24.4716L21.0041 24.4378L20.9365 24.4087L20.8689 24.3847L20.8014 24.3658L20.7338 24.3524L20.6662 24.3447L20.5986 24.3428L20.5311 24.347L20.4635 24.3573L20.3959 24.3738L20.3284 24.3967L20.2608 24.4261L20.1932 24.4618L20.1257 24.5041L20.0581 24.5528L19.9905 24.6079L19.9229 24.6694L19.8554 24.7371L19.7878 24.811L19.7202 24.8909L19.6527 24.9766L19.5851 25.068L19.5175 25.1649L19.45 25.267L19.3824 25.3741L19.3148 25.4859L19.2472 25.6021L19.1797 25.7224L19.1121 25.8466L19.0445 25.9742L18.977 26.1049L18.9094 26.2384L18.8418 26.3742L18.7743 26.5121L18.7067 26.6516L18.6391 26.7922L18.5715 26.9337L18.504 27.0756L18.4364 27.2175L18.3688 27.359L18.3013 27.4997L18.2337 27.6391L18.1661 27.777L18.0986 27.9129L18.031 28.0463L17.9634 28.1771L17.8958 28.3047L17.8283 28.4288L17.7607 28.5492L17.6931 28.6654L17.6256 28.7772L17.558 28.8843L17.4904 28.9864L17.4229 29.0832L17.3553 29.1746L17.2877 29.2604L17.2201 29.3403L17.1526 29.4141L17.085 29.4819L17.0174 29.5433L16.9499 29.5985L16.8823 29.6472L16.8147 29.6894L16.7472 29.7252L16.6796 29.7545L16.612 29.7774L16.5444 29.794L16.4769 29.8043L16.4093 29.8084L16.3417 29.8065L16.2742 29.7988L16.2066 29.7854L16.139 29.7666L16.0715 29.7425L16.0039 29.7135L15.9363 29.6797L15.8687 29.6415L15.8012 29.5992L15.7336 29.553L15.666 29.5035L15.5985 29.4508L15.5309 29.3953L15.4633 29.3375L15.3958 29.2776L15.3282 29.2162L15.2606 29.1535L15.193 29.0901L15.1255 29.0262L15.0579 28.9623L14.9903 28.8989L14.9228 28.8362L14.8552 28.7748L14.7876 28.7149L14.7201 28.6571L14.6525 28.6016L14.5849 28.5489L14.5173 28.4994L14.4498 28.4532L14.3822 28.4109L14.3146 28.3727L14.2471 28.3389L14.1795 28.3099L14.1119 28.2858L14.0444 28.267L13.9768 28.2536L13.9092 28.2459L13.8416 28.244L13.7741 28.2481L13.7065 28.2584L13.6389 28.275L13.5714 28.2979L13.5038 28.3272L13.4362 28.363L13.3687 28.4052L13.3011 28.4539L13.2335 28.5091L13.1659 28.5705L13.0984 28.6383L13.0308 28.7121L12.9632 28.792L12.8957 28.8778L12.8281 28.9692L12.7605 29.066L12.693 29.1681L12.6254 29.2752L12.5578 29.387L12.4902 29.5032L12.4227 29.6236L12.3551 29.7477L12.2875 29.8753L12.22 30.0061L12.1524 30.1395L12.0848 30.2754L12.0173 30.4133L11.9497 30.5527L11.8821 30.6934L11.8145 30.8349L11.747 30.9768L11.6794 31.1187L11.6118 31.2602L11.5443 31.4008L11.4767 31.5403L11.4091 31.6782L11.3416 31.814L11.274 31.9475L11.2064 32.0782L11.1388 32.2058L11.0713 32.33L11.0037 32.4503L10.9361 32.5665L10.8686 32.6783L10.801 32.7854L10.7334 32.8875L10.6658 32.9844L10.5983 33.0758L10.5307 33.1615L10.4631 33.2414L10.3956 33.3153L10.328 33.383L10.2604 33.4445L10.1929 33.4996L10.1253 33.5483L10.0577 33.5906L9.99015 33.6263L9.92258 33.6557L9.85501 33.6786L9.78744 33.6951L9.71987 33.7054L9.6523 33.7096L9.58473 33.7077L9.51716 33.7L9.44959 33.6866L9.38202 33.6677L9.31445 33.6437L9.24688 33.6146L9.17931 33.5808L9.11174 33.5426L9.04417 33.5003L8.9766 33.4542L8.90903 33.4046L8.84146 33.3519L8.77389 33.2965L8.70632 33.2386L8.63875 33.1788L8.57118 33.1173L8.50361 33.0547L8.43604 32.9912" stroke="#279AF1" stroke-width="0.679804" stroke-miterlimit="10" stroke-linecap="round" stroke-linejoin="round"/>
<path d="M35.3965 24.5879L35.3289 24.524L35.2613 24.4606L35.1938 24.3979L35.1262 24.3365L35.0586 24.2766L34.9911 24.2188L34.9235 24.1634L34.8559 24.1106L34.7884 24.0611L34.7208 24.0149L34.6532 23.9726L34.5856 23.9344L34.5181 23.9006L34.4505 23.8716L34.3829 23.8475L34.3154 23.8287L34.2478 23.8153L34.1802 23.8076L34.1127 23.8057L34.0451 23.8098L33.9775 23.8201L33.9099 23.8367L33.8424 23.8596L33.7748 23.8889L33.7072 23.9247L33.6397 23.967L33.5721 24.0156L33.5045 24.0708L33.437 24.1322L33.3694 24.2L33.3018 24.2738L33.2342 24.3537L33.1667 24.4395L33.0991 24.5309L33.0315 24.6277L32.964 24.7298L32.8964 24.8369L32.8288 24.9487L32.7613 25.0649L32.6937 25.1853L32.6261 25.3094L32.5585 25.437L32.491 25.5678L32.4234 25.7012L32.3558 25.8371L32.2883 25.975L32.2207 26.1144L32.1531 26.2551L32.0856 26.3966L32.018 26.5385L31.9504 26.6804L31.8828 26.8219L31.8153 26.9625L31.7477 27.102L31.6801 27.2399L31.6126 27.3757L31.545 27.5092L31.4774 27.6399L31.4099 27.7675L31.3423 27.8917L31.2747 28.012L31.2071 28.1282L31.1396 28.24L31.072 28.3471L31.0044 28.4492L30.9369 28.5461L30.8693 28.6375L30.8017 28.7232L30.7342 28.8031L30.6666 28.877L30.599 28.9447L30.5314 29.0062L30.4639 29.0613L30.3963 29.11L30.3287 29.1523L30.2612 29.188L30.1936 29.2174L30.126 29.2403L30.0585 29.2568L29.9909 29.2671L29.9233 29.2713L29.8557 29.2694L29.7882 29.2617L29.7206 29.2483L29.653 29.2295L29.5855 29.2054L29.5179 29.1763L29.4503 29.1425L29.3828 29.1043L29.3152 29.062L29.2476 29.0159L29.18 28.9663L29.1125 28.9136L29.0449 28.8582L28.9773 28.8003L28.9098 28.7405L28.8422 28.679L28.7746 28.6164L28.7071 28.5529L28.6395 28.4891L28.5719 28.4252L28.5043 28.3617L28.4368 28.2991L28.3692 28.2376L28.3016 28.1778L28.2341 28.12L28.1665 28.0645L28.0989 28.0118L28.0313 27.9622L27.9638 27.9161L27.8962 27.8738L27.8286 27.8356L27.7611 27.8018L27.6935 27.7727L27.6259 27.7487L27.5584 27.7298L27.4908 27.7164L27.4232 27.7087L27.3556 27.7069L27.2881 27.711L27.2205 27.7213L27.1529 27.7379L27.0854 27.7608L27.0178 27.7901L26.9502 27.8259L26.8827 27.8681L26.8151 27.9168L26.7475 27.9719L26.6799 28.0334L26.6124 28.1011L26.5448 28.175L26.4772 28.2549L26.4097 28.3406L26.3421 28.432L26.2745 28.5289L26.207 28.631L26.1394 28.7381L26.0718 28.8499L26.0042 28.9661L25.9367 29.0864L25.8691 29.2106L25.8015 29.3382L25.734 29.4689L25.6664 29.6024L25.5988 29.7383L25.5313 29.8761L25.4637 30.0156L25.3961 30.1563L25.3285 30.2977L25.261 30.4396L25.1934 30.5815L25.1258 30.723L25.0583 30.8637L24.9907 31.0032L24.9231 31.141L24.8556 31.2769L24.788 31.4104L24.7204 31.5411L24.6528 31.6687L24.5853 31.7928L24.5177 31.9132L24.4501 32.0294L24.3826 32.1412L24.315 32.2483L24.2474 32.3504L24.1799 32.4472L24.1123 32.5387L24.0447 32.6244L23.9771 32.7043L23.9096 32.7782L23.842 32.8459L23.7744 32.9074L23.7069 32.9625L23.6393 33.0112L23.5717 33.0534L23.5042 33.0892L23.4366 33.1185L23.369 33.1414L23.3014 33.158L23.2339 33.1683L23.1663 33.1724L23.0987 33.1706L23.0312 33.1628L22.9636 33.1495L22.896 33.1306L22.8285 33.1065L22.7609 33.0775L22.6933 33.0437L22.6257 33.0055L22.5582 32.9632L22.4906 32.9171L22.423 32.8675L22.3555 32.8148L22.2879 32.7593L22.2203 32.7015L22.1528 32.6416L22.0852 32.5802L22.0176 32.5176L21.95 32.4541L21.8825 32.3902L21.8149 32.3263L21.7473 32.2629L21.6798 32.2002L21.6122 32.1388L21.5446 32.079L21.4771 32.0211L21.4095 31.9657L21.3419 31.913L21.2743 31.8634L21.2068 31.8173L21.1392 31.7749L21.0716 31.7367L21.0041 31.703L20.9365 31.6739L20.8689 31.6498L20.8014 31.631L20.7338 31.6176L20.6662 31.6099L20.5986 31.608L20.5311 31.6122L20.4635 31.6225L20.3959 31.639L20.3284 31.6619L20.2608 31.6912L20.1932 31.727L20.1257 31.7693L20.0581 31.818L19.9905 31.8731L19.9229 31.9345L19.8554 32.0023L19.7878 32.0762L19.7202 32.156L19.6527 32.2418L19.5851 32.3332L19.5175 32.4301L19.45 32.5322L19.3824 32.6392L19.3148 32.751L19.2472 32.8673L19.1797 32.9876L19.1121 33.1117L19.0445 33.2394L18.977 33.3701L18.9094 33.5036L18.8418 33.6394L18.7743 33.7773L18.7067 33.9167L18.6391 34.0574L18.5715 34.1989L18.504 34.3408L18.4364 34.4827L18.3688 34.6242L18.3013 34.7649L18.2337 34.9043L18.1661 35.0422L18.0986 35.178L18.031 35.3115L17.9634 35.4422L17.8958 35.5698L17.8283 35.694L17.7607 35.8143L17.6931 35.9306L17.6256 36.0424L17.558 36.1494L17.4904 36.2515L17.4229 36.3484L17.3553 36.4398L17.2877 36.5256L17.2201 36.6054L17.1526 36.6793L17.085 36.7471L17.0174 36.8085L16.9499 36.8636L16.8823 36.9123L16.8147 36.9546L16.7472 36.9904L16.6796 37.0197L16.612 37.0426L16.5444 37.0591L16.4769 37.0694L16.4093 37.0736L16.3417 37.0717L16.2742 37.064L16.2066 37.0506L16.139 37.0318L16.0715 37.0077L16.0039 36.9786L15.9363 36.9449L15.8687 36.9067L15.8012 36.8643L15.7336 36.8182L15.666 36.7686L15.5985 36.7159L15.5309 36.6605L15.4633 36.6026L15.3958 36.5428L15.3282 36.4814L15.2606 36.4187L15.193 36.3552L15.1255 36.2914L15.0579 36.2275L14.9903 36.164L14.9228 36.1014L14.8552 36.0399L14.7876 35.9801L14.7201 35.9223L14.6525 35.8668L14.5849 35.8141L14.5173 35.7645L14.4498 35.7184L14.3822 35.6761L14.3146 35.6379L14.2471 35.6041L14.1795 35.5751L14.1119 35.551L14.0444 35.5321L13.9768 35.5188L13.9092 35.511L13.8416 35.5092L13.7741 35.5133L13.7065 35.5236L13.6389 35.5402L13.5714 35.5631L13.5038 35.5924L13.4362 35.6282L13.3687 35.6704L13.3011 35.7191L13.2335 35.7742L13.1659 35.8357L13.0984 35.9034L13.0308 35.9773L12.9632 36.0572L12.8957 36.1429L12.8281 36.2344L12.7605 36.3312L12.693 36.4333L12.6254 36.5404L12.5578 36.6522L12.4902 36.7684L12.4227 36.8888L12.3551 37.0129L12.2875 37.1405L12.22 37.2712L12.1524 37.4047L12.0848 37.5406L12.0173 37.6784L11.9497 37.8179L11.8821 37.9586L11.8145 38.1001L11.747 38.242L11.6794 38.3838L11.6118 38.5253L11.5443 38.666L11.4767 38.8055L11.4091 38.9433L11.3416 39.0792L11.274 39.2127L11.2064 39.3434L11.1388 39.471L11.0713 39.5951L11.0037 39.7155L10.9361 39.8317L10.8686 39.9435L10.801 40.0506L10.7334 40.1527L10.6658 40.2496L10.5983 40.341L10.5307 40.4267L10.4631 40.5066L10.3956 40.5805L10.328 40.6482L10.2604 40.7097L10.1929 40.7648L10.1253 40.8135L10.0577 40.8557L9.99015 40.8915L9.92258 40.9208L9.85501 40.9437L9.78744 40.9603L9.71987 40.9706L9.6523 40.9747L9.58473 40.9729L9.51716 40.9652L9.44959 40.9518L9.38202 40.9329L9.31445 40.9088L9.24688 40.8798L9.17931 40.846L9.11174 40.8078L9.04417 40.7655L8.9766 40.7194L8.90903 40.6698L8.84146 40.6171L8.77389 40.5616L8.70632 40.5038L8.63875 40.444L8.57118 40.3825L8.50361 40.3199L8.43604 40.2564" stroke="#279AF1" stroke-width="0.679804" stroke-miterlimit="10" stroke-linecap="round" stroke-linejoin="round"/>
<path d="M16.4097 12.7191L16.3206 12.8486L16.2318 12.9778L16.1438 13.1067L16.0568 13.2349L15.9712 13.3624L15.8873 13.4888L15.8055 13.6141L15.7261 13.738L15.6494 13.8603L15.5756 13.9809L15.5052 14.0996L15.4383 14.2162L15.3753 14.3306L15.3164 14.4427L15.2617 14.5522L15.2116 14.6592L15.1662 14.7634L15.1258 14.8648L15.0904 14.9632L15.0602 15.0587L15.0353 15.1511L15.0159 15.2403L15.0019 15.3264L14.9935 15.4093L14.9907 15.4889L14.9935 15.5653L15.0019 15.6385L15.0159 15.7085L15.0353 15.7753L15.0602 15.8389L15.0904 15.8995L15.1258 15.9571L15.1662 16.0118L15.2116 16.0636L15.2617 16.1127L15.3164 16.1592L15.3753 16.2032L15.4383 16.2448L15.5052 16.2842L15.5756 16.3216L15.6494 16.357L15.7261 16.3907L15.8055 16.4229L15.8873 16.4537L15.9712 16.4833L16.0568 16.5119L16.1438 16.5397L16.2318 16.5669L16.3206 16.5937L16.4097 16.6203L16.4988 16.6468L16.5875 16.6736L16.6756 16.7008L16.7626 16.7286L16.8482 16.7572L16.9321 16.7868L17.0139 16.8176L17.0933 16.8498L17.17 16.8835L17.2437 16.9189L17.3142 16.9563L17.381 16.9957L17.4441 17.0374L17.503 17.0813L17.5577 17.1278L17.6078 17.1769L17.6531 17.2287L17.6936 17.2834L17.729 17.341L17.7592 17.4016L17.7841 17.4652L17.8035 17.532L17.8175 17.602L17.8259 17.6752L17.8287 17.7516L17.8259 17.8312L17.8175 17.9141L17.8035 18.0002L17.7841 18.0894L17.7592 18.1818L17.729 18.2773L17.6936 18.3757L17.6531 18.4771L17.6078 18.5813L17.5577 18.6883L17.503 18.7978L17.4441 18.9099L17.381 19.0243L17.3142 19.141L17.2437 19.2596L17.17 19.3802L17.0933 19.5026L17.0139 19.6264L16.9321 19.7517L16.8482 19.8781L16.7626 20.0056L16.6756 20.1338L16.5875 20.2627L16.4988 20.3919L16.4097 20.5214L16.3206 20.6509L16.2318 20.7801L16.1438 20.909L16.0568 21.0372L15.9712 21.1647L15.8873 21.2911L15.8055 21.4164L15.7261 21.5403L15.6494 21.6626L15.5756 21.7832L15.5052 21.9019L15.4383 22.0185L15.3753 22.1329L15.3164 22.245L15.2617 22.3545L15.2116 22.4615L15.1662 22.5657L15.1258 22.6671L15.0904 22.7656L15.0602 22.861L15.0353 22.9534L15.0159 23.0427L15.0019 23.1287L14.9935 23.2116L14.9907 23.2912L14.9935 23.3676L15.0019 23.4408L15.0159 23.5108L15.0353 23.5776L15.0602 23.6413L15.0904 23.7018L15.1258 23.7594L15.1662 23.8141L15.2116 23.8659L15.2617 23.915L15.3164 23.9615L15.3753 24.0055L15.4383 24.0471L15.5052 24.0865L15.5756 24.1239L15.6494 24.1593L15.7261 24.1931L15.8055 24.2252L15.8873 24.256L15.9712 24.2856L16.0568 24.3142L16.1438 24.342L16.2318 24.3692L16.3206 24.396L16.4097 24.4226L16.4988 24.4492L16.5875 24.4759L16.6756 24.5031L16.7626 24.5309L16.8482 24.5595L16.9321 24.5891L17.0139 24.6199L17.0933 24.6521L17.17 24.6858L17.2437 24.7213L17.3142 24.7586L17.381 24.798L17.4441 24.8397L17.503 24.8837L17.5577 24.9301L17.6078 24.9792L17.6531 25.0311L17.6936 25.0857L17.729 25.1433L17.7592 25.2039L17.7841 25.2675L17.8035 25.3343L17.8175 25.4043L17.8259 25.4775L17.8287 25.5539L17.8259 25.6335L17.8175 25.7164L17.8035 25.8025L17.7841 25.8917L17.7592 25.9841L17.729 26.0796L17.6936 26.178L17.6531 26.2794L17.6078 26.3836L17.5577 26.4906L17.503 26.6002L17.4441 26.7122L17.381 26.8266L17.3142 26.9433L17.2437 27.062L17.17 27.1825L17.0933 27.3049L17.0139 27.4287L16.9321 27.554L16.8482 27.6805L16.7626 27.8079L16.6756 27.9361L16.5875 28.065L16.4988 28.1943L16.4097 28.3237L16.3206 28.4532L16.2319 28.5825L16.1438 28.7113L16.0568 28.8396L15.9712 28.967L15.8873 29.0934L15.8055 29.2187L15.7261 29.3426L15.6494 29.4649L15.5756 29.5855L15.5052 29.7042L15.4383 29.8208L15.3753 29.9352L15.3164 30.0473L15.2617 30.1569L15.2116 30.2638L15.1662 30.368L15.1258 30.4694L15.0904 30.5679L15.0602 30.6633L15.0353 30.7557L15.0159 30.845L15.0019 30.931L14.9935 31.0139L14.9907 31.0935L14.9935 31.17L15.0019 31.2431L15.0159 31.3131L15.0353 31.3799L15.0602 31.4436L15.0904 31.5042L15.1258 31.5617L15.1662 31.6164L15.2116 31.6682L15.2617 31.7173L15.3164 31.7638L15.3753 31.8078L15.4383 31.8494L15.5052 31.8888L15.5756 31.9262L15.6494 31.9616L15.7261 31.9954L15.8055 32.0275L15.8873 32.0583L15.9712 32.0879L16.0568 32.1165L16.1438 32.1443L16.2319 32.1715L16.3206 32.1983L16.4097 32.2249L16.4988 32.2515L16.5875 32.2783L16.6756 32.3054L16.7626 32.3332L16.8482 32.3618L16.9321 32.3914L17.0139 32.4222L17.0933 32.4544L17.17 32.4881L17.2437 32.5236L17.3142 32.5609L17.381 32.6004L17.4441 32.642L17.503 32.686L17.5577 32.7324L17.6078 32.7815L17.6531 32.8334L17.6936 32.888L17.729 32.9456L17.7592 33.0062L17.7841 33.0699L17.8035 33.1367L17.8175 33.2066L17.8259 33.2798L17.8287 33.3562L17.8259 33.4359L17.8175 33.5187L17.8035 33.6048L17.7841 33.6941L17.7592 33.7864L17.729 33.8819L17.6936 33.9804L17.6531 34.0817L17.6078 34.186L17.5577 34.2929L17.503 34.4025L17.4441 34.5145L17.381 34.629L17.3142 34.7456L17.2437 34.8643L17.17 34.9849L17.0933 35.1072L17.0139 35.2311L16.9321 35.3563L16.8482 35.4828L16.7626 35.6102L16.6756 35.7385L16.5875 35.8673L16.4988 35.9966L16.4097 36.126L16.3206 36.2555L16.2319 36.3848L16.1438 36.5136L16.0568 36.6419L15.9712 36.7693L15.8873 36.8958L15.8055 37.021L15.7261 37.1449L15.6494 37.2672L15.5756 37.3878L15.5052 37.5065L15.4383 37.6231L15.3753 37.7375L15.3164 37.8496L15.2617 37.9592L15.2116 38.0661L15.1662 38.1703L15.1258 38.2717L15.0904 38.3702L15.0602 38.4657L15.0353 38.558L15.0159 38.6473L15.0019 38.7334L14.9935 38.8162L14.9907 38.8959L14.9935 38.9723L15.0019 39.0455L15.0159 39.1154L15.0353 39.1822L15.0602 39.2459L15.0904 39.3065L15.1258 39.3641L15.1662 39.4187L15.2116 39.4705L15.2617 39.5196L15.3164 39.5661L15.3753 39.6101L15.4383 39.6517L15.5052 39.6912L15.5756 39.7285L15.6494 39.764L15.7261 39.7977L15.8055 39.8299L15.8873 39.8606L15.9712 39.8902L16.0568 39.9188L16.1438 39.9466L16.2319 39.9738L16.3206 40.0006L16.4097 40.0272L16.4988 40.0538L16.5875 40.0806L16.6756 40.1078L16.7626 40.1356L16.8482 40.1642L16.9321 40.1938L17.0139 40.2245L17.0933 40.2567L17.17 40.2904L17.2437 40.3259L17.3142 40.3632L17.381 40.4027L17.4441 40.4443L17.503 40.4883L17.5577 40.5348L17.6078 40.5839L17.6531 40.6357L17.6936 40.6903L17.729 40.7479L17.7592 40.8085L17.7841 40.8722L17.8035 40.939L17.8175 41.0089L17.8259 41.0821L17.8287 41.1585L17.8259 41.2382L17.8175 41.321L17.8035 41.4071L17.7841 41.4964L17.7592 41.5887L17.729 41.6842L17.6936 41.7827L17.6531 41.8841L17.6078 41.9883L17.5577 42.0952L17.503 42.2048L17.4441 42.3169L17.381 42.4313L17.3142 42.5479L17.2437 42.6666L17.17 42.7872L17.0933 42.9095L17.0139 43.0334L16.9321 43.1586L16.8482 43.2851L16.7626 43.4125L16.6756 43.5408L16.5875 43.6696L16.4988 43.7989" stroke="#279AF1" stroke-width="0.679804" stroke-miterlimit="10" stroke-linecap="round" stroke-linejoin="round"/>
<path d="M22.0738 9.44893L21.9847 9.57839L21.8959 9.70765L21.8079 9.83651L21.7209 9.96476L21.6353 10.0922L21.5514 10.2187L21.4696 10.3439L21.3902 10.4678L21.3134 10.5901L21.2397 10.7107L21.1693 10.8294L21.1024 10.946L21.0394 11.0604L20.9804 11.1725L20.9258 11.2821L20.8757 11.389L20.8303 11.4932L20.7898 11.5946L20.7544 11.6931L20.7242 11.7885L20.6994 11.8809L20.6799 11.9702L20.666 12.0562L20.6576 12.1391L20.6548 12.2188L20.6576 12.2952L20.666 12.3683L20.6799 12.4383L20.6994 12.5051L20.7242 12.5688L20.7544 12.6294L20.7898 12.6869L20.8303 12.7416L20.8757 12.7934L20.9258 12.8425L20.9804 12.889L21.0394 12.933L21.1024 12.9746L21.1693 13.014L21.2397 13.0514L21.3134 13.0869L21.3902 13.1206L21.4696 13.1527L21.5514 13.1835L21.6353 13.2131L21.7209 13.2417L21.8079 13.2695L21.8959 13.2967L21.9847 13.3235L22.0738 13.3501L22.1629 13.3767L22.2516 13.4035L22.3396 13.4306L22.4266 13.4584L22.5122 13.487L22.5961 13.5166L22.6779 13.5474L22.7574 13.5796L22.8341 13.6133L22.9078 13.6488L22.9782 13.6861L23.0451 13.7256L23.1081 13.7672L23.1671 13.8112L23.2217 13.8577L23.2718 13.9067L23.3172 13.9586L23.3577 14.0132L23.3931 14.0708L23.4233 14.1314L23.4481 14.1951L23.4676 14.2619L23.4815 14.3318L23.4899 14.405L23.4927 14.4814L23.4899 14.5611L23.4815 14.6439L23.4676 14.73L23.4481 14.8193L23.4233 14.9116L23.3931 15.0071L23.3577 15.1056L23.3172 15.2069L23.2718 15.3112L23.2217 15.4181L23.1671 15.5277L23.1081 15.6397L23.0451 15.7542L22.9782 15.8708L22.9078 15.9895L22.8341 16.1101L22.7574 16.2324L22.6779 16.3563L22.5961 16.4815L22.5122 16.608L22.4266 16.7354L22.3396 16.8637L22.2516 16.9925L22.1629 17.1218L22.0738 17.2512L21.9847 17.3807L21.8959 17.51L21.8079 17.6388L21.7209 17.7671L21.6353 17.8945L21.5514 18.021L21.4696 18.1462L21.3902 18.2701L21.3134 18.3924L21.2397 18.513L21.1693 18.6317L21.1024 18.7483L21.0394 18.8627L20.9804 18.9748L20.9258 19.0844L20.8757 19.1913L20.8303 19.2955L20.7898 19.3969L20.7544 19.4954L20.7242 19.5909L20.6994 19.6832L20.6799 19.7725L20.666 19.8586L20.6576 19.9414L20.6548 20.0211L20.6576 20.0975L20.666 20.1707L20.6799 20.2406L20.6994 20.3074L20.7242 20.3711L20.7544 20.4317L20.7898 20.4893L20.8303 20.5439L20.8757 20.5957L20.9258 20.6448L20.9804 20.6913L21.0394 20.7353L21.1024 20.7769L21.1693 20.8164L21.2397 20.8537L21.3134 20.8892L21.3902 20.9229L21.4696 20.9551L21.5514 20.9858L21.6353 21.0154L21.7209 21.044L21.8079 21.0718L21.8959 21.099L21.9847 21.1258L22.0738 21.1524L22.1629 21.179L22.2516 21.2058L22.3396 21.233L22.4266 21.2608L22.5122 21.2894L22.5961 21.319L22.6779 21.3497L22.7574 21.3819L22.8341 21.4156L22.9078 21.4511L22.9782 21.4885L23.0451 21.5279L23.1081 21.5695L23.1671 21.6135L23.2217 21.66L23.2718 21.7091L23.3172 21.7609L23.3577 21.8155L23.3931 21.8731L23.4233 21.9337L23.4481 21.9974L23.4676 22.0642L23.4815 22.1342L23.4899 22.2073L23.4927 22.2837L23.4899 22.3634L23.4815 22.4462L23.4676 22.5323L23.4481 22.6216L23.4233 22.714L23.3931 22.8094L23.3577 22.9079L23.3172 23.0093L23.2718 23.1135L23.2217 23.2204L23.1671 23.33L23.1081 23.4421L23.0451 23.5565L22.9782 23.6731L22.9078 23.7918L22.8341 23.9124L22.7574 24.0347L22.6779 24.1586L22.5961 24.2838L22.5122 24.4103L22.4266 24.5377L22.3396 24.666L22.2516 24.7948L22.1629 24.9241L22.0738 25.0536L21.9847 25.183L21.8959 25.3123L21.8079 25.4411L21.7209 25.5694L21.6353 25.6968L21.5514 25.8233L21.4696 25.9485L21.3902 26.0724L21.3134 26.1947L21.2397 26.3153L21.1693 26.434L21.1024 26.5507L21.0394 26.6651L20.9804 26.7771L20.9258 26.8867L20.8757 26.9936L20.8303 27.0979L20.7898 27.1993L20.7544 27.2977L20.7242 27.3932L20.6994 27.4856L20.6799 27.5748L20.666 27.6609L20.6576 27.7437L20.6548 27.8234L20.6576 27.8998L20.666 27.973L20.6799 28.0429L20.6994 28.1097L20.7242 28.1734L20.7544 28.234L20.7898 28.2916L20.8303 28.3462L20.8757 28.3981L20.9258 28.4472L20.9804 28.4936L21.0394 28.5376L21.1024 28.5793L21.1693 28.6187L21.2397 28.656L21.3134 28.6915L21.3902 28.7252L21.4696 28.7574L21.5514 28.7882L21.6353 28.8178L21.7209 28.8464L21.8079 28.8742L21.8959 28.9014L21.9847 28.9281L22.0738 28.9547L22.1629 28.9813L22.2516 29.0081L22.3396 29.0353L22.4266 29.0631L22.5122 29.0917L22.5961 29.1213L22.6779 29.1521L22.7574 29.1842L22.8341 29.218L22.9078 29.2534L22.9782 29.2908L23.0451 29.3302L23.1081 29.3718L23.1671 29.4158L23.2217 29.4623L23.2718 29.5114L23.3172 29.5632L23.3577 29.6179L23.3931 29.6754L23.4233 29.736L23.4481 29.7997L23.4676 29.8665L23.4815 29.9365L23.4899 30.0096L23.4927 30.0861L23.4899 30.1657L23.4815 30.2486L23.4676 30.3346L23.4481 30.4239L23.4233 30.5163L23.3931 30.6117L23.3577 30.7102L23.3172 30.8116L23.2718 30.9158L23.2217 31.0227L23.1671 31.1323L23.1081 31.2444L23.0451 31.3588L22.9782 31.4754L22.9078 31.5941L22.8341 31.7147L22.7574 31.837L22.6779 31.9609L22.5961 32.0862L22.5122 32.2126L22.4266 32.34L22.3396 32.4683L22.2516 32.5972L22.1629 32.7264L22.0738 32.8559L21.9847 32.9853L21.8959 33.1146L21.8079 33.2435L21.7209 33.3717L21.6353 33.4992L21.5514 33.6256L21.4696 33.7509L21.3902 33.8747L21.3134 33.9971L21.2397 34.1176L21.1693 34.2363L21.1024 34.353L21.0394 34.4674L20.9804 34.5794L20.9258 34.689L20.8757 34.796L20.8303 34.9002L20.7898 35.0016L20.7544 35.1L20.7242 35.1955L20.6994 35.2879L20.6799 35.3771L20.666 35.4632L20.6576 35.5461L20.6548 35.6257L20.6576 35.7021L20.666 35.7753L20.6799 35.8453L20.6994 35.9121L20.7242 35.9757L20.7544 36.0363L20.7898 36.0939L20.8303 36.1486L20.8757 36.2004L20.9258 36.2495L20.9804 36.2959L21.0394 36.3399L21.1024 36.3816L21.1693 36.421L21.2397 36.4583L21.3134 36.4938L21.3902 36.5275L21.4696 36.5597L21.5514 36.5905L21.6353 36.6201L21.7209 36.6487L21.8079 36.6765L21.8959 36.7037L21.9847 36.7305L22.0738 36.757L22.1629 36.7836L22.2516 36.8104L22.3396 36.8376L22.4266 36.8654L22.5122 36.894L22.5961 36.9236L22.6779 36.9544L22.7574 36.9865L22.8341 37.0203L22.9078 37.0557L22.9782 37.0931L23.0451 37.1325L23.1081 37.1741L23.1671 37.2181L23.2217 37.2646L23.2718 37.3137L23.3172 37.3655L23.3577 37.4202L23.3931 37.4778L23.4233 37.5384L23.4481 37.602L23.4676 37.6688L23.4815 37.7388L23.4899 37.812L23.4927 37.8884L23.4899 37.968L23.4815 38.0509L23.4676 38.137L23.4481 38.2262L23.4233 38.3186L23.3931 38.414L23.3577 38.5125L23.3172 38.6139L23.2718 38.7181L23.2217 38.8251L23.1671 38.9346L23.1081 39.0467L23.0451 39.1611L22.9782 39.2777L22.9078 39.3964L22.8341 39.517L22.7574 39.6393L22.6779 39.7632L22.5961 39.8885L22.5122 40.0149L22.4266 40.1424L22.3396 40.2706L22.2516 40.3995L22.1629 40.5287" stroke="#279AF1" stroke-width="0.679804" stroke-miterlimit="10" stroke-linecap="round" stroke-linejoin="round"/>
<path d="M27.7373 6.17936L27.6482 6.30882L27.5595 6.43809L27.4714 6.56694L27.3844 6.69519L27.2988 6.82264L27.215 6.94908L27.1332 7.07434L27.0537 7.19822L26.977 7.32054L26.9033 7.44113L26.8328 7.55982L26.766 7.67645L26.7029 7.79086L26.644 7.90292L26.5894 8.01249L26.5393 8.11944L26.4939 8.22366L26.4534 8.32505L26.418 8.42351L26.3878 8.51897L26.3629 8.61135L26.3435 8.7006L26.3295 8.78668L26.3212 8.86954L26.3184 8.94918L26.3212 9.02559L26.3295 9.09877L26.3435 9.16874L26.3629 9.23554L26.3878 9.2992L26.418 9.35979L26.4534 9.41737L26.4939 9.47203L26.5393 9.52386L26.5894 9.57295L26.644 9.61943L26.7029 9.66342L26.766 9.70505L26.8328 9.74447L26.9033 9.78183L26.977 9.81728L27.0537 9.85101L27.1332 9.88317L27.215 9.91396L27.2988 9.94356L27.3844 9.97216L27.4714 9.99996L27.5595 10.0272L27.6482 10.0539L27.7373 10.0805L27.8264 10.1071L27.9152 10.1339L28.0032 10.1611L28.0902 10.1889L28.1758 10.2175L28.2597 10.2471L28.3415 10.2779L28.4209 10.31L28.4977 10.3438L28.5714 10.3792L28.6418 10.4166L28.7087 10.456L28.7717 10.4976L28.8307 10.5416L28.8853 10.5881L28.9354 10.6372L28.9808 10.689L29.0213 10.7437L29.0567 10.8012L29.0869 10.8618L29.1117 10.9255L29.1312 10.9923L29.1451 11.0623L29.1535 11.1354L29.1563 11.2119L29.1535 11.2915L29.1451 11.3744L29.1312 11.4604L29.1117 11.5497L29.0869 11.6421L29.0567 11.7375L29.0213 11.836L28.9808 11.9374L28.9354 12.0416L28.8853 12.1485L28.8307 12.2581L28.7717 12.3702L28.7087 12.4846L28.6418 12.6012L28.5714 12.7199L28.4977 12.8405L28.4209 12.9628L28.3415 13.0867L28.2597 13.212L28.1758 13.3384L28.0902 13.4658L28.0032 13.5941L27.9152 13.723L27.8264 13.8522L27.7373 13.9817L27.6482 14.1111L27.5595 14.2404L27.4714 14.3693L27.3844 14.4975L27.2988 14.625L27.215 14.7514L27.1332 14.8767L27.0537 15.0005L26.977 15.1229L26.9033 15.2434L26.8328 15.3621L26.766 15.4788L26.7029 15.5932L26.644 15.7052L26.5894 15.8148L26.5393 15.9218L26.4939 16.026L26.4534 16.1274L26.418 16.2258L26.3878 16.3213L26.3629 16.4137L26.3435 16.5029L26.3295 16.589L26.3212 16.6719L26.3184 16.7515L26.3212 16.8279L26.3295 16.9011L26.3435 16.9711L26.3629 17.0379L26.3878 17.1015L26.418 17.1621L26.4534 17.2197L26.4939 17.2743L26.5393 17.3262L26.5894 17.3753L26.644 17.4217L26.7029 17.4657L26.766 17.5074L26.8328 17.5468L26.9033 17.5841L26.977 17.6196L27.0537 17.6533L27.1332 17.6855L27.215 17.7163L27.2988 17.7459L27.3844 17.7745L27.4714 17.8023L27.5595 17.8295L27.6482 17.8563L27.7373 17.8828L27.8264 17.9094L27.9152 17.9362L28.0032 17.9634L28.0902 17.9912L28.1758 18.0198L28.2597 18.0494L28.3415 18.0802L28.4209 18.1123L28.4977 18.1461L28.5714 18.1815L28.6418 18.2189L28.7087 18.2583L28.7717 18.2999L28.8307 18.3439L28.8853 18.3904L28.9354 18.4395L28.9808 18.4913L29.0213 18.546L29.0567 18.6036L29.0869 18.6642L29.1117 18.7278L29.1312 18.7946L29.1451 18.8646L29.1535 18.9378L29.1563 19.0142L29.1535 19.0938L29.1451 19.1767L29.1312 19.2628L29.1117 19.352L29.0869 19.4444L29.0567 19.5398L29.0213 19.6383L28.9808 19.7397L28.9354 19.8439L28.8853 19.9509L28.8307 20.0604L28.7717 20.1725L28.7087 20.2869L28.6418 20.4035L28.5714 20.5222L28.4977 20.6428L28.4209 20.7651L28.3415 20.889L28.2597 21.0143L28.1758 21.1407L28.0902 21.2682L28.0032 21.3964L27.9152 21.5253L27.8264 21.6545L27.7373 21.784L27.6482 21.9135L27.5595 22.0427L27.4714 22.1716L27.3844 22.2998L27.2988 22.4273L27.215 22.5537L27.1332 22.679L27.0537 22.8029L26.977 22.9252L26.9033 23.0458L26.8328 23.1645L26.766 23.2811L26.7029 23.3955L26.644 23.5076L26.5894 23.6171L26.5393 23.7241L26.4939 23.8283L26.4534 23.9297L26.418 24.0281L26.3878 24.1236L26.3629 24.216L26.3435 24.3052L26.3295 24.3913L26.3212 24.4742L26.3184 24.5538L26.3212 24.6302L26.3295 24.7034L26.3435 24.7734L26.3629 24.8402L26.3878 24.9038L26.418 24.9644L26.4534 25.022L26.4939 25.0767L26.5393 25.1285L26.5894 25.1776L26.644 25.2241L26.7029 25.2681L26.766 25.3097L26.8328 25.3491L26.9033 25.3865L26.977 25.4219L27.0537 25.4556L27.1332 25.4878L27.215 25.5186L27.2988 25.5482L27.3844 25.5768L27.4714 25.6046L27.5595 25.6318L27.6482 25.6586L27.7373 25.6852L27.8264 25.7117L27.9152 25.7385L28.0032 25.7657L28.0902 25.7935L28.1758 25.8221L28.2597 25.8517L28.3415 25.8825L28.4209 25.9147L28.4977 25.9484L28.5714 25.9838L28.6418 26.0212L28.7087 26.0606L28.7717 26.1022L28.8307 26.1462L28.8853 26.1927L28.9354 26.2418L28.9808 26.2936L29.0213 26.3483L29.0567 26.4059L29.0869 26.4665L29.1117 26.5301L29.1312 26.5969L29.1451 26.6669L29.1535 26.7401L29.1563 26.8165L29.1535 26.8961L29.1451 26.979L29.1312 27.0651L29.1117 27.1543L29.0869 27.2467L29.0567 27.3422L29.0213 27.4406L28.9808 27.542L28.9354 27.6462L28.8853 27.7532L28.8307 27.8627L28.7717 27.9748L28.7087 28.0892L28.6418 28.2058L28.5714 28.3245L28.4977 28.4451L28.4209 28.5674L28.3415 28.6913L28.2597 28.8166L28.1758 28.943L28.0902 29.0705L28.0032 29.1987L27.9152 29.3276L27.8264 29.4568L27.7373 29.5863L27.6482 29.7158L27.5595 29.845L27.4714 29.9739L27.3844 30.1021L27.2988 30.2296L27.215 30.356L27.1332 30.4813L27.0537 30.6052L26.977 30.7275L26.9033 30.8481L26.8328 30.9668L26.766 31.0834L26.7029 31.1978L26.644 31.3099L26.5894 31.4194L26.5393 31.5264L26.4939 31.6306L26.4534 31.732L26.418 31.8305L26.3878 31.9259L26.3629 32.0183L26.3435 32.1075L26.3295 32.1936L26.3212 32.2765L26.3184 32.3561L26.3212 32.4325L26.3295 32.5057L26.3435 32.5757L26.3629 32.6425L26.3878 32.7061L26.418 32.7667L26.4534 32.8243L26.4939 32.879L26.5393 32.9308L26.5894 32.9799L26.644 33.0264L26.7029 33.0704L26.766 33.112L26.8328 33.1514L26.9033 33.1888L26.977 33.2242L27.0537 33.258L27.1332 33.2901L27.215 33.3209L27.2988 33.3505L27.3844 33.3791L27.4714 33.4069L27.5595 33.4341L27.6482 33.4609L27.7373 33.4875L27.8264 33.514L27.9152 33.5408L28.0032 33.568L28.0902 33.5958L28.1758 33.6244L28.2597 33.654L28.3415 33.6848L28.4209 33.717L28.4977 33.7507L28.5714 33.7862L28.6418 33.8235L28.7087 33.8629L28.7717 33.9046L28.8307 33.9486L28.8853 33.995L28.9354 34.0441L28.9808 34.096L29.0213 34.1506L29.0567 34.2082L29.0869 34.2688L29.1117 34.3324L29.1312 34.3992L29.1451 34.4692L29.1535 34.5424L29.1563 34.6188L29.1535 34.6984L29.1451 34.7813L29.1312 34.8674L29.1117 34.9566L29.0869 35.049L29.0567 35.1445L29.0213 35.2429L28.9808 35.3443L28.9354 35.4485L28.8853 35.5555L28.8307 35.6651L28.7717 35.7771L28.7087 35.8915L28.6418 36.0082L28.5714 36.1269L28.4977 36.2474L28.4209 36.3698L28.3415 36.4936L28.2597 36.6189L28.1758 36.7453L28.0902 36.8728L28.0032 37.001L27.9152 37.1299L27.8264 37.2592" stroke="#279AF1" stroke-width="0.679804" stroke-miterlimit="10" stroke-linecap="round" stroke-linejoin="round"/>
</g>
<path d="M30.5553 15.2232L39.9998 20.7732L30.5553 26.3233L21.1108 20.7732L30.5553 15.2232Z" fill="#B8B8FF"/>
<path d="M21.1108 20.773L30.5553 26.3231V41.1232L21.1108 35.5732V20.773Z" fill="#9381FF"/>
<path d="M30.5552 26.3229L39.9997 20.7728V35.573L30.5552 41.123V26.3229Z" fill="#574AE2"/>
<path d="M26.103 17.0721C26.103 17.7946 26.6014 18.4488 27.4071 18.9222V22.6225C26.6014 22.149 26.103 21.4949 26.103 20.7724V17.0721Z" fill="#9381FF"/>
<path d="M27.4072 18.9222C29.146 19.944 31.9651 19.944 33.7039 18.9222V22.6224C31.9651 23.6442 29.146 23.6442 27.4072 22.6224V18.9222Z" fill="#9381FF"/>
<path d="M35.0072 17.0721C35.0072 17.7946 34.5089 18.4488 33.7031 18.9222V22.6225C34.5089 22.149 35.0072 21.4949 35.0072 20.7724V17.0721Z" fill="#574AE2"/>
<path d="M33.7041 18.9224C31.9653 19.9442 29.1463 19.9442 27.4076 18.9224C25.6688 17.9006 25.6688 16.244 27.4076 15.2222C29.1463 14.2005 31.9653 14.2005 33.7041 15.2222C35.4428 16.244 35.4428 17.9006 33.7041 18.9224Z" fill="#B8B8FF"/>
<defs>
<clipPath id="clip0_29569_7717">
<rect width="16.7486" height="22.3358" fill="white" transform="matrix(0.866025 0.5 0 1 0.00537109 10.4089)"/>
</clipPath>
<clipPath id="clip1_29569_7717">
<rect width="16.7486" height="22.3358" fill="white" transform="matrix(-0.866025 0.5 0 1 29.0151 10.4089)"/>
</clipPath>
</defs>
</svg>
