<svg fill="none" height="20" viewBox="0 0 20 20" width="20" xmlns="http://www.w3.org/2000/svg">
  <path
    d="m17.8125 13.6719c-.0714.0407-.1501.067-.2317.0772-.0815.0103-.1643.0043-.2435-.0174-.0793-.0218-.1534-.059-.2183-.1094-.0648-.0505-.1191-.1133-.1597-.1847l-1.4843-2.5938c-.863.5835-1.815 1.0231-2.8188 1.3016l.4586 2.7515c.0135.081.011.1639-.0075.2439-.0186.08-.0527.1556-.1004.2224-.0477.0669-.1082.1236-.1779.1671-.0697.0434-.1472.0727-.2283.0862-.0333.0054-.067.0083-.1007.0086-.1479-.0003-.2909-.0529-.4036-.1486s-.1879-.2282-.2121-.3741l-.4507-2.7016c-.9507.1323-1.91504.1323-2.86567 0l-.45078 2.7016c-.02426.1461-.09962.2789-.21266.3746s-.2564.1482-.40453.1481c-.03455-.0002-.06903-.0031-.10312-.0086-.08102-.0135-.15859-.0428-.22828-.0862-.06969-.0435-.13013-.1002-.17788-.1671-.04774-.0668-.08184-.1424-.10036-.2224-.01851-.08-.02108-.1629-.00755-.2439l.46094-2.7515c-1.00341-.2794-1.95484-.7198-2.81719-1.3039l-1.47968 2.5961c-.04104.0715-.09576.1342-.16104.1846-.06528.0503-.13984.0873-.21943.1089-.07958.0215-.16263.0272-.2444.0166-.08177-.0105-.16066-.0371-.23217-.0781-.0715-.0411-.13423-.0958-.18459-.1611-.05036-.0652-.08737-.1398-.10892-.2194-.02154-.0796-.0272-.1626-.01666-.2444.01055-.0817.0371-.1606.07814-.2321l1.5625-2.7344c-.54883-.47418-1.0535-.99715-1.50781-1.56252-.05666-.06326-.09983-.1374-.12688-.2179s-.03741-.16567-.03045-.2503c.00696-.08464.03109-.16697.07093-.24197.03984-.07499.09454-.14109.16077-.19424.06623-.05316.1426-.09226.22444-.11491.08184-.02266.16745-.0284.25158-.01688.08414.01153.16504.04008.23778.08391.07273.04384.13577.10203.18527.17104 1.29687 1.60469 3.56562 3.51567 7.01406 3.51567s5.71714-1.91333 7.01404-3.51567c.049-.07042.1119-.13002.1848-.17509.073-.04506.1544-.07464.2393-.08688.0848-.01224.1713-.00688.254.01574.0828.02262.1599.06202.2268.11574.0668.05372.1219.12063.1617.19655.0399.07592.0637.15923.07.24475.0063.08551-.0051.17141-.0334.25235-.0284.08093-.073.15517-.1313.21809-.4543.56537-.959 1.08834-1.5078 1.56252l1.5625 2.7344c.0419.0712.0693.1501.0805.2321.0113.0819.0061.1653-.0151.2452s-.0581.1549-.1085.2204c-.0504.0656-.1133.1205-.185.1616z"
    fill="#fff" />
</svg>
