<svg xmlns="http://www.w3.org/2000/svg" width="21" height="20" viewBox="0 0 21 20" fill="none">
  <path
    d="M18.3125 13.6717C18.2411 13.7124 18.1624 13.7386 18.0808 13.7489C17.9993 13.7591 17.9165 13.7532 17.8373 13.7314C17.758 13.7097 17.6839 13.6725 17.619 13.622C17.5542 13.5715 17.4999 13.5088 17.4593 13.4373L15.975 10.8436C15.112 11.4271 14.16 11.8666 13.1562 12.1451L13.6148 14.8967C13.6283 14.9777 13.6258 15.0606 13.6073 15.1406C13.5887 15.2206 13.5546 15.2962 13.5069 15.363C13.4592 15.4298 13.3987 15.4866 13.329 15.53C13.2593 15.5735 13.1818 15.6028 13.1007 15.6162C13.0674 15.6217 13.0337 15.6245 13 15.6248C12.8521 15.6246 12.7091 15.572 12.5964 15.4763C12.4837 15.3806 12.4085 15.248 12.3843 15.1022L11.9336 12.4006C10.9829 12.5329 10.0186 12.5329 9.06793 12.4006L8.61715 15.1022C8.59289 15.2483 8.51753 15.381 8.40449 15.4768C8.29145 15.5725 8.14809 15.625 7.99996 15.6248C7.96541 15.6247 7.93093 15.6218 7.89684 15.6162C7.81582 15.6028 7.73825 15.5735 7.66856 15.53C7.59887 15.4866 7.53843 15.4298 7.49068 15.363C7.44294 15.2962 7.40884 15.2206 7.39032 15.1406C7.37181 15.0606 7.36924 14.9777 7.38277 14.8967L7.84371 12.1451C6.8403 11.8657 5.88887 11.4254 5.02652 10.8412L3.54684 13.4373C3.5058 13.5088 3.45108 13.5715 3.3858 13.6219C3.32052 13.6723 3.24596 13.7093 3.16637 13.7308C3.08679 13.7524 3.00374 13.758 2.92197 13.7475C2.8402 13.7369 2.76131 13.7104 2.6898 13.6693C2.6183 13.6283 2.55557 13.5736 2.50521 13.5083C2.45485 13.443 2.41784 13.3685 2.39629 13.2889C2.37475 13.2093 2.36909 13.1263 2.37963 13.0445C2.39018 12.9627 2.41673 12.8838 2.45777 12.8123L4.02027 10.0779C3.47144 9.60378 2.96677 9.0808 2.51246 8.51544C2.4558 8.45218 2.41263 8.37803 2.38558 8.29754C2.35853 8.21704 2.34817 8.13187 2.35513 8.04723C2.36209 7.9626 2.38622 7.88027 2.42606 7.80527C2.4659 7.73027 2.5206 7.66418 2.58683 7.61102C2.65306 7.55787 2.72943 7.51877 2.81127 7.49611C2.89311 7.47345 2.97872 7.46771 3.06285 7.47924C3.14699 7.49076 3.22789 7.51932 3.30063 7.56315C3.37336 7.60698 3.4364 7.66518 3.4859 7.73419C4.78277 9.33887 7.05152 11.2498 10.5 11.2498C13.9484 11.2498 16.2171 9.33653 17.514 7.73419C17.563 7.66377 17.6259 7.60417 17.6988 7.5591C17.7718 7.51403 17.8532 7.48446 17.9381 7.47222C18.0229 7.45998 18.1094 7.46534 18.1921 7.48795C18.2749 7.51057 18.352 7.54997 18.4189 7.6037C18.4857 7.65742 18.5408 7.72432 18.5806 7.80024C18.6205 7.87616 18.6443 7.95947 18.6506 8.04499C18.6569 8.13051 18.6455 8.21641 18.6172 8.29734C18.5888 8.37828 18.5442 8.45251 18.4859 8.51544C18.0316 9.0808 17.5269 9.60378 16.9781 10.0779L18.5406 12.8123C18.5825 12.8836 18.6099 12.9625 18.6211 13.0444C18.6324 13.1264 18.6272 13.2097 18.606 13.2896C18.5848 13.3696 18.5479 13.4445 18.4975 13.5101C18.4471 13.5757 18.3842 13.6306 18.3125 13.6717Z"
    fill="black" />
</svg>
