<svg xmlns="http://www.w3.org/2000/svg" width="48" height="48" viewBox="0 0 48 48" fill="none">
  <mask id="mask0_29753_6370" style="mask-type:luminance" maskUnits="userSpaceOnUse" x="8" y="4"
    width="32" height="41">
    <path d="M40 4H8V44.1569H40V4Z" fill="white" />
  </mask>
  <g mask="url(#mask0_29753_6370)">
    <path
      d="M30.5712 7.61366L38.9492 15.7755C39.6624 16.4688 40.0134 17.1703 40.0023 17.8772C39.9913 18.5841 39.6845 19.2284 39.0847 19.8129C38.4572 20.4247 37.78 20.7347 37.0558 20.7482C36.3316 20.7591 35.6129 20.4166 34.8998 19.7233L26.3311 11.3765C25.3581 10.4277 24.4183 9.75608 23.5145 9.36186C22.6106 8.96763 21.6597 8.9051 20.6647 9.17698C19.6668 9.44614 18.5972 10.1394 17.45 11.2541C15.869 12.7957 15.1144 14.2421 15.1918 15.5934C15.2692 16.9446 16.0542 18.3475 17.544 19.7967L26.1818 28.2141C26.9033 28.9156 27.257 29.617 27.246 30.313C27.235 31.0118 26.9254 31.6561 26.3145 32.2515C25.7064 32.8442 25.0347 33.1542 24.305 33.1787C23.5753 33.2031 22.8483 32.8633 22.1296 32.1618L13.7517 23.9999C12.389 22.6732 11.4049 21.4171 10.7996 20.2316C10.1943 19.0463 9.96761 17.7059 10.1252 16.2106C10.2661 14.93 10.6835 13.6902 11.3801 12.4885C12.0739 11.2868 13.0689 10.0579 14.3598 8.79907C15.8966 7.301 17.3643 6.15366 18.763 5.35433C20.1589 4.555 21.5105 4.11183 22.8151 4.01939C24.1225 3.92695 25.4106 4.18252 26.6849 4.7861C27.9592 5.38967 29.2528 6.33038 30.5685 7.61366H30.5712Z"
      fill="url(#paint0_linear_29753_6370)" />
    <path
      d="M17.4281 40.5467L9.05289 32.3849C8.33975 31.6888 7.98871 30.9901 7.99976 30.2832C8.01082 29.5763 8.31764 28.932 8.91745 28.3474C9.5449 27.7357 10.2221 27.4257 10.9463 27.4121C11.6705 27.4013 12.3892 27.7411 13.1023 28.4371L21.6682 36.7839C22.644 37.7327 23.581 38.4043 24.4848 38.7985C25.3888 39.1928 26.3396 39.2526 27.3374 38.9834C28.3353 38.7143 29.4049 38.0209 30.552 36.9035C32.1332 35.3619 32.8877 33.9155 32.8104 32.5643C32.7329 31.213 31.9479 29.8101 30.4581 28.3583L25.8559 23.913C25.1344 23.2116 24.7806 22.5101 24.7917 21.8141C24.8027 21.1154 25.1123 20.471 25.7232 19.8756C26.3313 19.2829 27.003 18.973 27.7327 18.9485C28.4624 18.924 29.1893 19.2639 29.908 19.9653L34.2477 24.155C35.6104 25.4818 36.5944 26.7379 37.1998 27.9233C37.8051 29.1087 38.0317 30.449 37.8741 31.9444C37.7332 33.225 37.3158 34.4647 36.6192 35.6665C35.9255 36.8682 34.9304 38.0971 33.6395 39.3559C32.1027 40.8539 30.635 42.0013 29.2363 42.8006C27.8377 43.6 26.4861 44.0458 25.1787 44.1383C23.8713 44.2308 22.5832 43.9751 21.3089 43.3716C20.0346 42.768 18.741 41.8273 17.4253 40.544L17.4281 40.5467Z"
      fill="url(#paint1_linear_29753_6370)" />
    <path
      d="M22.6526 19.4866C24.3517 19.4866 25.7291 18.1319 25.7291 16.4606C25.7291 14.7894 24.3517 13.4346 22.6526 13.4346C20.9536 13.4346 19.5762 14.7894 19.5762 16.4606C19.5762 18.1319 20.9536 19.4866 22.6526 19.4866Z"
      fill="url(#paint2_radial_29753_6370)" />
  </g>
  <defs>
    <linearGradient id="paint0_linear_29753_6370" x1="37.5713" y1="12.3688" x2="11.7506"
      y2="24.0348" gradientUnits="userSpaceOnUse">
      <stop stop-color="#201C1B" />
      <stop offset="0.36" stop-color="#77390D" />
      <stop offset="0.67" stop-color="#EA8101" />
      <stop offset="1" stop-color="#F4B852" />
    </linearGradient>
    <linearGradient id="paint1_linear_29753_6370" x1="11.1456" y1="36.1279" x2="41.1509"
      y2="27.0489" gradientUnits="userSpaceOnUse">
      <stop stop-color="#1F1D1C" />
      <stop offset="0.37" stop-color="#77390D" />
      <stop offset="0.67" stop-color="#EA8101" />
      <stop offset="1" stop-color="#F4FB52" />
    </linearGradient>
    <radialGradient id="paint2_radial_29753_6370" cx="0" cy="0" r="1" gradientUnits="userSpaceOnUse"
      gradientTransform="translate(22.6526 16.4633) scale(3.07644 3.02604)">
      <stop stop-color="#F4B852" />
      <stop offset="0.33" stop-color="#EA8101" />
      <stop offset="0.64" stop-color="#77390D" />
      <stop offset="1" stop-color="#211C1D" />
    </radialGradient>
  </defs>
</svg>
