<svg xmlns="http://www.w3.org/2000/svg" width="20" height="20" viewBox="0 0 20 20" fill="none">
  <rect width="20" height="20" rx="3.66667" fill="url(#paint0_linear_30165_6944)" />
  <path
    d="M5.5 8C4.96957 8 4.46086 8.21071 4.08579 8.58579C3.71071 8.96086 3.5 9.46957 3.5 10V14C3.5 14.5304 3.71071 15.0391 4.08579 15.4142C4.46086 15.7893 4.96957 16 5.5 16H14.5C15.0304 16 15.5391 15.7893 15.9142 15.4142C16.2893 15.0391 16.5 14.5304 16.5 14V10C16.5 9.46957 16.2893 8.96086 15.9142 8.58579C15.5391 8.21071 15.0304 8 14.5 8H12C11.8674 8 11.7402 8.05268 11.6464 8.14645C11.5527 8.24021 11.5 8.36739 11.5 8.5C11.5 8.89782 11.342 9.27936 11.0607 9.56066C10.7794 9.84196 10.3978 10 10 10C9.60218 10 9.22064 9.84196 8.93934 9.56066C8.65804 9.27936 8.5 8.89782 8.5 8.5C8.5 8.36739 8.44732 8.24021 8.35355 8.14645C8.25979 8.05268 8.13261 8 8 8H5.5Z"
    fill="white" />
  <path
    d="M3.51562 7.74902C4.06319 7.26472 4.76928 6.99789 5.50029 6.99902H14.5003C15.261 6.99902 15.9556 7.28236 16.485 7.74902C16.4241 7.26565 16.1888 6.82112 15.8234 6.49891C15.458 6.17669 14.9875 5.99894 14.5003 5.99902H5.50029C5.0131 5.99894 4.54262 6.17669 4.1772 6.49891C3.81177 6.82112 3.57652 7.26565 3.51562 7.74902Z"
    fill="white" fill-opacity="0.6" />
  <path
    d="M3.51562 5.74902C4.06319 5.26472 4.76928 4.99789 5.50029 4.99902H14.5003C15.261 4.99902 15.9556 5.28236 16.485 5.74902C16.4241 5.26565 16.1888 4.82112 15.8234 4.49891C15.458 4.17669 14.9875 3.99894 14.5003 3.99902H5.50029C5.0131 3.99894 4.54262 4.17669 4.1772 4.49891C3.81177 4.82112 3.57652 5.26565 3.51562 5.74902Z"
    fill="white" fill-opacity="0.2" />
  <defs>
    <linearGradient id="paint0_linear_30165_6944" x1="20" y1="-1.19209e-06" x2="1.19209e-06" y2="20"
      gradientUnits="userSpaceOnUse">
      <stop stop-color="#B9B8E1" />
      <stop offset="0.359375" stop-color="#ADA4F4" />
      <stop offset="0.703125" stop-color="#9394F6" />
      <stop offset="1" stop-color="#A9AAF8" />
    </linearGradient>
  </defs>
</svg>
